<?xml version="1.0" encoding="utf-8"?>
<!-- Generator: Adobe Illustrator 16.0.4, SVG Export Plug-In . SVG Version: 6.00 Build 0)  -->
<!DOCTYPE svg PUBLIC "-//W3C//DTD SVG 1.1//EN" "http://www.w3.org/Graphics/SVG/1.1/DTD/svg11.dtd">
<svg version="1.1" xmlns="http://www.w3.org/2000/svg" xmlns:xlink="http://www.w3.org/1999/xlink" x="0px" y="0px" width="30px"
	 height="30px" viewBox="0 0 30 30" enable-background="new 0 0 30 30" xml:space="preserve">
<g id="Layer_1">
	<path fill="#FFFFFF" d="M26.296,6.314c-0.47-0.47-1.085-0.705-1.701-0.705s-1.231,0.235-1.701,0.705L11.998,17.21
		c-0.939,0.939-0.939,2.462,0,3.402c0.47,0.469,1.086,0.704,1.701,0.704s1.231-0.235,1.701-0.704L26.296,9.716
		C27.235,8.777,27.235,7.253,26.296,6.314z"/>
	<path fill="#FFFFFF" d="M10.583,22.027c-0.571-0.572-0.936-1.268-1.126-2c-0.449,0.079-0.863,0.281-1.27,0.492
		c-0.993,0.516-2.44,0.893-3.368,0.019c-0.223-0.209-0.424-0.518-0.53-0.806c-0.25-0.677-0.23-1.27,0.026-1.938
		c0.079-0.207-0.024-0.438-0.23-0.518c-0.208-0.08-0.439,0.024-0.519,0.231c-0.677,1.771-0.845,3.856,0.044,5.585
		c0.23,0.449,0.517,0.933,0.85,1.315c0.546,0.626,1.191,1.249,1.964,1.582c0.771,0.331,1.63,0.488,2.469,0.435
		c1.742-0.112,3.521-1.611,3.882-3.21C11.951,23.04,11.193,22.636,10.583,22.027z"/>
</g>
<g id="Layer_2" display="none">
	<path display="inline" fill="#355168" d="M26.296,6.314c-0.47-0.47-1.085-0.705-1.701-0.705s-1.231,0.235-1.701,0.705L11.998,17.21
		c-0.939,0.939-0.939,2.462,0,3.402c0.47,0.469,1.086,0.704,1.701,0.704s1.231-0.235,1.701-0.704L26.296,9.716
		C27.235,8.777,27.235,7.253,26.296,6.314z"/>
	<path display="inline" fill="#355168" d="M10.583,22.027c-0.571-0.572-0.936-1.268-1.126-2c-0.449,0.079-0.863,0.281-1.27,0.492
		c-0.993,0.516-2.44,0.893-3.368,0.019c-0.223-0.209-0.424-0.518-0.53-0.806c-0.25-0.677-0.23-1.27,0.026-1.938
		c0.079-0.207-0.024-0.438-0.23-0.518c-0.208-0.08-0.439,0.024-0.519,0.231c-0.677,1.771-0.845,3.856,0.044,5.585
		c0.23,0.449,0.517,0.933,0.85,1.315c0.546,0.626,1.191,1.249,1.964,1.582c0.771,0.331,1.63,0.488,2.469,0.435
		c1.742-0.112,3.521-1.611,3.882-3.21C11.951,23.04,11.193,22.636,10.583,22.027z"/>
</g>
</svg>
