<?xml version="1.0" encoding="utf-8"?>
<!-- Generator: Adobe Illustrator 16.0.4, SVG Export Plug-In . SVG Version: 6.00 Build 0)  -->
<!DOCTYPE svg PUBLIC "-//W3C//DTD SVG 1.1//EN" "http://www.w3.org/Graphics/SVG/1.1/DTD/svg11.dtd">
<svg version="1.1" xmlns="http://www.w3.org/2000/svg" xmlns:xlink="http://www.w3.org/1999/xlink" x="0px" y="0px" width="30px"
	 height="30px" viewBox="0 0 30 30" enable-background="new 0 0 30 30" xml:space="preserve">
<g id="Layer_1">
	<g>
		<path fill="#FFFFFF" d="M15,3c-4.72,0-8.547,1.346-8.547,3.007v2.628c0,1.791,3.827,3.242,8.547,3.242
			c4.721,0,8.547-1.451,8.547-3.242V6.007C23.547,4.346,19.721,3,15,3z"/>
		<path fill="#FFFFFF" d="M15,14.928c-4.411,0-8.04-1.269-8.496-2.896c-0.032,0.105-0.051-0.586-0.051-0.479v4.369
			c0,1.791,3.827,3.242,8.547,3.242c4.721,0,8.547-1.451,8.547-3.242v-4.369c0-0.107-0.019,0.584-0.05,0.479
			C23.041,13.659,19.412,14.928,15,14.928z"/>
		<path fill="#FFFFFF" d="M15,22.182c-4.411,0-8.04-1.267-8.496-2.895c-0.032,0.105-0.051,0.214-0.051,0.321v3.569
			C6.453,24.97,10.28,27,15,27c4.721,0,8.547-2.03,8.547-3.822v-3.569c0-0.107-0.019-0.216-0.05-0.321
			C23.041,20.915,19.412,22.182,15,22.182z"/>
	</g>
</g>
<g id="Layer_2" display="none">
	<g display="inline">
		<path fill="#355168" d="M15,3c-4.72,0-8.547,1.346-8.547,3.007v2.628c0,1.791,3.827,3.242,8.547,3.242
			c4.721,0,8.547-1.451,8.547-3.242V6.007C23.547,4.346,19.721,3,15,3z"/>
		<path fill="#355168" d="M15,14.928c-4.411,0-8.04-1.269-8.496-2.896c-0.032,0.105-0.051-0.586-0.051-0.479v4.369
			c0,1.791,3.827,3.242,8.547,3.242c4.721,0,8.547-1.451,8.547-3.242v-4.369c0-0.107-0.019,0.584-0.05,0.479
			C23.041,13.659,19.412,14.928,15,14.928z"/>
		<path fill="#355168" d="M15,22.182c-4.411,0-8.04-1.267-8.496-2.895c-0.032,0.105-0.051,0.214-0.051,0.321v3.569
			C6.453,24.97,10.28,27,15,27c4.721,0,8.547-2.03,8.547-3.822v-3.569c0-0.107-0.019-0.216-0.05-0.321
			C23.041,20.915,19.412,22.182,15,22.182z"/>
	</g>
</g>
</svg>
