<?xml version="1.0" encoding="utf-8"?>
<!-- Generator: Adobe Illustrator 16.0.4, SVG Export Plug-In . SVG Version: 6.00 Build 0)  -->
<!DOCTYPE svg PUBLIC "-//W3C//DTD SVG 1.1//EN" "http://www.w3.org/Graphics/SVG/1.1/DTD/svg11.dtd">
<svg version="1.1" xmlns="http://www.w3.org/2000/svg" xmlns:xlink="http://www.w3.org/1999/xlink" x="0px" y="0px" width="30px"
	 height="30px" viewBox="0 0 30 30" enable-background="new 0 0 30 30" xml:space="preserve">
<g id="Layer_1">
	<path fill="#FFFFFF" d="M25.4,4.933H4.6c-0.88,0-1.6,0.72-1.6,1.6v13.6c0,0.88,0.72,1.6,1.6,1.6H11.4v2.465H6.2
		c-0.553,0-1,0.448-1,1s0.447,1,1,1h17.6c0.553,0,1-0.448,1-1s-0.447-1-1-1h-5.2v-2.465H25.4c0.88,0,1.6-0.72,1.6-1.6v-13.6
		C27,5.653,26.28,4.933,25.4,4.933z M25,19.733H5v-12.8h20V19.733z"/>
</g>
<g id="Layer_2" display="none">
	<path display="inline" fill="#355168" d="M25.4,4.933H4.6c-0.88,0-1.6,0.72-1.6,1.6v13.6c0,0.88,0.72,1.6,1.6,1.6H11.4v2.465H6.2
		c-0.553,0-1,0.448-1,1s0.447,1,1,1h17.6c0.553,0,1-0.448,1-1s-0.447-1-1-1h-5.2v-2.465H25.4c0.88,0,1.6-0.72,1.6-1.6v-13.6
		C27,5.653,26.28,4.933,25.4,4.933z M25,19.733H5v-12.8h20V19.733z"/>
</g>
</svg>
