<?xml version="1.0" encoding="utf-8"?>
<!-- Generator: Adobe Illustrator 16.0.4, SVG Export Plug-In . SVG Version: 6.00 Build 0)  -->
<!DOCTYPE svg PUBLIC "-//W3C//DTD SVG 1.1//EN" "http://www.w3.org/Graphics/SVG/1.1/DTD/svg11.dtd">
<svg version="1.1" xmlns="http://www.w3.org/2000/svg" xmlns:xlink="http://www.w3.org/1999/xlink" x="0px" y="0px" width="30px"
	 height="30px" viewBox="0 0 30 30" enable-background="new 0 0 30 30" xml:space="preserve">
<g id="Layer_1">
	<path fill="#FFFFFF" d="M23.801,3H6.199c-0.88,0-1.6,0.72-1.6,1.6v20.8c0,0.88,0.72,1.6,1.6,1.6h17.602c0.88,0,1.6-0.72,1.6-1.6
		V4.6C25.4,3.72,24.681,3,23.801,3z M14.9,25.915c-0.661,0-1.199-0.537-1.199-1.202c0-0.663,0.538-1.2,1.199-1.2
		s1.199,0.537,1.199,1.2C16.1,25.377,15.562,25.915,14.9,25.915z M23.799,22.714H6.201V6.203h17.598V22.714z"/>
</g>
<g id="Layer_2" display="none">
	<path display="inline" fill="#355168" d="M23.801,3H6.199c-0.88,0-1.6,0.72-1.6,1.6v20.8c0,0.88,0.72,1.6,1.6,1.6h17.602
		c0.88,0,1.6-0.72,1.6-1.6V4.6C25.4,3.72,24.681,3,23.801,3z M14.9,25.915c-0.661,0-1.199-0.537-1.199-1.202
		c0-0.663,0.538-1.2,1.199-1.2s1.199,0.537,1.199,1.2C16.1,25.377,15.562,25.915,14.9,25.915z M23.799,22.714H6.201V6.203h17.598
		V22.714z"/>
</g>
</svg>
