<?xml version="1.0" encoding="utf-8"?>
<!-- Generator: Adobe Illustrator 16.0.4, SVG Export Plug-In . SVG Version: 6.00 Build 0)  -->
<!DOCTYPE svg PUBLIC "-//W3C//DTD SVG 1.1//EN" "http://www.w3.org/Graphics/SVG/1.1/DTD/svg11.dtd">
<svg version="1.1" xmlns="http://www.w3.org/2000/svg" xmlns:xlink="http://www.w3.org/1999/xlink" x="0px" y="0px" width="30px"
	 height="30px" viewBox="0 0 30 30" enable-background="new 0 0 30 30" xml:space="preserve">
<g id="Layer_1" display="none">
	<path display="inline" fill="#FFFFFF" d="M23.922,15.856c-0.881-0.064-1.652,0.594-1.719,1.476
		c-0.293,3.846-3.658,6.736-7.504,6.443c-3.845-0.293-6.736-3.66-6.444-7.505c0.157-2.053,1.204-3.924,2.872-5.134
		c0.743-0.539,1.585-0.903,2.467-1.116v1.788c0,0.647,0.391,1.232,0.989,1.479c0.198,0.082,0.407,0.122,0.613,0.122
		c0.417,0,0.827-0.162,1.133-0.469l3.604-3.604c0.625-0.626,0.625-1.64,0-2.266l-3.604-3.604c-0.458-0.458-1.146-0.595-1.746-0.348
		c-0.598,0.248-0.989,0.832-0.989,1.479v2.144c-1.561,0.254-3.053,0.861-4.348,1.8c-2.432,1.764-3.958,4.491-4.186,7.483
		C4.635,21.634,8.85,26.542,14.456,26.97c0.262,0.02,0.521,0.029,0.78,0.029c5.274,0,9.754-4.079,10.162-9.424
		C25.465,16.693,24.805,15.924,23.922,15.856z"/>
</g>
<g id="Layer_2">
	<path fill="#355168" d="M23.922,15.856c-0.881-0.064-1.652,0.594-1.719,1.476c-0.293,3.846-3.658,6.736-7.504,6.443
		c-3.845-0.293-6.736-3.66-6.444-7.505c0.157-2.053,1.204-3.924,2.872-5.134c0.743-0.539,1.585-0.903,2.467-1.116v1.788
		c0,0.647,0.391,1.232,0.989,1.479c0.198,0.082,0.407,0.122,0.613,0.122c0.417,0,0.827-0.162,1.133-0.469l3.604-3.604
		c0.625-0.626,0.625-1.64,0-2.266l-3.604-3.604c-0.458-0.458-1.146-0.595-1.746-0.348c-0.598,0.248-0.989,0.832-0.989,1.479v2.144
		c-1.561,0.254-3.053,0.861-4.348,1.8c-2.432,1.764-3.958,4.491-4.186,7.483C4.635,21.634,8.85,26.542,14.456,26.97
		c0.262,0.02,0.521,0.029,0.78,0.029c5.274,0,9.754-4.079,10.162-9.424C25.465,16.693,24.805,15.924,23.922,15.856z"/>
</g>
</svg>
