<?xml version="1.0" encoding="utf-8"?>
<!-- Generator: Adobe Illustrator 16.0.4, SVG Export Plug-In . SVG Version: 6.00 Build 0)  -->
<!DOCTYPE svg PUBLIC "-//W3C//DTD SVG 1.1//EN" "http://www.w3.org/Graphics/SVG/1.1/DTD/svg11.dtd">
<svg version="1.1" xmlns="http://www.w3.org/2000/svg" xmlns:xlink="http://www.w3.org/1999/xlink" x="0px" y="0px" width="30px"
	 height="30px" viewBox="0 0 30 30" enable-background="new 0 0 30 30" xml:space="preserve">
<g id="Layer_1">
	<path fill="#FFFFFF" d="M25,8.517H5c-1.104,0-2,0.896-2,2v9.012c0,1.104,0.896,2,2,2h20c1.104,0,2-0.896,2-2v-9.012
		C27,9.412,26.104,8.517,25,8.517z M25,19.528h-1.859v-5.751h-1.666v5.751h-1.987v-2.547H17.82v2.547h-1.986v-5.752h-1.668v5.752
		H12.18v-2.547h-1.667v2.547H8.525v-5.751H6.859v5.751H5v-9.012h20V19.528z"/>
</g>
<g id="Layer_2" display="none">
	<path display="inline" fill="#355168" d="M25,8.517H5c-1.104,0-2,0.896-2,2v9.012c0,1.104,0.896,2,2,2h20c1.104,0,2-0.896,2-2
		v-9.012C27,9.412,26.104,8.517,25,8.517z M25,19.528h-1.859v-5.751h-1.666v5.751h-1.987v-2.547H17.82v2.547h-1.986v-5.752h-1.668
		v5.752H12.18v-2.547h-1.667v2.547H8.525v-5.751H6.859v5.751H5v-9.012h20V19.528z"/>
</g>
</svg>
