<?xml version="1.0" encoding="utf-8"?>
<!-- Generator: Adobe Illustrator 16.0.4, SVG Export Plug-In . SVG Version: 6.00 Build 0)  -->
<!DOCTYPE svg PUBLIC "-//W3C//DTD SVG 1.1//EN" "http://www.w3.org/Graphics/SVG/1.1/DTD/svg11.dtd">
<svg version="1.1" xmlns="http://www.w3.org/2000/svg" xmlns:xlink="http://www.w3.org/1999/xlink" x="0px" y="0px" width="30px"
	 height="30px" viewBox="0 0 30 30" enable-background="new 0 0 30 30" xml:space="preserve">
<g id="Layer_1" display="none">
	<g display="inline">
		<path fill="#FFFFFF" d="M5,3C3.896,3,3,3.896,3,5v20c0,1.104,0.896,2,2,2s2-0.896,2-2V5C7,3.896,6.104,3,5,3z"/>
		<path fill="#FFFFFF" d="M26,17.885H9.991c-0.552,0-1,0.448-1,1V26c0,0.552,0.448,1,1,1H26c0.552,0,1-0.448,1-1v-7.115
			C27,18.333,26.552,17.885,26,17.885z M25,25H10.991v-5.115H25V25z"/>
		<path fill="#FFFFFF" d="M9.991,16.22h9.333c0.552,0,1-0.448,1-1V8.105c0-0.552-0.448-1-1-1H9.991c-0.552,0-1,0.448-1,1v7.114
			C8.991,15.772,9.439,16.22,9.991,16.22z"/>
	</g>
</g>
<g id="Layer_2">
	<g>
		<path fill="#355168" d="M5,3C3.896,3,3,3.896,3,5v20c0,1.104,0.896,2,2,2s2-0.896,2-2V5C7,3.896,6.104,3,5,3z"/>
		<path fill="#355168" d="M26,17.885H9.991c-0.552,0-1,0.448-1,1V26c0,0.552,0.448,1,1,1H26c0.552,0,1-0.448,1-1v-7.115
			C27,18.333,26.552,17.885,26,17.885z M25,25H10.991v-5.115H25V25z"/>
		<path fill="#355168" d="M9.991,16.22h9.333c0.552,0,1-0.448,1-1V8.105c0-0.552-0.448-1-1-1H9.991c-0.552,0-1,0.448-1,1v7.114
			C8.991,15.772,9.439,16.22,9.991,16.22z"/>
	</g>
</g>
</svg>
