<?xml version="1.0" encoding="utf-8"?>
<!-- Generator: Adobe Illustrator 16.0.4, SVG Export Plug-In . SVG Version: 6.00 Build 0)  -->
<!DOCTYPE svg PUBLIC "-//W3C//DTD SVG 1.1//EN" "http://www.w3.org/Graphics/SVG/1.1/DTD/svg11.dtd">
<svg version="1.1" xmlns="http://www.w3.org/2000/svg" xmlns:xlink="http://www.w3.org/1999/xlink" x="0px" y="0px" width="30px"
	 height="30px" viewBox="0 0 30 30" enable-background="new 0 0 30 30" xml:space="preserve">
<g id="Layer_1">
	<path fill="#FFFFFF" d="M25.155,16.027c-0.228-2.992-1.753-5.72-4.185-7.483c-1.294-0.938-2.788-1.545-4.348-1.799V4.601
		c0-0.647-0.391-1.231-0.989-1.479c-0.599-0.247-1.288-0.11-1.746,0.348l-3.604,3.604c-0.625,0.626-0.625,1.64,0,2.266l3.604,3.604
		c0.306,0.307,0.716,0.469,1.133,0.469c0.206,0,0.415-0.039,0.613-0.122c0.598-0.247,0.989-0.832,0.989-1.479v-1.788
		c0.882,0.213,1.724,0.577,2.467,1.116c1.668,1.21,2.715,3.081,2.872,5.134c0.292,3.845-2.599,7.212-6.443,7.505
		c-3.848,0.291-7.212-2.598-7.505-6.443c-0.067-0.882-0.84-1.539-1.719-1.476c-0.882,0.067-1.542,0.837-1.475,1.719
		c0.407,5.345,4.887,9.424,10.162,9.424c0.258,0,0.519-0.01,0.78-0.029C21.367,26.542,25.582,21.634,25.155,16.027z"/>
</g>
<g id="Layer_2" display="none">
	<path display="inline" fill="#355168" d="M25.155,16.027c-0.228-2.992-1.753-5.72-4.185-7.483
		c-1.294-0.938-2.788-1.545-4.348-1.799V4.601c0-0.647-0.391-1.231-0.989-1.479c-0.599-0.247-1.288-0.11-1.746,0.348l-3.604,3.604
		c-0.625,0.626-0.625,1.64,0,2.266l3.604,3.604c0.306,0.307,0.716,0.469,1.133,0.469c0.206,0,0.415-0.039,0.613-0.122
		c0.598-0.247,0.989-0.832,0.989-1.479v-1.788c0.882,0.213,1.724,0.577,2.467,1.116c1.668,1.21,2.715,3.081,2.872,5.134
		c0.292,3.845-2.599,7.212-6.443,7.505c-3.848,0.291-7.212-2.598-7.505-6.443c-0.067-0.882-0.84-1.539-1.719-1.476
		c-0.882,0.067-1.542,0.837-1.475,1.719c0.407,5.345,4.887,9.424,10.162,9.424c0.258,0,0.519-0.01,0.78-0.029
		C21.367,26.542,25.582,21.634,25.155,16.027z"/>
</g>
</svg>
