<?xml version="1.0" encoding="UTF-8" standalone="no"?>
<svg width="10px" height="10px" viewBox="0 0 10 10" version="1.1" xmlns="http://www.w3.org/2000/svg" xmlns:xlink="http://www.w3.org/1999/xlink" xmlns:sketch="http://www.bohemiancoding.com/sketch/ns">
    <!-- Generator: Sketch 3.3.3 (12072) - http://www.bohemiancoding.com/sketch -->
    <title>Tree_Invisible</title>
    <desc>Created with Sketch.</desc>
    <defs></defs>
    <g id="Page-1" stroke="none" stroke-width="1" fill="none" fill-rule="evenodd" sketch:type="MSPage">
        <g id="Tree_Invisible" sketch:type="MSLayerGroup" fill="#FFFFFF">
            <g id="Tree-Behavior" sketch:type="MSShapeGroup">
                <g id="Story-#">
                    <g id="Tree---List-State">
                        <g id="Column-+-ï’">
                            <path d="M1.07421875,9.8259905 C0.950520215,9.94981 0.802409717,10.0117188 0.629882812,10.0117188 C0.457355908,10.0117188 0.30924541,9.94981 0.185546875,9.8259905 C0.0618483398,9.702171 0,9.5539158 0,9.3812202 C0,9.2085247 0.0618483398,9.0602694 0.185546875,8.9364499 L1.37695312,7.7438791 C0.654293262,6.96186147 0.198568652,6.05277965 0.009765625,5.01660634 C0.159505957,4.19548786 0.475258008,3.45095311 0.95703125,2.78297975 C1.43880449,2.11500638 2.03450166,1.59041078 2.74414062,1.20917721 C3.45377959,0.82794363 4.2057252,0.6373297 5,0.6373297 C5.94401514,0.6373297 6.82942295,0.91103175 7.65625,1.45844407 L8.91601562,0.197447 C9.03971416,0.07362755 9.18945225,0.01171875 9.36523438,0.01171875 C9.5410165,0.01171875 9.689127,0.07199837 9.80957031,0.19255941 C9.93001362,0.31312046 9.99023438,0.46137574 9.99023438,0.6373297 C9.99023438,0.81328366 9.92838604,0.96316811 9.8046875,1.08698757 L1.07421875,9.8259905 L1.07421875,9.8259905 Z M5,1.88855159 C4.14713115,1.88855159 3.34961309,2.09708649 2.60742188,2.51416254 L2.5,2.51416254 L2.5,2.57281357 C2.02473721,2.85955335 1.622723,3.21308517 1.29394531,3.63341963 C0.965167627,4.05375409 0.745443262,4.51481171 0.634765625,5.01660634 C0.817058203,5.831208 1.27603799,6.52849656 2.01171875,7.1084929 L2.84179688,6.26782823 C2.61393115,5.88333625 2.5,5.46626645 2.5,5.01660634 C2.5,4.62559754 2.59114492,4.25414475 2.7734375,3.90223683 L3.33007812,4.17594162 C3.19335869,4.44964778 3.125,4.72986655 3.125,5.01660634 C3.125,5.29682931 3.18684834,5.56075629 3.31054688,5.80839519 L3.79882812,5.31963664 C3.76627588,5.20885081 3.75,5.10784172 3.75,5.01660634 C3.75,4.82761875 3.79557246,4.64189236 3.88671875,4.45942158 L4.40429688,4.71357603 L4.69726562,4.41054573 L4.44335938,3.90223683 C4.62565195,3.81100145 4.81119697,3.76538444 5,3.76538444 C5.09114629,3.76538444 5.19531191,3.77841787 5.3125,3.80448512 L5.80078125,3.31572657 C5.54687373,3.19842393 5.27994932,3.13977349 5,3.13977349 C4.72005068,3.13977349 4.44336074,3.208199 4.16992188,3.34505208 L3.88671875,2.77809216 C4.23828301,2.6021382 4.60937305,2.51416254 5,2.51416254 C5.449221,2.51416254 5.86913867,2.62820506 6.25976562,2.85629353 L6.85546875,2.2600081 C6.25650742,2.01236919 5.63802402,1.88855159 5,1.88855159 L5,1.88855159 L5,1.88855159 Z M7.49023438,5.28053595 C7.42512988,5.86704915 7.18424687,6.36720707 6.76757812,6.78102471 C6.35090938,7.1948424 5.85286748,7.4343317 5.2734375,7.4994998 L7.49023438,5.28053595 L7.49023438,5.28053595 Z M5,8.1348859 C6.05469277,8.1348859 6.99706616,7.8383753 7.82714844,7.2453453 C8.65723071,6.65231533 9.17317607,5.90940976 9.375,5.01660634 C9.28385371,4.62559754 9.12109492,4.24762804 8.88671875,3.88268649 L9.40429688,3.36460243 C9.69726709,3.88594749 9.89583281,4.43660995 10,5.01660634 C9.85025967,5.83772481 9.53288003,6.58225956 9.04785156,7.2502329 C8.5628231,7.9182063 7.96549834,8.4411727 7.25585938,8.8191479 C6.54622041,9.1971231 5.7942748,9.3861078 5,9.3861078 C4.53124766,9.3861078 4.06575752,9.3144239 3.60351562,9.171054 L4.6484375,8.1251107 C4.77864648,8.1316275 4.89583281,8.1348859 5,8.1348859 L5,8.1348859 L5,8.1348859 Z" id="Invisible-Icon"></path>
                        </g>
                    </g>
                </g>
            </g>
        </g>
    </g>
</svg>