<?xml version="1.0" encoding="utf-8"?>
<!-- Generator: Adobe Illustrator 16.0.4, SVG Export Plug-In . SVG Version: 6.00 Build 0)  -->
<!DOCTYPE svg PUBLIC "-//W3C//DTD SVG 1.1//EN" "http://www.w3.org/Graphics/SVG/1.1/DTD/svg11.dtd">
<svg version="1.1" id="Layer_1" xmlns="http://www.w3.org/2000/svg" xmlns:xlink="http://www.w3.org/1999/xlink" x="0px" y="0px"
	 width="30px" height="30px" viewBox="0 0 30 30" enable-background="new 0 0 30 30" xml:space="preserve">
<path fill="#D1D3D4" d="M10.3,23H6.2C4.4,23,3,21.6,3,19.8V6.2C3,4.4,4.4,3,6.2,3h13.6C21.6,3,23,4.4,23,6.2v4.1
	c0,0.3-0.2,0.5-0.5,0.5S22,10.6,22,10.3V6.2C22,5,21,4,19.8,4H6.2C5,4,4,5,4,6.2v13.6C4,21,5,22,6.2,22h4.1c0.3,0,0.5,0.2,0.5,0.5
	S10.6,23,10.3,23z"/>
<path fill="#D1D3D4" d="M26.6,24.7L20.9,19l2-2c0.4-0.4,0.6-1.1,0.5-1.7s-0.6-1.1-1.2-1.3l-11-3.9c-0.3-0.1-0.7,0-1,0.2
	c-0.3,0.3-0.3,0.6-0.2,1l3.9,11c0.2,0.6,0.7,1,1.3,1.2c0.6,0.1,1.2,0,1.7-0.5l2-2l5.7,5.7c0.3,0.3,0.6,0.4,1,0.4
	c0.3,0,0.7-0.1,1-0.4C27.1,26,27.1,25.2,26.6,24.7z"/>
</svg>
