<?xml version="1.0" encoding="utf-8"?>
<!-- Generator: Adobe Illustrator 16.0.4, SVG Export Plug-In . SVG Version: 6.00 Build 0)  -->
<!DOCTYPE svg PUBLIC "-//W3C//DTD SVG 1.1//EN" "http://www.w3.org/Graphics/SVG/1.1/DTD/svg11.dtd">
<svg version="1.1" id="Layer_1" xmlns="http://www.w3.org/2000/svg" xmlns:xlink="http://www.w3.org/1999/xlink" x="0px" y="0px"
	 width="30px" height="30px" viewBox="0 0 30 30" enable-background="new 0 0 30 30" xml:space="preserve">
<g id="XMLID_41_">
	<path id="XMLID_44_" fill="#53CDFF" d="M7.1,22.6c0-0.2,0.1-0.5,0.3-0.6c2.4-2.3,4.1-4,4.1-5.4c0-1-0.6-1.5-1.4-1.5
		c-0.5,0-0.9,0.2-1.2,0.5c-0.3,0.3-0.8,0.3-1.2-0.1l0,0c-0.2-0.2-0.3-0.4-0.3-0.7c0-0.2,0.1-0.5,0.3-0.6c0.8-0.6,1.6-0.9,2.7-0.9
		c2,0,3.4,1.3,3.4,3.2c0,1.7-1.5,3.4-3.1,5.1c0,0,1.1,0,1.6,0h1.2c0.5,0,0.9,0.4,0.9,0.9v0.2c0,0.5-0.4,0.9-0.9,0.9H8
		C7.5,23.6,7.1,23.2,7.1,22.6L7.1,22.6z"/>
	<path id="XMLID_42_" fill="#53CDFF" d="M15.9,21.6c0.3-0.4,0.8-0.5,1.2-0.2c0.5,0.3,1,0.5,1.6,0.5c1,0,1.6-0.4,1.6-1.2
		c0-0.8-0.4-1.3-1.9-1.4c-0.5,0-0.8-0.4-0.8-0.9v0c0-0.4,0.3-0.8,0.8-0.9c1.2-0.1,1.6-0.6,1.6-1.3c0-0.7-0.4-1.1-1.2-1.1
		c-0.5,0-0.9,0.2-1.3,0.4c-0.4,0.2-0.9,0.2-1.1-0.2l-0.1-0.1C16,15,16,14.8,16,14.6s0.2-0.5,0.4-0.6c0.7-0.4,1.5-0.7,2.4-0.7
		c2.1,0,3.5,1,3.5,2.8c0,1.1-0.6,1.8-1.7,2.2v0.1c1.2,0.3,2,1.2,2,2.5c0,1.9-1.7,2.9-3.8,2.9c-1.2,0-2.2-0.3-2.9-0.8
		c-0.4-0.3-0.5-0.8-0.2-1.2L15.9,21.6z"/>
</g>
<path fill="#53CDFF" d="M27,6.2C27,4.4,25.6,3,23.8,3H6.2C4.4,3,3,4.4,3,6.2v17.7C3,25.6,4.4,27,6.2,27h17.7c1.7,0,3.2-1.4,3.2-3.2
	V6.2z M23.8,26H6.2C5,26,4,25,4,23.8V12h22v11.8C26,25,25,26,23.8,26z"/>
</svg>
