<?xml version="1.0" encoding="utf-8"?>
<!-- Generator: Adobe Illustrator 16.0.4, SVG Export Plug-In . SVG Version: 6.00 Build 0)  -->
<!DOCTYPE svg PUBLIC "-//W3C//DTD SVG 1.1//EN" "http://www.w3.org/Graphics/SVG/1.1/DTD/svg11.dtd">
<svg version="1.1" id="Layer_1" xmlns="http://www.w3.org/2000/svg" xmlns:xlink="http://www.w3.org/1999/xlink" x="0px" y="0px"
	 width="30px" height="30px" viewBox="0 0 30 30" enable-background="new 0 0 30 30" xml:space="preserve">
<g>
	<path fill="#53CDFF" d="M13.5,20.5C13.5,20.5,13.5,20.5,13.5,20.5c-0.5,0-0.8-0.2-1.1-0.5l-4.5-5c-0.6-0.6-0.5-1.6,0.1-2.1
		c0.6-0.6,1.6-0.5,2.1,0.1l3.4,3.8L24.9,5.4c0.6-0.6,1.5-0.6,2.1,0s0.6,1.5,0,2.1L14.6,20.1C14.3,20.3,13.9,20.5,13.5,20.5z"/>
	<path fill="#53CDFF" d="M19.9,26.5H6.6c-1.7,0-3.1-1.4-3.1-3.1V10.1C3.5,8.4,4.9,7,6.6,7h13.2c0.3,0,0.5,0.2,0.5,0.5S20.1,8,19.9,8
		H6.6c-1.2,0-2.1,1-2.1,2.1v13.2c0,1.2,1,2.1,2.1,2.1h13.2c1.2,0,2.1-1,2.1-2.1v-7.4c0-0.3,0.2-0.5,0.5-0.5s0.5,0.2,0.5,0.5v7.4
		C23,25.1,21.6,26.5,19.9,26.5z"/>
</g>
</svg>
