<?xml version="1.0" encoding="utf-8"?>
<!-- Generator: Adobe Illustrator 19.0.1, SVG Export Plug-In . SVG Version: 6.00 Build 0)  -->
<svg version="1.1" id="Layer_1" xmlns="http://www.w3.org/2000/svg" xmlns:xlink="http://www.w3.org/1999/xlink" x="0px" y="0px"
	 viewBox="0 0 30 30" enable-background="new 0 0 30 30" xml:space="preserve">
<path fill="#53CDFF" d="M23.8,3H6.2C4.4,3,3,4.4,3,6.2v17.7C3,25.6,4.4,27,6.2,27h17.7c1.7,0,3.2-1.4,3.2-3.2V6.2
	C27,4.4,25.6,3,23.8,3z M6.2,4h17.7C25,4,26,5,26,6.2V9H4V6.2C4,5,5,4,6.2,4z M19.5,23v-2.5H26V23H19.5z M11.5,23v-2.5h7V23H11.5z
	 M18.5,24v2h-7v-2H18.5z M11.5,16v-2.5h7V16H11.5z M11.5,12.5V10h7v2.5H11.5z M10.5,12.5H4V10h6.5V12.5z M10.5,13.5V16H4v-2.5H10.5z
	 M10.5,17v2.5H4V17H10.5z M4,20.5h6.5V23H4V20.5z M26,16h-6.5v-2.5H26V16z M19.5,12.5V10H26v2.5H19.5z M4,24h6.5v2H6.2
	C5,26,4.1,25.1,4,24z M23.8,26h-4.3v-2H26C25.9,25.1,25,26,23.8,26z"/>
</svg>
