<?xml version="1.0" encoding="utf-8"?>
<!-- Generator: Adobe Illustrator 19.0.1, SVG Export Plug-In . SVG Version: 6.00 Build 0)  -->
<svg version="1.1" id="Layer_1" xmlns="http://www.w3.org/2000/svg" xmlns:xlink="http://www.w3.org/1999/xlink" x="0px" y="0px"
	 viewBox="0 0 30 30" enable-background="new 0 0 30 30" xml:space="preserve">
<g>
	<path fill="#D1D3D4" d="M23.8,3H6.2C4.4,3,3,4.4,3,6.2v17.7C3,25.6,4.4,27,6.2,27h17.7c1.7,0,3.2-1.4,3.2-3.2V6.2
		C27,4.4,25.6,3,23.8,3z M6.2,4h17.7C25,4,26,5,26,6.2V9H4V6.2C4,5,5,4,6.2,4z M4,23.8V10h6.5v16H6.2C5,26,4,25,4,23.8z M23.8,26
		H11.5V10H26v13.8C26,25,25,26,23.8,26z"/>
	<path fill="#D1D3D4" d="M19,11c-0.3,0-0.5,0.2-0.5,0.5v1c0,0.3,0.2,0.5,0.5,0.5s0.5-0.2,0.5-0.5v-1C19.5,11.2,19.3,11,19,11z"/>
	<path fill="#D1D3D4" d="M19,14c-0.3,0-0.5,0.2-0.5,0.5v1c0,0.3,0.2,0.5,0.5,0.5s0.5-0.2,0.5-0.5v-1C19.5,14.2,19.3,14,19,14z"/>
	<path fill="#D1D3D4" d="M19,17c-0.3,0-0.5,0.2-0.5,0.5v1c0,0.3,0.2,0.5,0.5,0.5s0.5-0.2,0.5-0.5v-1C19.5,17.2,19.3,17,19,17z"/>
	<path fill="#D1D3D4" d="M19,20c-0.3,0-0.5,0.2-0.5,0.5v1c0,0.3,0.2,0.5,0.5,0.5s0.5-0.2,0.5-0.5v-1C19.5,20.2,19.3,20,19,20z"/>
	<path fill="#D1D3D4" d="M19,23c-0.3,0-0.5,0.2-0.5,0.5v1c0,0.3,0.2,0.5,0.5,0.5s0.5-0.2,0.5-0.5v-1C19.5,23.2,19.3,23,19,23z"/>
</g>
</svg>
