<?xml version="1.0" encoding="utf-8"?>
<!-- Generator: Adobe Illustrator 16.0.4, SVG Export Plug-In . SVG Version: 6.00 Build 0)  -->
<!DOCTYPE svg PUBLIC "-//W3C//DTD SVG 1.1//EN" "http://www.w3.org/Graphics/SVG/1.1/DTD/svg11.dtd">
<svg version="1.1" id="Layer_1" xmlns="http://www.w3.org/2000/svg" xmlns:xlink="http://www.w3.org/1999/xlink" x="0px" y="0px"
	 width="30px" height="30px" viewBox="0 0 30 30" enable-background="new 0 0 30 30" xml:space="preserve">
<g>
	<path fill="#53CDFF" d="M21,18c0-0.6-0.4-1-1-1h-2c-0.6,0-1,0.4-1,1v2c0,0.6,0.4,1,1,1h2c0.6,0,1-0.4,1-1V18z"/>
	<path fill="#53CDFF" d="M27,6.2C27,4.4,25.6,3,23.8,3H6.2C4.4,3,3,4.4,3,6.2v17.7C3,25.6,4.4,27,6.2,27h17.7c1.7,0,3.2-1.4,3.2-3.2
		V6.2z M23.8,26H6.2C5,26,4,25,4,23.8V12h22v11.8C26,25,25,26,23.8,26z"/>
</g>
</svg>
