<?xml version="1.0" encoding="utf-8"?>
<!-- Generator: Adobe Illustrator 16.0.4, SVG Export Plug-In . SVG Version: 6.00 Build 0)  -->
<!DOCTYPE svg PUBLIC "-//W3C//DTD SVG 1.1//EN" "http://www.w3.org/Graphics/SVG/1.1/DTD/svg11.dtd">
<svg version="1.1" id="Layer_1" xmlns="http://www.w3.org/2000/svg" xmlns:xlink="http://www.w3.org/1999/xlink" x="0px" y="0px"
	 width="30px" height="30px" viewBox="0 0 30 30" enable-background="new 0 0 30 30" xml:space="preserve">
<g>
	<path fill="#D1D3D4" d="M15,23.5c-4.7,0-8.5-3.8-8.5-8.5s3.8-8.5,8.5-8.5s8.5,3.8,8.5,8.5S19.7,23.5,15,23.5z M15,8.5
		c-3.6,0-6.5,2.9-6.5,6.5s2.9,6.5,6.5,6.5s6.5-2.9,6.5-6.5S18.6,8.5,15,8.5z"/>
	<path fill="#D1D3D4" d="M17.5,16H15c-0.6,0-1-0.4-1-1v-4.4c0-0.6,0.4-1,1-1s1,0.4,1,1V14h1.5c0.6,0,1,0.4,1,1S18.1,16,17.5,16z"/>
</g>
<g id="XMLID_68_">
	<path fill="#D1D3D4" d="M23.8,27H6.2C4.4,27,3,25.6,3,23.8V6.2C3,4.4,4.4,3,6.2,3h17.7C25.6,3,27,4.4,27,6.2v17.7
		C27,25.6,25.6,27,23.8,27z M6.2,4C5,4,4,5,4,6.2v17.7C4,25,5,26,6.2,26h17.7c1.2,0,2.2-1,2.2-2.2V6.2C26,5,25,4,23.8,4H6.2z"/>
</g>
</svg>
