<?xml version="1.0" encoding="utf-8"?>
<!-- Generator: Adobe Illustrator 19.0.1, SVG Export Plug-In . SVG Version: 6.00 Build 0)  -->
<svg version="1.1" id="Layer_1" xmlns="http://www.w3.org/2000/svg" xmlns:xlink="http://www.w3.org/1999/xlink" x="0px" y="0px"
	 viewBox="0 0 30 30" enable-background="new 0 0 30 30" xml:space="preserve">
<g>
	<g>
		<path fill="#D1D3D4" d="M6,9.5C5.7,9.5,5.5,9.3,5.5,9V7c0-0.8,0.7-1.5,1.5-1.5h8.5C15.8,5.5,16,5.7,16,6s-0.2,0.5-0.5,0.5H7
			C6.7,6.5,6.5,6.7,6.5,7v2C6.5,9.3,6.3,9.5,6,9.5z"/>
	</g>
	<g id="XMLID_2_">
		<path fill="#D1D3D4" d="M23.5,27h-17C4.6,27,3,25.4,3,23.5v-17C3,4.6,4.6,3,6.5,3h17C25.4,3,27,4.6,27,6.5v17
			C27,25.4,25.4,27,23.5,27z M6.5,4C5.1,4,4,5.1,4,6.5v17C4,24.9,5.1,26,6.5,26h17c1.4,0,2.5-1.1,2.5-2.5v-17C26,5.1,24.9,4,23.5,4
			H6.5z"/>
	</g>
	<g>
		<path fill="#D1D3D4" d="M6,12.5c-0.3,0-0.5-0.2-0.5-0.5v-1c0-0.3,0.2-0.5,0.5-0.5s0.5,0.2,0.5,0.5v1C6.5,12.3,6.3,12.5,6,12.5z"/>
	</g>
</g>
</svg>
