<?xml version="1.0" encoding="utf-8"?>
<!-- Generator: Adobe Illustrator 16.0.4, SVG Export Plug-In . SVG Version: 6.00 Build 0)  -->
<!DOCTYPE svg PUBLIC "-//W3C//DTD SVG 1.1//EN" "http://www.w3.org/Graphics/SVG/1.1/DTD/svg11.dtd">
<svg version="1.1" id="Layer_1" xmlns="http://www.w3.org/2000/svg" xmlns:xlink="http://www.w3.org/1999/xlink" x="0px" y="0px"
	 width="30px" height="30px" viewBox="0 0 30 30" enable-background="new 0 0 30 30" xml:space="preserve">
<g id="XMLID_780_">
	<path id="XMLID_789_" fill="#53CDFF" d="M15.2,17.3L15,17.5c-0.1,0.1-0.2,0.2-0.4,0.3l-2.7,1.5c-0.3,0.2-0.8,0.1-1.1-0.1
		c-0.3-0.3-0.3-0.7-0.1-1.1l1.5-2.7c0.1-0.1,0.2-0.3,0.3-0.4l0.2-0.2L15.2,17.3z"/>
	<path id="XMLID_785_" fill="#53CDFF" d="M26.5,3.5c0.7,0.7,0.7,1.8,0,2.5L15.8,16.7l-2.5-2.5L24,3.5C24.7,2.8,25.8,2.8,26.5,3.5z"
		/>
</g>
<path fill="#53CDFF" d="M19.8,27H6.2C4.4,27,3,25.6,3,23.8V10.2C3,8.4,4.4,7,6.2,7H16c0.3,0,0.5,0.2,0.5,0.5S16.3,8,16,8H6.2
	C5,8,4,9,4,10.2v13.6C4,25,5,26,6.2,26h13.6c1.2,0,2.2-1,2.2-2.2v-9.2c0-0.3,0.2-0.5,0.5-0.5s0.5,0.2,0.5,0.5v9.2
	C23,25.6,21.6,27,19.8,27z"/>
<g id="XMLID_252_">
	<path id="XMLID_258_" fill="#53CDFF" d="M15.2,17.2L15,17.5c-0.1,0.1-0.2,0.2-0.4,0.3l-2.7,1.5c-0.3,0.2-0.8,0.1-1.1-0.1
		s-0.3-0.7-0.1-1.1l1.5-2.7c0.1-0.1,0.2-0.3,0.3-0.4l0.2-0.2L15.2,17.2z"/>
	<path id="XMLID_254_" fill="#53CDFF" d="M24,3.5c0.7-0.7,1.8-0.7,2.5,0c0.7,0.7,0.7,1.8,0,2.5L15.8,16.6l-2.5-2.5L24,3.5z"/>
</g>
<path fill="#53CDFF" d="M19.8,27H6.2C4.4,27,3,25.6,3,23.8V10.2C3,8.4,4.4,7,6.2,7H16c0.3,0,0.5,0.2,0.5,0.5S16.3,8,16,8H6.2
	C5,8,4,9,4,10.2v13.6C4,25,5,26,6.2,26h13.6c1.2,0,2.2-1,2.2-2.2v-9.2c0-0.3,0.2-0.5,0.5-0.5s0.5,0.2,0.5,0.5v9.2
	C23,25.6,21.6,27,19.8,27z"/>
</svg>
