<?xml version="1.0" encoding="utf-8"?>
<!-- Generator: Adobe Illustrator 16.0.4, SVG Export Plug-In . SVG Version: 6.00 Build 0)  -->
<!DOCTYPE svg PUBLIC "-//W3C//DTD SVG 1.1//EN" "http://www.w3.org/Graphics/SVG/1.1/DTD/svg11.dtd">
<svg version="1.1" id="Layer_1" xmlns="http://www.w3.org/2000/svg" xmlns:xlink="http://www.w3.org/1999/xlink" x="0px" y="0px"
	 width="30px" height="30px" viewBox="0 0 30 30" enable-background="new 0 0 30 30" xml:space="preserve">
<g id="XMLID_200_">
	<g id="XMLID_201_">
		<path fill="#53CDFF" d="M23.8,27H6.2C4.4,27,3,25.6,3,23.8V6.2C3,4.4,4.4,3,6.2,3h17.7C25.6,3,27,4.4,27,6.2v17.7
			C27,25.6,25.6,27,23.8,27z M6.2,4C5,4,4,5,4,6.2v17.7C4,25,5,26,6.2,26h17.7c1.2,0,2.2-1,2.2-2.2V6.2C26,5,25,4,23.8,4H6.2z"/>
	</g>
</g>
<g id="XMLID_67_">
	<path fill="#53CDFF" d="M23,20.8c0,0.5-0.4,0.9-0.9,0.9H7.9c-0.5,0-0.9-0.4-0.9-0.9v-0.9C7,19.4,7.4,19,7.9,19h14.2
		c0.5,0,0.9,0.4,0.9,0.9V20.8z"/>
	<path fill="#53CDFF" d="M22.1,22.1H7.9c-0.8,0-1.4-0.6-1.4-1.4v-0.9c0-0.8,0.6-1.4,1.4-1.4h14.2c0.8,0,1.4,0.6,1.4,1.4v0.9
		C23.5,21.5,22.8,22.1,22.1,22.1z M7.9,19.5c-0.2,0-0.4,0.2-0.4,0.4v0.9c0,0.2,0.2,0.4,0.4,0.4h14.2c0.2,0,0.4-0.2,0.4-0.4v-0.9
		c0-0.2-0.2-0.4-0.4-0.4H7.9z"/>
</g>
<g id="XMLID_198_">
	<path fill="#53CDFF" d="M23,15.4c0,0.5-0.4,0.9-0.9,0.9H7.9c-0.5,0-0.9-0.4-0.9-0.9v-0.9c0-0.5,0.4-0.9,0.9-0.9h14.2
		c0.5,0,0.9,0.4,0.9,0.9V15.4z"/>
	<path fill="#53CDFF" d="M22.1,16.8H7.9c-0.8,0-1.4-0.6-1.4-1.4v-0.9c0-0.8,0.6-1.4,1.4-1.4h14.2c0.8,0,1.4,0.6,1.4,1.4v0.9
		C23.5,16.2,22.8,16.8,22.1,16.8z M7.9,14.2c-0.2,0-0.4,0.2-0.4,0.4v0.9c0,0.2,0.2,0.4,0.4,0.4h14.2c0.2,0,0.4-0.2,0.4-0.4v-0.9
		c0-0.2-0.2-0.4-0.4-0.4H7.9z"/>
</g>
<g id="XMLID_197_">
	<path fill="#53CDFF" d="M21.6,8.4c0.5,0,0.9,0.4,0.9,0.9v0.9c0,0.5-0.4,0.9-0.9,0.9H8.5c-0.5,0-0.9-0.4-0.9-0.9V9.2
		c0-0.5,0.4-0.9,0.9-0.9H21.6 M21.6,7.4H8.5c-1,0-1.9,0.8-1.9,1.9v0.9c0,1,0.8,1.9,1.9,1.9h13.1c1,0,1.9-0.8,1.9-1.9V9.2
		C23.4,8.2,22.6,7.4,21.6,7.4L21.6,7.4z"/>
</g>
</svg>
