<?xml version="1.0" encoding="utf-8"?>
<!-- Generator: Adobe Illustrator 16.0.4, SVG Export Plug-In . SVG Version: 6.00 Build 0)  -->
<!DOCTYPE svg PUBLIC "-//W3C//DTD SVG 1.1//EN" "http://www.w3.org/Graphics/SVG/1.1/DTD/svg11.dtd">
<svg version="1.1" id="Layer_1" xmlns="http://www.w3.org/2000/svg" xmlns:xlink="http://www.w3.org/1999/xlink" x="0px" y="0px"
	 width="30px" height="30px" viewBox="0 0 30 30" enable-background="new 0 0 30 30" xml:space="preserve">
<path fill="#53CDFF" d="M23.4,27H6.6c-2,0-3.6-1.6-3.6-3.6V6.6C3,4.6,4.6,3,6.6,3h16.7c2,0,3.6,1.6,3.6,3.6v16.7
	C27,25.4,25.4,27,23.4,27z M6.6,5C5.7,5,5,5.7,5,6.6v16.7C5,24.3,5.7,25,6.6,25h16.7c0.9,0,1.6-0.7,1.6-1.6V6.6
	C25,5.7,24.3,5,23.4,5H6.6z"/>
<path id="XMLID_1791_" fill="#53CDFF" d="M22,19.3c0,1.5-1.2,2.7-2.7,2.7h-8.6C9.2,22,8,20.8,8,19.3v-8.6C8,9.2,9.2,8,10.7,8h8.6
	c1.5,0,2.7,1.2,2.7,2.7V19.3z"/>
</svg>
