<?xml version="1.0" encoding="utf-8"?>
<!-- Generator: Adobe Illustrator 16.0.4, SVG Export Plug-In . SVG Version: 6.00 Build 0)  -->
<!DOCTYPE svg PUBLIC "-//W3C//DTD SVG 1.1//EN" "http://www.w3.org/Graphics/SVG/1.1/DTD/svg11.dtd">
<svg version="1.1" id="Layer_1" xmlns="http://www.w3.org/2000/svg" xmlns:xlink="http://www.w3.org/1999/xlink" x="0px" y="0px"
	 width="30px" height="30px" viewBox="0 0 30 30" enable-background="new 0 0 30 30" xml:space="preserve">
<g>
	<g id="XMLID_433_">
		<path fill="#53CDFF" d="M23.8,27H6.2C4.4,27,3,25.6,3,23.8V6.2C3,4.4,4.4,3,6.2,3h17.7C25.6,3,27,4.4,27,6.2v17.7
			C27,25.6,25.6,27,23.8,27z M6.2,4C5,4,4,5,4,6.2v17.7C4,25,5,26,6.2,26h17.7c1.2,0,2.2-1,2.2-2.2V6.2C26,5,25,4,23.8,4H6.2z"/>
	</g>
	<rect id="XMLID_424_" x="11" y="19.5" fill="#53CDFF" width="8" height="7"/>
	<rect x="3.5" y="19" fill="#53CDFF" width="23" height="1"/>
</g>
</svg>
