<?xml version="1.0" encoding="utf-8"?>
<!-- Generator: Adobe Illustrator 16.0.4, SVG Export Plug-In . SVG Version: 6.00 Build 0)  -->
<!DOCTYPE svg PUBLIC "-//W3C//DTD SVG 1.1//EN" "http://www.w3.org/Graphics/SVG/1.1/DTD/svg11.dtd">
<svg version="1.1" id="Layer_1" xmlns="http://www.w3.org/2000/svg" xmlns:xlink="http://www.w3.org/1999/xlink" x="0px" y="0px"
	 width="30px" height="30px" viewBox="0 0 30 30" enable-background="new 0 0 30 30" xml:space="preserve">
<g id="XMLID_2544_">
	<circle fill="#53CDFF" cx="7.5" cy="8.5" r="2.5"/>
</g>
<g id="XMLID_2937_">
	<path fill="#53CDFF" d="M24.7,24H5.3C4,24,3,23,3,21.8v-4.4c0-1.2,1-2.2,2.3-2.2h7l2.4-2.5c0.1-0.1,0.2-0.2,0.4-0.2c0,0,0,0,0,0
		c0.1,0,0.3,0.1,0.4,0.2l2.4,2.5h7c1.2,0,2.3,1,2.3,2.2v4.4C27,23,26,24,24.7,24z M5.3,16.1c-0.7,0-1.3,0.6-1.3,1.3v4.4
		C4,22.4,4.6,23,5.3,23h19.5c0.7,0,1.3-0.6,1.3-1.3v-4.4c0-0.7-0.6-1.3-1.3-1.3h-7.2c-0.1,0-0.3-0.1-0.4-0.2L15,13.7L12.8,16
		c-0.1,0.1-0.2,0.2-0.4,0.2H5.3z"/>
</g>
<g id="XMLID_2541_">
	<path fill="#53CDFF" d="M15,11.6c-1.7,0-3.1-1.4-3.1-3.1c0-1.7,1.4-3.1,3.1-3.1c1.7,0,3.1,1.4,3.1,3.1C18.1,10.2,16.7,11.6,15,11.6
		z M15,6.6c-1.1,0-1.9,0.9-1.9,1.9c0,1.1,0.9,1.9,1.9,1.9c1.1,0,1.9-0.9,1.9-1.9C16.9,7.4,16.1,6.6,15,6.6z"/>
</g>
<g id="XMLID_2939_">
	<circle fill="#53CDFF" cx="22.5" cy="8.5" r="2.5"/>
</g>
</svg>
