<?xml version="1.0" encoding="utf-8"?>
<!-- Generator: Adobe Illustrator 16.0.4, SVG Export Plug-In . SVG Version: 6.00 Build 0)  -->
<!DOCTYPE svg PUBLIC "-//W3C//DTD SVG 1.1//EN" "http://www.w3.org/Graphics/SVG/1.1/DTD/svg11.dtd">
<svg version="1.1" id="Layer_1" xmlns="http://www.w3.org/2000/svg" xmlns:xlink="http://www.w3.org/1999/xlink" x="0px" y="0px"
	 width="30px" height="30px" viewBox="0 0 30 30" enable-background="new 0 0 30 30" xml:space="preserve">
<g>
	<g>
		<path fill="#D1D3D4" d="M16,7c0,0.3,0,1,0.1,1H4C3.4,8,3,7.6,3,7s0.4-1,1-1h12.1C16,6,16,6.7,16,7z"/>
		<path fill="#D1D3D4" d="M27,7c0,0.6-0.4,1-1,1h-3.1C23,8,23,7.3,23,7s0-1-0.1-1H26C26.6,6,27,6.4,27,7z"/>
		<path fill="#D1D3D4" d="M22,7c0,0.4-0.1,0.7-0.2,1c-0.4,0.9-1.3,1.5-2.3,1.5S17.6,8.9,17.2,8C17.1,7.7,17,7.4,17,7s0.1-0.7,0.2-1
			c0.4-0.9,1.3-1.5,2.3-1.5s1.9,0.6,2.3,1.5C21.9,6.3,22,6.6,22,7z"/>
	</g>
	<g>
		<path fill="#D1D3D4" d="M14,15c0,0.3,0,1-0.1,1H26c0.6,0,1-0.4,1-1s-0.4-1-1-1H13.9C14,14,14,14.7,14,15z"/>
		<path fill="#D1D3D4" d="M3,15c0,0.6,0.4,1,1,1h3.1C7,16,7,15.3,7,15s0-1,0.1-1H4C3.4,14,3,14.4,3,15z"/>
		<path fill="#D1D3D4" d="M8,15c0,0.4,0.1,0.7,0.2,1c0.4,0.9,1.3,1.5,2.3,1.5s1.9-0.6,2.3-1.5c0.1-0.3,0.2-0.6,0.2-1s-0.1-0.7-0.2-1
			c-0.4-0.9-1.3-1.5-2.3-1.5S8.6,13.1,8.2,14C8.1,14.3,8,14.6,8,15z"/>
	</g>
	<g>
		<path fill="#D1D3D4" d="M16,23c0,0.3,0,1,0.1,1H4c-0.6,0-1-0.4-1-1s0.4-1,1-1h12.1C16,22,16,22.7,16,23z"/>
		<path fill="#D1D3D4" d="M27,23c0,0.6-0.4,1-1,1h-3.1c0.1,0,0.1-0.7,0.1-1s0-1-0.1-1H26C26.6,22,27,22.4,27,23z"/>
		<path fill="#D1D3D4" d="M22,23c0,0.4-0.1,0.7-0.2,1c-0.4,0.9-1.3,1.5-2.3,1.5s-1.9-0.6-2.3-1.5c-0.1-0.3-0.2-0.6-0.2-1
			s0.1-0.7,0.2-1c0.4-0.9,1.3-1.5,2.3-1.5s1.9,0.6,2.3,1.5C21.9,22.3,22,22.6,22,23z"/>
	</g>
</g>
</svg>
