<?xml version="1.0" encoding="utf-8"?>
<!-- Generator: Adobe Illustrator 16.0.4, SVG Export Plug-In . SVG Version: 6.00 Build 0)  -->
<!DOCTYPE svg PUBLIC "-//W3C//DTD SVG 1.1//EN" "http://www.w3.org/Graphics/SVG/1.1/DTD/svg11.dtd">
<svg version="1.1" id="Layer_1" xmlns="http://www.w3.org/2000/svg" xmlns:xlink="http://www.w3.org/1999/xlink" x="0px" y="0px"
	 width="30px" height="30px" viewBox="0 0 30 30" enable-background="new 0 0 30 30" xml:space="preserve">
<g>
	<path fill="#D1D3D4" d="M15,21.5c-0.8,0-1.5-0.7-1.5-1.5V10c0-0.8,0.7-1.5,1.5-1.5s1.5,0.7,1.5,1.5v10C16.5,20.8,15.8,21.5,15,21.5
		z"/>
	<path fill="#D1D3D4" d="M15,11.5c-0.2,0-0.3,0-0.5-0.1l-3-1c-0.8-0.3-1.2-1.1-0.9-1.9c0.3-0.8,1.1-1.2,1.9-0.9L15,8.4l2.5-0.8
		c0.8-0.3,1.6,0.2,1.9,0.9c0.3,0.8-0.2,1.6-0.9,1.9l-3,1C15.3,11.5,15.2,11.5,15,11.5z"/>
	<path fill="#D1D3D4" d="M18,22.5c-0.2,0-0.3,0-0.5-0.1L15,21.6l-2.5,0.8c-0.8,0.3-1.6-0.2-1.9-0.9c-0.3-0.8,0.2-1.6,0.9-1.9l3-1
		c0.3-0.1,0.6-0.1,0.9,0l3,1c0.8,0.3,1.2,1.1,0.9,1.9C19.2,22.1,18.6,22.5,18,22.5z"/>
</g>
<g id="XMLID_72_">
	<path fill="#D1D3D4" d="M23.8,27H6.2C4.4,27,3,25.6,3,23.8V6.2C3,4.4,4.4,3,6.2,3h17.7C25.6,3,27,4.4,27,6.2v17.7
		C27,25.6,25.6,27,23.8,27z M6.2,4C5,4,4,5,4,6.2v17.7C4,25,5,26,6.2,26h17.7c1.2,0,2.2-1,2.2-2.2V6.2C26,5,25,4,23.8,4H6.2z"/>
</g>
</svg>
