<?xml version="1.0" encoding="utf-8"?>
<!-- Generator: Adobe Illustrator 16.0.4, SVG Export Plug-In . SVG Version: 6.00 Build 0)  -->
<!DOCTYPE svg PUBLIC "-//W3C//DTD SVG 1.1//EN" "http://www.w3.org/Graphics/SVG/1.1/DTD/svg11.dtd">
<svg version="1.1" id="Layer_1" xmlns="http://www.w3.org/2000/svg" xmlns:xlink="http://www.w3.org/1999/xlink" x="0px" y="0px"
	 width="30px" height="30px" viewBox="0 0 30 30" enable-background="new 0 0 30 30" xml:space="preserve">
<path fill="#53CDFF" d="M15,9c-0.3,0-0.5-0.2-0.5-0.5V7.6c0-0.5,0.3-0.9,0.8-0.9c0.6-0.1,1-0.7,1-1.3C16.3,4.6,15.7,4,15,4
	c-0.7,0-1.3,0.6-1.3,1.3c0,0.3-0.2,0.5-0.5,0.5s-0.5-0.2-0.5-0.5c0-1.3,1-2.3,2.3-2.3c1.3,0,2.3,1.1,2.3,2.3c0,1.1-0.8,2.1-1.8,2.3
	l0,0.9C15.5,8.8,15.3,9,15,9z"/>
<circle id="XMLID_688_" fill="#53CDFF" cx="15" cy="10.5" r="0.5"/>
<path fill="#53CDFF" d="M22,27H8c-1.1,0-2-0.9-2-2v-9.5C6,15.2,6.2,15,6.5,15h17c0.3,0,0.5,0.2,0.5,0.5V25C24,26.1,23.1,27,22,27z
	 M7,16v9c0,0.5,0.4,1,1,1h14c0.5,0,1-0.4,1-1v-9H7z"/>
<path fill="#53CDFF" d="M18,20h-6c-0.5,0-1-0.4-1-1s0.4-1,1-1h6c0.5,0,1,0.4,1,1S18.5,20,18,20z"/>
<path id="XMLID_17_" fill="#53CDFF" d="M25,15c0,0.6-0.4,1-1,1H6c-0.6,0-1-0.4-1-1v-1c0-0.6,0.4-1,1-1h18c0.6,0,1,0.4,1,1V15z"/>
</svg>
