<?xml version="1.0" encoding="utf-8"?>
<!-- Generator: Adobe Illustrator 16.0.4, SVG Export Plug-In . SVG Version: 6.00 Build 0)  -->
<!DOCTYPE svg PUBLIC "-//W3C//DTD SVG 1.1//EN" "http://www.w3.org/Graphics/SVG/1.1/DTD/svg11.dtd">
<svg version="1.1" id="Layer_1" xmlns="http://www.w3.org/2000/svg" xmlns:xlink="http://www.w3.org/1999/xlink" x="0px" y="0px"
	 width="30px" height="30px" viewBox="0 0 30 30" enable-background="new 0 0 30 30" xml:space="preserve">
<path fill="#53CDFF" d="M20.5,8h-11C9.2,8,9,7.8,9,7.5S9.2,7,9.5,7h11C20.8,7,21,7.3,21,7.5S20.8,8,20.5,8z"/>
<g id="XMLID_1152_">
	<circle id="XMLID_1153_" fill="#53CDFF" cx="17.5" cy="7.5" r="1.5"/>
</g>
<g id="XMLID_1154_">
	<circle id="XMLID_1156_" fill="#53CDFF" cx="12.5" cy="4.5" r="1.5"/>
</g>
<g id="XMLID_1157_">
	<circle id="XMLID_1158_" fill="#53CDFF" cx="12.5" cy="10.5" r="1.5"/>
</g>
<path fill="#53CDFF" d="M22,27H8c-1.1,0-2-0.9-2-2v-9.5C6,15.2,6.2,15,6.5,15h17c0.3,0,0.5,0.2,0.5,0.5V25C24,26.1,23.1,27,22,27z
	 M7,16v9c0,0.5,0.4,1,1,1h14c0.5,0,1-0.4,1-1v-9H7z"/>
<path fill="#53CDFF" d="M18,20h-6c-0.5,0-1-0.4-1-1s0.4-1,1-1h6c0.5,0,1,0.4,1,1S18.5,20,18,20z"/>
<path id="XMLID_1163_" fill="#53CDFF" d="M25,15c0,0.6-0.4,1-1,1H6c-0.6,0-1-0.4-1-1v-1c0-0.6,0.4-1,1-1h18c0.6,0,1,0.4,1,1V15z"/>
<path fill="#53CDFF" d="M20.5,5h-11C9.2,5,9,4.8,9,4.5S9.2,4,9.5,4h11C20.8,4,21,4.2,21,4.5S20.8,5,20.5,5z"/>
<path fill="#53CDFF" d="M20.5,11h-11C9.2,11,9,10.8,9,10.5S9.2,10,9.5,10h11c0.3,0,0.5,0.2,0.5,0.5S20.8,11,20.5,11z"/>
</svg>
