<?xml version="1.0" encoding="utf-8"?>
<!-- Generator: Adobe Illustrator 16.0.4, SVG Export Plug-In . SVG Version: 6.00 Build 0)  -->
<!DOCTYPE svg PUBLIC "-//W3C//DTD SVG 1.1//EN" "http://www.w3.org/Graphics/SVG/1.1/DTD/svg11.dtd">
<svg version="1.1" id="Layer_1" xmlns="http://www.w3.org/2000/svg" xmlns:xlink="http://www.w3.org/1999/xlink" x="0px" y="0px"
	 width="30px" height="30px" viewBox="0 0 30 30" enable-background="new 0 0 30 30" xml:space="preserve">
<path id="XMLID_2212_" fill="#53CDFF" d="M25.1,4C25.6,4,26,4.4,26,4.9v6.4c0,0.7-0.3,1.4-0.8,1.9L13.1,25.5
	c-0.3,0.3-0.8,0.5-1.2,0.5c0,0,0,0,0,0c-0.5,0-0.9-0.2-1.2-0.5l-6.1-6C4.2,19.1,4,18.7,4,18.2c0-0.5,0.2-0.9,0.5-1.2L16.9,4.8
	C17.4,4.3,18,4,18.7,4H25.1 M25.1,3h-6.4c-1,0-1.9,0.4-2.6,1.1L3.8,16.2c-0.5,0.5-0.8,1.2-0.8,2c0,0.7,0.3,1.4,0.8,2l6.1,6
	c0.5,0.5,1.2,0.8,2,0.8c0.7,0,1.5-0.3,2-0.8L26,13.8c0.7-0.7,1-1.6,1-2.6V4.9C27,3.8,26.2,3,25.1,3L25.1,3z"/>
<path id="XMLID_2210_" fill="#53CDFF" d="M6,19.1c-0.3-0.3-0.3-0.9,0-1.2l8.7-8.7c0.3-0.3,0.9-0.3,1.2,0l5,4.9
	c0.3,0.3,0.3,0.9,0,1.2l-8.7,8.7c-0.3,0.3-0.9,0.3-1.2,0L6,19.1z"/>
<path id="XMLID_2209_" fill="#53CDFF" d="M23.4,6.6c0.8,0.8,0.8,2,0,2.8c-0.8,0.8-2,0.8-2.8,0c-0.8-0.8-0.8-2,0-2.8
	C21.4,5.8,22.6,5.8,23.4,6.6z"/>
</svg>
