<?xml version="1.0" encoding="utf-8"?>
<!-- Generator: Adobe Illustrator 16.0.4, SVG Export Plug-In . SVG Version: 6.00 Build 0)  -->
<!DOCTYPE svg PUBLIC "-//W3C//DTD SVG 1.1//EN" "http://www.w3.org/Graphics/SVG/1.1/DTD/svg11.dtd">
<svg version="1.1" id="Layer_1" xmlns="http://www.w3.org/2000/svg" xmlns:xlink="http://www.w3.org/1999/xlink" x="0px" y="0px"
	 width="30px" height="30px" viewBox="0 0 30 30" enable-background="new 0 0 30 30" xml:space="preserve">
<g id="XMLID_2719_">
	<path fill="#53CDFF" d="M11.3,19.7c-0.3,0-0.5-0.1-0.7-0.3c-0.4-0.4-0.4-1,0-1.4l7.4-7.4c0.4-0.4,1-0.4,1.4,0s0.4,1,0,1.4L12,19.4
		C11.8,19.6,11.6,19.7,11.3,19.7z"/>
	<g id="XMLID_1785_">
		<path fill="#53CDFF" d="M10.3,26.9c-1.2,0-2.4-0.5-3.3-1.4L4.4,23c-0.9-0.9-1.4-2-1.4-3.3s0.5-2.4,1.4-3.3L7.9,13
			c0.4-0.4,1-0.4,1.4,0s0.4,1,0,1.4l-3.4,3.4c-1,1-1,2.7,0,3.7l2.6,2.6c1,1,2.7,1,3.7,0l3.4-3.4c0.4-0.4,1-0.4,1.4,0s0.4,1,0,1.4
			l-3.4,3.4C12.7,26.5,11.5,26.9,10.3,26.9z"/>
		<path fill="#53CDFF" d="M21.4,17.3c-0.3,0-0.5-0.1-0.7-0.3c-0.4-0.4-0.4-1,0-1.4l3.4-3.4c1-1,1-2.7,0-3.7l-2.6-2.6
			c-1-1-2.7-1-3.7,0l-3.4,3.4c-0.4,0.4-1,0.4-1.4,0s-0.4-1,0-1.4l3.4-3.4c0.9-0.9,2-1.4,3.3-1.4s2.4,0.5,3.3,1.4L25.6,7
			c1.8,1.8,1.8,4.7,0,6.5L22.1,17C21.9,17.2,21.7,17.3,21.4,17.3z"/>
	</g>
</g>
</svg>
