<?xml version="1.0" encoding="utf-8"?>
<!-- Generator: Adobe Illustrator 16.0.4, SVG Export Plug-In . SVG Version: 6.00 Build 0)  -->
<!DOCTYPE svg PUBLIC "-//W3C//DTD SVG 1.1//EN" "http://www.w3.org/Graphics/SVG/1.1/DTD/svg11.dtd">
<svg version="1.1" id="Layer_1" xmlns="http://www.w3.org/2000/svg" xmlns:xlink="http://www.w3.org/1999/xlink" x="0px" y="0px"
	 width="30px" height="30px" viewBox="0 0 30 30" enable-background="new 0 0 30 30" xml:space="preserve">
<g>
	<circle id="XMLID_2305_" fill="#53CDFF" cx="5.5" cy="7" r="2.5"/>
	<path fill="#53CDFF" d="M25,9H12.7c-1.1,0-2-0.9-2-2s0.9-2,2-2H25c1.1,0,2,0.9,2,2S26.1,9,25,9z"/>
	<path fill="#53CDFF" d="M26,16H12c-0.6,0-1-0.4-1-1s0.4-1,1-1h14c0.6,0,1,0.4,1,1S26.6,16,26,16z"/>
	<path fill="#53CDFF" d="M25.9,23.5h-14c-0.6,0-1-0.4-1-1s0.4-1,1-1h14c0.6,0,1,0.4,1,1S26.5,23.5,25.9,23.5z"/>
	<circle id="XMLID_54_" fill="#53CDFF" cx="5.5" cy="15" r="2.5"/>
	<circle id="XMLID_53_" fill="#53CDFF" cx="5.5" cy="23" r="2.5"/>
</g>
</svg>
