<?xml version="1.0" encoding="utf-8"?><!DOCTYPE svg PUBLIC "-//W3C//DTD SVG 1.1//EN" "http://www.w3.org/Graphics/SVG/1.1/DTD/svg11.dtd"><svg width="358" height="322" viewBox="0 0 358 322" xmlns="http://www.w3.org/2000/svg" xmlns:xlink="http://www.w3.org/1999/xlink"><svg width="30" height="30" viewBox="0 0 30 30" id="button" x="210" y="232"><path fill="#D1D3D4" d="M10.3 23H6.2C4.4 23 3 21.6 3 19.8V6.2C3 4.4 4.4 3 6.2 3h13.6C21.6 3 23 4.4 23 6.2v4.1c0 .3-.2.5-.5.5s-.5-.2-.5-.5V6.2C22 5 21 4 19.8 4H6.2C5 4 4 5 4 6.2v13.6C4 21 5 22 6.2 22h4.1c.3 0 .5.2.5.5s-.2.5-.5.5z"/><path fill="#D1D3D4" d="M26.6 24.7L20.9 19l2-2c.4-.4.6-1.1.5-1.7s-.6-1.1-1.2-1.3l-11-3.9c-.3-.1-.7 0-1 .2-.3.3-.3.6-.2 1l3.9 11c.2.6.7 1 1.3 1.2.6.1 1.2 0 1.7-.5l2-2 5.7 5.7c.3.3.6.4 1 .4.3 0 .7-.1 1-.4.5-.7.5-1.5 0-2z"/></svg><svg width="30" height="30" viewBox="0 0 30 30" id="button-hover" x="267.145" y="30"><path fill="#53CDFF" d="M10.3 23H6.2C4.4 23 3 21.6 3 19.8V6.2C3 4.4 4.4 3 6.2 3h13.6C21.6 3 23 4.4 23 6.2v4.1c0 .3-.2.5-.5.5s-.5-.2-.5-.5V6.2C22 5 21 4 19.8 4H6.2C5 4 4 5 4 6.2v13.6C4 21 5 22 6.2 22h4.1c.3 0 .5.2.5.5s-.2.5-.5.5z"/><path fill="#53CDFF" d="M26.6 24.7L20.9 19l2-2c.4-.4.6-1.1.5-1.7s-.6-1.1-1.2-1.3l-11-3.9c-.3-.1-.7 0-1 .2-.3.3-.3.6-.2 1l3.9 11c.2.6.7 1 1.3 1.2.6.1 1.2 0 1.7-.5l2-2 5.7 5.7c.3.3.6.4 1 .4.3 0 .7-.1 1-.4.5-.7.5-1.5 0-2z"/></svg><svg width="30" height="30" viewBox="0 0 30 30" id="calendar" x="297.145" y="150"><g fill="#D1D3D4"><path d="M7.1 22.6c0-.2.1-.5.3-.6 2.4-2.3 4.1-4 4.1-5.4 0-1-.6-1.5-1.4-1.5-.5 0-.9.2-1.2.5-.3.3-.8.3-1.2-.1-.2-.2-.3-.4-.3-.7 0-.2.1-.5.3-.6.8-.6 1.6-.9 2.7-.9 2 0 3.4 1.3 3.4 3.2 0 1.7-1.5 3.4-3.1 5.1h2.8c.5 0 .9.4.9.9v.2c0 .5-.4.9-.9.9H8c-.5 0-.9-.4-.9-1zM15.9 21.6c.3-.4.8-.5 1.2-.2.5.3 1 .5 1.6.5 1 0 1.6-.4 1.6-1.2 0-.8-.4-1.3-1.9-1.4-.5 0-.8-.4-.8-.9 0-.4.3-.8.8-.9 1.2-.1 1.6-.6 1.6-1.3 0-.7-.4-1.1-1.2-1.1-.5 0-.9.2-1.3.4s-.9.2-1.1-.2l-.1-.1c-.3-.2-.3-.4-.3-.6s.2-.5.4-.6c.7-.4 1.5-.7 2.4-.7 2.1 0 3.5 1 3.5 2.8 0 1.1-.6 1.8-1.7 2.2v.1c1.2.3 2 1.2 2 2.5 0 1.9-1.7 2.9-3.8 2.9-1.2 0-2.2-.3-2.9-.8-.4-.3-.5-.8-.2-1.2l.2-.2z"/></g><path fill="#D1D3D4" d="M27 6.2C27 4.4 25.6 3 23.8 3H6.2C4.4 3 3 4.4 3 6.2v17.7C3 25.6 4.4 27 6.2 27h17.7c1.7 0 3.2-1.4 3.2-3.2V6.2zM23.8 26H6.2C5 26 4 25 4 23.8V12h22v11.8c0 1.2-1 2.2-2.2 2.2z"/></svg><svg width="30" height="30" viewBox="0 0 30 30" id="calendar-hover" x="177.145" y="30"><g fill="#53CDFF"><path d="M7.1 22.6c0-.2.1-.5.3-.6 2.4-2.3 4.1-4 4.1-5.4 0-1-.6-1.5-1.4-1.5-.5 0-.9.2-1.2.5-.3.3-.8.3-1.2-.1-.2-.2-.3-.4-.3-.7 0-.2.1-.5.3-.6.8-.6 1.6-.9 2.7-.9 2 0 3.4 1.3 3.4 3.2 0 1.7-1.5 3.4-3.1 5.1h2.8c.5 0 .9.4.9.9v.2c0 .5-.4.9-.9.9H8c-.5 0-.9-.4-.9-1zM15.9 21.6c.3-.4.8-.5 1.2-.2.5.3 1 .5 1.6.5 1 0 1.6-.4 1.6-1.2 0-.8-.4-1.3-1.9-1.4-.5 0-.8-.4-.8-.9 0-.4.3-.8.8-.9 1.2-.1 1.6-.6 1.6-1.3 0-.7-.4-1.1-1.2-1.1-.5 0-.9.2-1.3.4s-.9.2-1.1-.2l-.1-.1c-.3-.2-.3-.4-.3-.6s.2-.5.4-.6c.7-.4 1.5-.7 2.4-.7 2.1 0 3.5 1 3.5 2.8 0 1.1-.6 1.8-1.7 2.2v.1c1.2.3 2 1.2 2 2.5 0 1.9-1.7 2.9-3.8 2.9-1.2 0-2.2-.3-2.9-.8-.4-.3-.5-.8-.2-1.2l.2-.2z"/></g><path fill="#53CDFF" d="M27 6.2C27 4.4 25.6 3 23.8 3H6.2C4.4 3 3 4.4 3 6.2v17.7C3 25.6 4.4 27 6.2 27h17.7c1.7 0 3.2-1.4 3.2-3.2V6.2zM23.8 26H6.2C5 26 4 25 4 23.8V12h22v11.8c0 1.2-1 2.2-2.2 2.2z"/></svg><svg width="30" height="30" viewBox="0 0 30 30" id="check-box" x="177.145" y="60"><g fill="#D1D3D4"><path d="M13.5 20.5c-.5 0-.8-.2-1.1-.5l-4.5-5c-.6-.6-.5-1.6.1-2.1.6-.6 1.6-.5 2.1.1l3.4 3.8L24.9 5.4c.6-.6 1.5-.6 2.1 0s.6 1.5 0 2.1L14.6 20.1c-.3.2-.7.4-1.1.4z"/><path d="M19.9 26.5H6.6c-1.7 0-3.1-1.4-3.1-3.1V10.1C3.5 8.4 4.9 7 6.6 7h13.2c.3 0 .5.2.5.5s-.2.5-.4.5H6.6c-1.2 0-2.1 1-2.1 2.1v13.2c0 1.2 1 2.1 2.1 2.1h13.2c1.2 0 2.1-1 2.1-2.1v-7.4c0-.3.2-.5.5-.5s.5.2.5.5v7.4c.1 1.8-1.3 3.2-3 3.2z"/></g></svg><svg width="30" height="30" viewBox="0 0 30 30" id="check-box-hover" x="177.145" y="90"><g fill="#53CDFF"><path d="M13.5 20.5c-.5 0-.8-.2-1.1-.5l-4.5-5c-.6-.6-.5-1.6.1-2.1.6-.6 1.6-.5 2.1.1l3.4 3.8L24.9 5.4c.6-.6 1.5-.6 2.1 0s.6 1.5 0 2.1L14.6 20.1c-.3.2-.7.4-1.1.4z"/><path d="M19.9 26.5H6.6c-1.7 0-3.1-1.4-3.1-3.1V10.1C3.5 8.4 4.9 7 6.6 7h13.2c.3 0 .5.2.5.5s-.2.5-.4.5H6.6c-1.2 0-2.1 1-2.1 2.1v13.2c0 1.2 1 2.1 2.1 2.1h13.2c1.2 0 2.1-1 2.1-2.1v-7.4c0-.3.2-.5.5-.5s.5.2.5.5v7.4c.1 1.8-1.3 3.2-3 3.2z"/></g></svg><svg viewBox="0 0 30 30" width="30" height="30" id="column" x="177.145" y="120"><g fill="#D1D3D4"><path d="M23.8 3H6.2C4.4 3 3 4.4 3 6.2v17.7C3 25.6 4.4 27 6.2 27h17.7c1.7 0 3.2-1.4 3.2-3.2V6.2C27 4.4 25.6 3 23.8 3zM6.2 4h17.7C25 4 26 5 26 6.2V9H4V6.2C4 5 5 4 6.2 4zM4 23.8V10h6.5v16H6.2C5 26 4 25 4 23.8zM23.8 26H11.5V10H26v13.8c0 1.2-1 2.2-2.2 2.2z"/><path d="M19 11c-.3 0-.5.2-.5.5v1c0 .3.2.5.5.5s.5-.2.5-.5v-1c0-.3-.2-.5-.5-.5zM19 14c-.3 0-.5.2-.5.5v1c0 .3.2.5.5.5s.5-.2.5-.5v-1c0-.3-.2-.5-.5-.5zM19 17c-.3 0-.5.2-.5.5v1c0 .3.2.5.5.5s.5-.2.5-.5v-1c0-.3-.2-.5-.5-.5zM19 20c-.3 0-.5.2-.5.5v1c0 .3.2.5.5.5s.5-.2.5-.5v-1c0-.3-.2-.5-.5-.5zM19 23c-.3 0-.5.2-.5.5v1c0 .3.2.5.5.5s.5-.2.5-.5v-1c0-.3-.2-.5-.5-.5z"/></g></svg><svg viewBox="0 0 30 30" width="30" height="30" id="column-hover" y="172"><g fill="#53CDFF"><path d="M23.8 3H6.2C4.4 3 3 4.4 3 6.2v17.7C3 25.6 4.4 27 6.2 27h17.7c1.7 0 3.2-1.4 3.2-3.2V6.2C27 4.4 25.6 3 23.8 3zM6.2 4h17.7C25 4 26 5 26 6.2V9H4V6.2C4 5 5 4 6.2 4zM4 23.8V10h6.5v16H6.2C5 26 4 25 4 23.8zM23.8 26H11.5V10H26v13.8c0 1.2-1 2.2-2.2 2.2z"/><path d="M19 11c-.3 0-.5.2-.5.5v1c0 .3.2.5.5.5s.5-.2.5-.5v-1c0-.3-.2-.5-.5-.5zM19 14c-.3 0-.5.2-.5.5v1c0 .3.2.5.5.5s.5-.2.5-.5v-1c0-.3-.2-.5-.5-.5zM19 17c-.3 0-.5.2-.5.5v1c0 .3.2.5.5.5s.5-.2.5-.5v-1c0-.3-.2-.5-.5-.5zM19 20c-.3 0-.5.2-.5.5v1c0 .3.2.5.5.5s.5-.2.5-.5v-1c0-.3-.2-.5-.5-.5zM19 23c-.3 0-.5.2-.5.5v1c0 .3.2.5.5.5s.5-.2.5-.5v-1c0-.3-.2-.5-.5-.5z"/></g></svg><svg viewBox="0 0 30 30" width="30" height="30" id="column-list-item" x="30" y="172"><path fill="#D1D3D4" d="M23.8 3H6.2C4.4 3 3 4.4 3 6.2v17.7C3 25.6 4.4 27 6.2 27h17.7c1.7 0 3.2-1.4 3.2-3.2V6.2C27 4.4 25.6 3 23.8 3zM6.2 4h17.7C25 4 26 5 26 6.2V9H4V6.2C4 5 5 4 6.2 4zm13.3 19v-2.5H26V23h-6.5zm-8 0v-2.5h7V23h-7zm7 1v2h-7v-2h7zm-7-8v-2.5h7V16h-7zm0-3.5V10h7v2.5h-7zm-1 0H4V10h6.5v2.5zm0 1V16H4v-2.5h6.5zm0 3.5v2.5H4V17h6.5zM4 20.5h6.5V23H4v-2.5zM26 16h-6.5v-2.5H26V16zm-6.5-3.5V10H26v2.5h-6.5zM4 24h6.5v2H6.2C5 26 4.1 25.1 4 24zm19.8 2h-4.3v-2H26c-.1 1.1-1 2-2.2 2z"/></svg><svg viewBox="0 0 30 30" width="30" height="30" id="column-list-item-hover" x="60" y="172"><path fill="#53CDFF" d="M23.8 3H6.2C4.4 3 3 4.4 3 6.2v17.7C3 25.6 4.4 27 6.2 27h17.7c1.7 0 3.2-1.4 3.2-3.2V6.2C27 4.4 25.6 3 23.8 3zM6.2 4h17.7C25 4 26 5 26 6.2V9H4V6.2C4 5 5 4 6.2 4zm13.3 19v-2.5H26V23h-6.5zm-8 0v-2.5h7V23h-7zm7 1v2h-7v-2h7zm-7-8v-2.5h7V16h-7zm0-3.5V10h7v2.5h-7zm-1 0H4V10h6.5v2.5zm0 1V16H4v-2.5h6.5zm0 3.5v2.5H4V17h6.5zM4 20.5h6.5V23H4v-2.5zM26 16h-6.5v-2.5H26V16zm-6.5-3.5V10H26v2.5h-6.5zM4 24h6.5v2H6.2C5 26 4.1 25.1 4 24zm19.8 2h-4.3v-2H26c-.1 1.1-1 2-2.2 2z"/></svg><svg width="30" height="30" viewBox="0 0 30 30" id="combo-box" x="90" y="172"><g fill="#D1D3D4"><path d="M23.8 27H6.2C4.4 27 3 25.6 3 23.8V6.2C3 4.4 4.4 3 6.2 3h17.7C25.6 3 27 4.4 27 6.2v17.7c0 1.7-1.4 3.1-3.2 3.1zM6.2 4C5 4 4 5 4 6.2v17.7C4 25 5 26 6.2 26h17.7c1.2 0 2.2-1 2.2-2.2V6.2C26 5 25 4 23.8 4H6.2z"/><path d="M15 22c-.4 0-.8-.2-1.1-.5l-7-7.5c-.6-.6-.5-1.6.1-2.1s1.6-.5 2.1.1l5.9 6.3 5.9-6.3c.6-.6 1.5-.6 2.1-.1.6.6.6 1.5.1 2.1l-7 7.5c-.3.3-.7.5-1.1.5z"/></g></svg><svg width="30" height="30" viewBox="0 0 30 30" id="combo-box-hover" x="120" y="172"><g fill="#53CDFF"><path d="M23.8 27H6.2C4.4 27 3 25.6 3 23.8V6.2C3 4.4 4.4 3 6.2 3h17.7C25.6 3 27 4.4 27 6.2v17.7c0 1.7-1.4 3.1-3.2 3.1zM6.2 4C5 4 4 5 4 6.2v17.7C4 25 5 26 6.2 26h17.7c1.2 0 2.2-1 2.2-2.2V6.2C26 5 25 4 23.8 4H6.2z"/><path d="M15 22c-.4 0-.8-.2-1.1-.5l-7-7.5c-.6-.6-.5-1.6.1-2.1s1.6-.5 2.1.1l5.9 6.3 5.9-6.3c.6-.6 1.5-.6 2.1-.1.6.6.6 1.5.1 2.1l-7 7.5c-.3.3-.7.5-1.1.5z"/></g></svg><svg width="30" height="30" viewBox="0 0 30 30" id="date-picker" x="150" y="172"><g fill="#D1D3D4"><path d="M21 18c0-.6-.4-1-1-1h-2c-.6 0-1 .4-1 1v2c0 .6.4 1 1 1h2c.6 0 1-.4 1-1v-2z"/><path d="M27 6.2C27 4.4 25.6 3 23.8 3H6.2C4.4 3 3 4.4 3 6.2v17.7C3 25.6 4.4 27 6.2 27h17.7c1.7 0 3.2-1.4 3.2-3.2V6.2zM23.8 26H6.2C5 26 4 25 4 23.8V12h22v11.8c0 1.2-1 2.2-2.2 2.2z"/></g></svg><svg width="30" height="30" viewBox="0 0 30 30" id="date-picker-hover" x="207.145"><g fill="#53CDFF"><path d="M21 18c0-.6-.4-1-1-1h-2c-.6 0-1 .4-1 1v2c0 .6.4 1 1 1h2c.6 0 1-.4 1-1v-2z"/><path d="M27 6.2C27 4.4 25.6 3 23.8 3H6.2C4.4 3 3 4.4 3 6.2v17.7C3 25.6 4.4 27 6.2 27h17.7c1.7 0 3.2-1.4 3.2-3.2V6.2zM23.8 26H6.2C5 26 4 25 4 23.8V12h22v11.8c0 1.2-1 2.2-2.2 2.2z"/></g></svg><svg width="30" height="30" viewBox="0 0 30 30" id="date-time-input" x="207.145" y="30"><g fill="#D1D3D4"><path d="M15 23.5c-4.7 0-8.5-3.8-8.5-8.5s3.8-8.5 8.5-8.5 8.5 3.8 8.5 8.5-3.8 8.5-8.5 8.5zm0-15c-3.6 0-6.5 2.9-6.5 6.5s2.9 6.5 6.5 6.5 6.5-2.9 6.5-6.5-2.9-6.5-6.5-6.5z"/><path d="M17.5 16H15c-.6 0-1-.4-1-1v-4.4c0-.6.4-1 1-1s1 .4 1 1V14h1.5c.6 0 1 .4 1 1s-.4 1-1 1z"/></g><path fill="#D1D3D4" d="M23.8 27H6.2C4.4 27 3 25.6 3 23.8V6.2C3 4.4 4.4 3 6.2 3h17.7C25.6 3 27 4.4 27 6.2v17.7c0 1.7-1.4 3.1-3.2 3.1zM6.2 4C5 4 4 5 4 6.2v17.7C4 25 5 26 6.2 26h17.7c1.2 0 2.2-1 2.2-2.2V6.2C26 5 25 4 23.8 4H6.2z"/></svg><svg width="30" height="30" viewBox="0 0 30 30" id="date-time-input-hover" x="207.145" y="60"><g fill="#53CDFF"><path d="M15 23.5c-4.7 0-8.5-3.8-8.5-8.5s3.8-8.5 8.5-8.5 8.5 3.8 8.5 8.5-3.8 8.5-8.5 8.5zm0-15c-3.6 0-6.5 2.9-6.5 6.5s2.9 6.5 6.5 6.5 6.5-2.9 6.5-6.5-2.9-6.5-6.5-6.5z"/><path d="M17.5 16H15c-.6 0-1-.4-1-1v-4.4c0-.6.4-1 1-1s1 .4 1 1V14h1.5c.6 0 1 .4 1 1s-.4 1-1 1z"/></g><path fill="#53CDFF" d="M23.8 27H6.2C4.4 27 3 25.6 3 23.8V6.2C3 4.4 4.4 3 6.2 3h17.7C25.6 3 27 4.4 27 6.2v17.7c0 1.7-1.4 3.1-3.2 3.1zM6.2 4C5 4 4 5 4 6.2v17.7C4 25 5 26 6.2 26h17.7c1.2 0 2.2-1 2.2-2.2V6.2C26 5 25 4 23.8 4H6.2z"/></svg><svg viewBox="0 0 30 30" width="30" height="30" id="default" x="207.145" y="90"><path fill="#D1D3D4" d="M6 9.5c-.3 0-.5-.2-.5-.5V7c0-.8.7-1.5 1.5-1.5h8.5c.3 0 .5.2.5.5s-.2.5-.5.5H7c-.3 0-.5.2-.5.5v2c0 .3-.2.5-.5.5z"/><path fill="#D1D3D4" d="M23.5 27h-17C4.6 27 3 25.4 3 23.5v-17C3 4.6 4.6 3 6.5 3h17C25.4 3 27 4.6 27 6.5v17c0 1.9-1.6 3.5-3.5 3.5zM6.5 4C5.1 4 4 5.1 4 6.5v17C4 24.9 5.1 26 6.5 26h17c1.4 0 2.5-1.1 2.5-2.5v-17C26 5.1 24.9 4 23.5 4h-17z"/><path fill="#D1D3D4" d="M6 12.5c-.3 0-.5-.2-.5-.5v-1c0-.3.2-.5.5-.5s.5.2.5.5v1c0 .3-.2.5-.5.5z"/></svg><svg viewBox="0 0 30 30" width="30" height="30" id="default-hover" x="207.145" y="120"><path fill="#53CDFF" d="M6 9.5c-.3 0-.5-.2-.5-.5V7c0-.8.7-1.5 1.5-1.5h8.5c.3 0 .5.2.5.5s-.2.5-.5.5H7c-.3 0-.5.2-.5.5v2c0 .3-.2.5-.5.5z"/><path fill="#53CDFF" d="M23.5 27h-17C4.6 27 3 25.4 3 23.5v-17C3 4.6 4.6 3 6.5 3h17C25.4 3 27 4.6 27 6.5v17c0 1.9-1.6 3.5-3.5 3.5zM6.5 4C5.1 4 4 5.1 4 6.5v17C4 24.9 5.1 26 6.5 26h17c1.4 0 2.5-1.1 2.5-2.5v-17C26 5.1 24.9 4 23.5 4h-17z"/><path fill="#53CDFF" d="M6 12.5c-.3 0-.5-.2-.5-.5v-1c0-.3.2-.5.5-.5s.5.2.5.5v1c0 .3-.2.5-.5.5z"/></svg><svg width="30" height="30" viewBox="0 0 30 30" id="footer" x="207.145" y="150"><path fill="#D1D3D4" d="M23.8 27H6.2C4.4 27 3 25.6 3 23.8V6.2C3 4.4 4.4 3 6.2 3h17.7C25.6 3 27 4.4 27 6.2v17.7c0 1.7-1.4 3.1-3.2 3.1zM6.2 4C5 4 4 5 4 6.2v17.7C4 25 5 26 6.2 26h17.7c1.2 0 2.2-1 2.2-2.2V6.2C26 5 25 4 23.8 4H6.2z"/><path fill="#D1D3D4" d="M3.5 17h23v1h-23z"/><circle fill="#D1D3D4" cx="16" cy="22" r="1"/><path fill="#D1D3D4" d="M12.5 23H7c-.6 0-1-.4-1-1s.4-1 1-1h5.5c.6 0 1 .4 1 1s-.4 1-1 1z"/><circle fill="#D1D3D4" cx="19.5" cy="22" r="1"/><circle fill="#D1D3D4" cx="23" cy="22" r="1"/></svg><svg width="30" height="30" viewBox="0 0 30 30" id="footer-hover" y="202"><path fill="#53CDFF" d="M23.8 27H6.2C4.4 27 3 25.6 3 23.8V6.2C3 4.4 4.4 3 6.2 3h17.7C25.6 3 27 4.4 27 6.2v17.7c0 1.7-1.4 3.1-3.2 3.1zM6.2 4C5 4 4 5 4 6.2v17.7C4 25 5 26 6.2 26h17.7c1.2 0 2.2-1 2.2-2.2V6.2C26 5 25 4 23.8 4H6.2z"/><path fill="#53CDFF" d="M3.5 17h23v1h-23z"/><circle fill="#53CDFF" cx="16" cy="22" r="1"/><path fill="#53CDFF" d="M12.5 23H7c-.6 0-1-.4-1-1s.4-1 1-1h5.5c.6 0 1 .4 1 1s-.4 1-1 1z"/><circle fill="#53CDFF" cx="19.5" cy="22" r="1"/><circle fill="#53CDFF" cx="23" cy="22" r="1"/></svg><svg width="30" height="30" viewBox="0 0 30 30" id="form" x="30" y="202"><path fill="#D1D3D4" d="M23.8 27H6.2C4.4 27 3 25.6 3 23.8V6.2C3 4.4 4.4 3 6.2 3h17.7C25.6 3 27 4.4 27 6.2v17.7c0 1.7-1.4 3.1-3.2 3.1zM6.2 4C5 4 4 5 4 6.2v17.7C4 25 5 26 6.2 26h17.7c1.2 0 2.2-1 2.2-2.2V6.2C26 5 25 4 23.8 4H6.2z"/><path fill="#D1D3D4" d="M22 10.5H8c-1.1 0-2-.9-2-2s.9-2 2-2h14c1.1 0 2 .9 2 2s-.9 2-2 2zM23 14.5H7c-.6 0-1-.4-1-1s.4-1 1-1h16c.6 0 1 .4 1 1s-.4 1-1 1zM23 18.5H7c-.6 0-1-.4-1-1s.4-1 1-1h16c.6 0 1 .4 1 1s-.4 1-1 1zM19 22.5H7c-.6 0-1-.5-1-1s.5-1 1-1h12c.6 0 1 .5 1 1s-.4 1-1 1z"/></svg><svg width="30" height="30" viewBox="0 0 30 30" id="form-container" x="60" y="202"><path fill="#D1D3D4" d="M23.8 27H6.2C4.4 27 3 25.6 3 23.8V6.2C3 4.4 4.4 3 6.2 3h17.7C25.6 3 27 4.4 27 6.2v17.7c0 1.7-1.4 3.1-3.2 3.1zM6.2 4C5 4 4 5 4 6.2v17.7C4 25 5 26 6.2 26h17.7c1.2 0 2.2-1 2.2-2.2V6.2C26 5 25 4 23.8 4H6.2z"/><g fill="#D1D3D4"><path d="M23 20.8c0 .5-.4.9-.9.9H7.9c-.5 0-.9-.4-.9-.9v-.9c0-.5.4-.9.9-.9h14.2c.5 0 .9.4.9.9v.9z"/><path d="M22.1 22.1H7.9c-.8 0-1.4-.6-1.4-1.4v-.9c0-.8.6-1.4 1.4-1.4h14.2c.8 0 1.4.6 1.4 1.4v.9c0 .8-.7 1.4-1.4 1.4zM7.9 19.5c-.2 0-.4.2-.4.4v.9c0 .2.2.4.4.4h14.2c.2 0 .4-.2.4-.4v-.9c0-.2-.2-.4-.4-.4H7.9z"/></g><g fill="#D1D3D4"><path d="M23 15.4c0 .5-.4.9-.9.9H7.9c-.5 0-.9-.4-.9-.9v-.9c0-.5.4-.9.9-.9h14.2c.5 0 .9.4.9.9v.9z"/><path d="M22.1 16.8H7.9c-.8 0-1.4-.6-1.4-1.4v-.9c0-.8.6-1.4 1.4-1.4h14.2c.8 0 1.4.6 1.4 1.4v.9c0 .8-.7 1.4-1.4 1.4zM7.9 14.2c-.2 0-.4.2-.4.4v.9c0 .2.2.4.4.4h14.2c.2 0 .4-.2.4-.4v-.9c0-.2-.2-.4-.4-.4H7.9z"/></g><path fill="#D1D3D4" d="M21.6 8.4c.5 0 .9.4.9.9v.9c0 .5-.4.9-.9.9H8.5c-.5 0-.9-.4-.9-.9v-1c0-.5.4-.9.9-.9h13.1m0-.9H8.5c-1 0-1.9.8-1.9 1.9v.9c0 1 .8 1.9 1.9 1.9h13.1c1 0 1.9-.8 1.9-1.9v-1c-.1-1-.9-1.8-1.9-1.8z"/></svg><svg width="30" height="30" viewBox="0 0 30 30" id="form-container-hover" x="90" y="202"><path fill="#53CDFF" d="M23.8 27H6.2C4.4 27 3 25.6 3 23.8V6.2C3 4.4 4.4 3 6.2 3h17.7C25.6 3 27 4.4 27 6.2v17.7c0 1.7-1.4 3.1-3.2 3.1zM6.2 4C5 4 4 5 4 6.2v17.7C4 25 5 26 6.2 26h17.7c1.2 0 2.2-1 2.2-2.2V6.2C26 5 25 4 23.8 4H6.2z"/><g fill="#53CDFF"><path d="M23 20.8c0 .5-.4.9-.9.9H7.9c-.5 0-.9-.4-.9-.9v-.9c0-.5.4-.9.9-.9h14.2c.5 0 .9.4.9.9v.9z"/><path d="M22.1 22.1H7.9c-.8 0-1.4-.6-1.4-1.4v-.9c0-.8.6-1.4 1.4-1.4h14.2c.8 0 1.4.6 1.4 1.4v.9c0 .8-.7 1.4-1.4 1.4zM7.9 19.5c-.2 0-.4.2-.4.4v.9c0 .2.2.4.4.4h14.2c.2 0 .4-.2.4-.4v-.9c0-.2-.2-.4-.4-.4H7.9z"/></g><g fill="#53CDFF"><path d="M23 15.4c0 .5-.4.9-.9.9H7.9c-.5 0-.9-.4-.9-.9v-.9c0-.5.4-.9.9-.9h14.2c.5 0 .9.4.9.9v.9z"/><path d="M22.1 16.8H7.9c-.8 0-1.4-.6-1.4-1.4v-.9c0-.8.6-1.4 1.4-1.4h14.2c.8 0 1.4.6 1.4 1.4v.9c0 .8-.7 1.4-1.4 1.4zM7.9 14.2c-.2 0-.4.2-.4.4v.9c0 .2.2.4.4.4h14.2c.2 0 .4-.2.4-.4v-.9c0-.2-.2-.4-.4-.4H7.9z"/></g><path fill="#53CDFF" d="M21.6 8.4c.5 0 .9.4.9.9v.9c0 .5-.4.9-.9.9H8.5c-.5 0-.9-.4-.9-.9v-1c0-.5.4-.9.9-.9h13.1m0-.9H8.5c-1 0-1.9.8-1.9 1.9v.9c0 1 .8 1.9 1.9 1.9h13.1c1 0 1.9-.8 1.9-1.9v-1c-.1-1-.9-1.8-1.9-1.8z"/></svg><svg width="30" height="30" viewBox="0 0 30 30" id="form-element" x="120" y="202"><g fill="#D1D3D4"><path d="M15.2 17.3l-.2.2c-.1.1-.2.2-.4.3l-2.7 1.5c-.3.2-.8.1-1.1-.1-.3-.3-.3-.7-.1-1.1l1.5-2.7c.1-.1.2-.3.3-.4l.2-.2 2.5 2.5zM26.5 3.5c.7.7.7 1.8 0 2.5L15.8 16.7l-2.5-2.5L24 3.5c.7-.7 1.8-.7 2.5 0z"/></g><path fill="#D1D3D4" d="M19.8 27H6.2C4.4 27 3 25.6 3 23.8V10.2C3 8.4 4.4 7 6.2 7H16c.3 0 .5.2.5.5s-.2.5-.5.5H6.2C5 8 4 9 4 10.2v13.6C4 25 5 26 6.2 26h13.6c1.2 0 2.2-1 2.2-2.2v-9.2c0-.3.2-.5.5-.5s.5.2.5.5v9.2c0 1.8-1.4 3.2-3.2 3.2z"/><g fill="#D1D3D4"><path d="M15.2 17.2l-.2.3c-.1.1-.2.2-.4.3l-2.7 1.5c-.3.2-.8.1-1.1-.1s-.3-.7-.1-1.1l1.5-2.7c.1-.1.2-.3.3-.4l.2-.2 2.5 2.4zM24 3.5c.7-.7 1.8-.7 2.5 0s.7 1.8 0 2.5L15.8 16.6l-2.5-2.5L24 3.5z"/></g><path fill="#D1D3D4" d="M19.8 27H6.2C4.4 27 3 25.6 3 23.8V10.2C3 8.4 4.4 7 6.2 7H16c.3 0 .5.2.5.5s-.2.5-.5.5H6.2C5 8 4 9 4 10.2v13.6C4 25 5 26 6.2 26h13.6c1.2 0 2.2-1 2.2-2.2v-9.2c0-.3.2-.5.5-.5s.5.2.5.5v9.2c0 1.8-1.4 3.2-3.2 3.2z"/></svg><svg width="30" height="30" viewBox="0 0 30 30" id="form-element-hover" x="150" y="202"><g fill="#53CDFF"><path d="M15.2 17.3l-.2.2c-.1.1-.2.2-.4.3l-2.7 1.5c-.3.2-.8.1-1.1-.1-.3-.3-.3-.7-.1-1.1l1.5-2.7c.1-.1.2-.3.3-.4l.2-.2 2.5 2.5zM26.5 3.5c.7.7.7 1.8 0 2.5L15.8 16.7l-2.5-2.5L24 3.5c.7-.7 1.8-.7 2.5 0z"/></g><path fill="#53CDFF" d="M19.8 27H6.2C4.4 27 3 25.6 3 23.8V10.2C3 8.4 4.4 7 6.2 7H16c.3 0 .5.2.5.5s-.2.5-.5.5H6.2C5 8 4 9 4 10.2v13.6C4 25 5 26 6.2 26h13.6c1.2 0 2.2-1 2.2-2.2v-9.2c0-.3.2-.5.5-.5s.5.2.5.5v9.2c0 1.8-1.4 3.2-3.2 3.2z"/><g fill="#53CDFF"><path d="M15.2 17.2l-.2.3c-.1.1-.2.2-.4.3l-2.7 1.5c-.3.2-.8.1-1.1-.1s-.3-.7-.1-1.1l1.5-2.7c.1-.1.2-.3.3-.4l.2-.2 2.5 2.4zM24 3.5c.7-.7 1.8-.7 2.5 0s.7 1.8 0 2.5L15.8 16.6l-2.5-2.5L24 3.5z"/></g><path fill="#53CDFF" d="M19.8 27H6.2C4.4 27 3 25.6 3 23.8V10.2C3 8.4 4.4 7 6.2 7H16c.3 0 .5.2.5.5s-.2.5-.5.5H6.2C5 8 4 9 4 10.2v13.6C4 25 5 26 6.2 26h13.6c1.2 0 2.2-1 2.2-2.2v-9.2c0-.3.2-.5.5-.5s.5.2.5.5v9.2c0 1.8-1.4 3.2-3.2 3.2z"/></svg><svg width="30" height="30" viewBox="0 0 30 30" id="form-hover" x="180" y="202"><path fill="#53CDFF" d="M23.8 27H6.2C4.4 27 3 25.6 3 23.8V6.2C3 4.4 4.4 3 6.2 3h17.7C25.6 3 27 4.4 27 6.2v17.7c0 1.7-1.4 3.1-3.2 3.1zM6.2 4C5 4 4 5 4 6.2v17.7C4 25 5 26 6.2 26h17.7c1.2 0 2.2-1 2.2-2.2V6.2C26 5 25 4 23.8 4H6.2z"/><path fill="#53CDFF" d="M22 10.5H8c-1.1 0-2-.9-2-2s.9-2 2-2h14c1.1 0 2 .9 2 2s-.9 2-2 2zM23 14.5H7c-.6 0-1-.4-1-1s.4-1 1-1h16c.6 0 1 .4 1 1s-.4 1-1 1zM23 18.5H7c-.6 0-1-.4-1-1s.4-1 1-1h16c.6 0 1 .4 1 1s-.4 1-1 1zM19 22.5H7c-.6 0-1-.5-1-1s.5-1 1-1h12c.6 0 1 .5 1 1s-.4 1-1 1z"/></svg><svg width="30" height="30" viewBox="0 0 30 30" id="header" x="237.145"><path fill="#D1D3D4" d="M23.8 27H6.2C4.4 27 3 25.6 3 23.8V6.2C3 4.4 4.4 3 6.2 3h17.7C25.6 3 27 4.4 27 6.2v17.7c0 1.7-1.4 3.1-3.2 3.1zM6.2 4C5 4 4 5 4 6.2v17.7C4 25 5 26 6.2 26h17.7c1.2 0 2.2-1 2.2-2.2V6.2C26 5 25 4 23.8 4H6.2z"/><path fill="#D1D3D4" d="M3.5 12h23v1h-23z"/><circle fill="#D1D3D4" cx="16" cy="8" r="1"/><path fill="#D1D3D4" d="M12.5 9H7c-.6 0-1-.4-1-1s.4-1 1-1h5.5c.6 0 1 .4 1 1s-.4 1-1 1z"/><circle fill="#D1D3D4" cx="19.5" cy="8" r="1"/><circle fill="#D1D3D4" cx="23" cy="8" r="1"/></svg><svg width="30" height="30" viewBox="0 0 30 30" id="header-hover" x="237.145" y="30"><path fill="#53CDFF" d="M23.8 27H6.2C4.4 27 3 25.6 3 23.8V6.2C3 4.4 4.4 3 6.2 3h17.7C25.6 3 27 4.4 27 6.2v17.7c0 1.7-1.4 3.1-3.2 3.1zM6.2 4C5 4 4 5 4 6.2v17.7C4 25 5 26 6.2 26h17.7c1.2 0 2.2-1 2.2-2.2V6.2C26 5 25 4 23.8 4H6.2z"/><path fill="#53CDFF" d="M3.5 12h23v1h-23z"/><circle fill="#53CDFF" cx="16" cy="8" r="1"/><path fill="#53CDFF" d="M12.5 9H7c-.6 0-1-.4-1-1s.4-1 1-1h5.5c.6 0 1 .4 1 1s-.4 1-1 1z"/><circle fill="#53CDFF" cx="19.5" cy="8" r="1"/><circle fill="#53CDFF" cx="23" cy="8" r="1"/></svg><svg width="30" height="30" viewBox="0 0 30 30" id="hotspot" x="237.145" y="60"><path fill="#D1D3D4" d="M23.4 27H6.6c-2 0-3.6-1.6-3.6-3.6V6.6C3 4.6 4.6 3 6.6 3h16.7c2 0 3.6 1.6 3.6 3.6v16.7c.1 2.1-1.5 3.7-3.5 3.7zM6.6 5C5.7 5 5 5.7 5 6.6v16.7c0 1 .7 1.7 1.6 1.7h16.7c.9 0 1.6-.7 1.6-1.6V6.6c.1-.9-.6-1.6-1.5-1.6H6.6z"/><path fill="#D1D3D4" d="M22 19.3c0 1.5-1.2 2.7-2.7 2.7h-8.6C9.2 22 8 20.8 8 19.3v-8.6C8 9.2 9.2 8 10.7 8h8.6c1.5 0 2.7 1.2 2.7 2.7v8.6z"/></svg><svg width="30" height="30" viewBox="0 0 30 30" id="hotspot-hover" x="237.145" y="90"><path fill="#53CDFF" d="M23.4 27H6.6c-2 0-3.6-1.6-3.6-3.6V6.6C3 4.6 4.6 3 6.6 3h16.7c2 0 3.6 1.6 3.6 3.6v16.7c.1 2.1-1.5 3.7-3.5 3.7zM6.6 5C5.7 5 5 5.7 5 6.6v16.7c0 1 .7 1.7 1.6 1.7h16.7c.9 0 1.6-.7 1.6-1.6V6.6c.1-.9-.6-1.6-1.5-1.6H6.6z"/><path fill="#53CDFF" d="M22 19.3c0 1.5-1.2 2.7-2.7 2.7h-8.6C9.2 22 8 20.8 8 19.3v-8.6C8 9.2 9.2 8 10.7 8h8.6c1.5 0 2.7 1.2 2.7 2.7v8.6z"/></svg><svg width="28" height="23" viewBox="0 0 28 23" id="ico-cloud-upload" x="327.145" y="180"><title>cloud upload</title><path d="M19 20h3.4c1.546 0 2.866-.533 3.96-1.598 1.093-1.065 1.64-2.35 1.64-3.857 0-1.278-.408-2.412-1.225-3.402-.817-.99-1.852-1.626-3.106-1.91.397-.597.597-1.25.597-1.96 0-1.004-.365-1.86-1.094-2.57-.73-.712-1.61-1.067-2.64-1.067-.933 0-1.74.294-2.42.88-.574-1.344-1.486-2.433-2.735-3.266C14.128.417 12.736 0 11.2 0 9.14 0 7.38.71 5.92 2.13 4.463 3.55 3.734 5.266 3.734 7.274c0 .142.01.345.03.61-1.128.512-2.037 1.286-2.728 2.323C.345 11.243 0 12.386 0 13.636c0 1.752.64 3.25 1.918 4.496C3.196 19.377 4.735 20 6.533 20H10v-2H7l7.5-11L22 18h-3v2zm-2-3v6h-5v-6h-2l4.5-7 4.5 7h-2z" fill="#3398DB" fill-rule="evenodd"/></svg><svg width="30" height="30" viewBox="0 0 30 30" id="icon-tab" x="237.145" y="150"><path fill="#D1D3D4" d="M23.8 27H6.2C4.4 27 3 25.6 3 23.8V6.2C3 4.4 4.4 3 6.2 3h17.7C25.6 3 27 4.4 27 6.2v17.7c0 1.7-1.4 3.1-3.2 3.1zM6.2 4C5 4 4 5 4 6.2v17.7C4 25 5 26 6.2 26h17.7c1.2 0 2.2-1 2.2-2.2V6.2C26 5 25 4 23.8 4H6.2z"/><path fill="#D1D3D4" d="M11 19.5h8v7h-8z"/><path fill="#D1D3D4" d="M3.5 19h23v1h-23z"/></svg><svg width="30" height="30" viewBox="0 0 30 30" id="icon-tab-bar" x="237.145" y="180"><circle fill="#D1D3D4" cx="7.5" cy="8.5" r="2.5"/><path fill="#D1D3D4" d="M24.7 24H5.3C4 24 3 23 3 21.8v-4.4c0-1.2 1-2.2 2.3-2.2h7l2.4-2.5c.1-.1.2-.2.4-.2.1 0 .3.1.4.2l2.4 2.5h7c1.2 0 2.3 1 2.3 2.2v4.4C27 23 26 24 24.7 24zM5.3 16.1c-.7 0-1.3.6-1.3 1.3v4.4c0 .6.6 1.2 1.3 1.2h19.5c.7 0 1.3-.6 1.3-1.3v-4.4c0-.7-.6-1.3-1.3-1.3h-7.2c-.1 0-.3-.1-.4-.2L15 13.7 12.8 16c-.1.1-.2.2-.4.2H5.3zM15 11.6c-1.7 0-3.1-1.4-3.1-3.1 0-1.7 1.4-3.1 3.1-3.1 1.7 0 3.1 1.4 3.1 3.1 0 1.7-1.4 3.1-3.1 3.1zm0-5c-1.1 0-1.9.9-1.9 1.9 0 1.1.9 1.9 1.9 1.9 1.1 0 1.9-.9 1.9-1.9 0-1.1-.8-1.9-1.9-1.9z"/><circle fill="#D1D3D4" cx="22.5" cy="8.5" r="2.5"/></svg><svg width="30" height="30" viewBox="0 0 30 30" id="icon-tab-bar-hover" y="232"><circle fill="#53CDFF" cx="7.5" cy="8.5" r="2.5"/><path fill="#53CDFF" d="M24.7 24H5.3C4 24 3 23 3 21.8v-4.4c0-1.2 1-2.2 2.3-2.2h7l2.4-2.5c.1-.1.2-.2.4-.2.1 0 .3.1.4.2l2.4 2.5h7c1.2 0 2.3 1 2.3 2.2v4.4C27 23 26 24 24.7 24zM5.3 16.1c-.7 0-1.3.6-1.3 1.3v4.4c0 .6.6 1.2 1.3 1.2h19.5c.7 0 1.3-.6 1.3-1.3v-4.4c0-.7-.6-1.3-1.3-1.3h-7.2c-.1 0-.3-.1-.4-.2L15 13.7 12.8 16c-.1.1-.2.2-.4.2H5.3zM15 11.6c-1.7 0-3.1-1.4-3.1-3.1 0-1.7 1.4-3.1 3.1-3.1 1.7 0 3.1 1.4 3.1 3.1 0 1.7-1.4 3.1-3.1 3.1zm0-5c-1.1 0-1.9.9-1.9 1.9 0 1.1.9 1.9 1.9 1.9 1.1 0 1.9-.9 1.9-1.9 0-1.1-.8-1.9-1.9-1.9z"/><circle fill="#53CDFF" cx="22.5" cy="8.5" r="2.5"/></svg><svg width="30" height="30" viewBox="0 0 30 30" id="icon-tab-hover" x="30" y="232"><path fill="#53CDFF" d="M23.8 27H6.2C4.4 27 3 25.6 3 23.8V6.2C3 4.4 4.4 3 6.2 3h17.7C25.6 3 27 4.4 27 6.2v17.7c0 1.7-1.4 3.1-3.2 3.1zM6.2 4C5 4 4 5 4 6.2v17.7C4 25 5 26 6.2 26h17.7c1.2 0 2.2-1 2.2-2.2V6.2C26 5 25 4 23.8 4H6.2z"/><path fill="#53CDFF" d="M11 19.5h8v7h-8z"/><path fill="#53CDFF" d="M3.5 19h23v1h-23z"/></svg><svg width="30" height="30" viewBox="0 0 30 30" id="icon-tab-separator" x="60" y="232"><path fill="#D1D3D4" d="M15 23.5c-.8 0-1.5-.7-1.5-1.5V8c0-.8.7-1.5 1.5-1.5s1.5.7 1.5 1.5v14c0 .8-.7 1.5-1.5 1.5z"/><path fill="#D1D3D4" d="M23.8 27H6.2C4.4 27 3 25.6 3 23.8V6.2C3 4.4 4.4 3 6.2 3h17.7C25.6 3 27 4.4 27 6.2v17.7c0 1.7-1.4 3.1-3.2 3.1zM6.2 4C5 4 4 5 4 6.2v17.7C4 25 5 26 6.2 26h17.7c1.2 0 2.2-1 2.2-2.2V6.2C26 5 25 4 23.8 4H6.2z"/></svg><svg width="30" height="30" viewBox="0 0 30 30" id="icon-tab-separator-hover" x="90" y="232"><path fill="#53CDFF" d="M15 23.5c-.8 0-1.5-.7-1.5-1.5V8c0-.8.7-1.5 1.5-1.5s1.5.7 1.5 1.5v14c0 .8-.7 1.5-1.5 1.5z"/><path fill="#53CDFF" d="M23.8 27H6.2C4.4 27 3 25.6 3 23.8V6.2C3 4.4 4.4 3 6.2 3h17.7C25.6 3 27 4.4 27 6.2v17.7c0 1.7-1.4 3.1-3.2 3.1zM6.2 4C5 4 4 5 4 6.2v17.7C4 25 5 26 6.2 26h17.7c1.2 0 2.2-1 2.2-2.2V6.2C26 5 25 4 23.8 4H6.2z"/></svg><svg width="30" height="30" viewBox="0 0 30 30" id="image" x="120" y="232"><circle fill="#D1D3D4" cx="18.5" cy="10.5" r="1.5"/><path fill="#D1D3D4" d="M21.4 21c.6 0 1.2-.4 1.5-1 .3-.6.1-1.3-.3-1.8l-2.4-2.7c-.2-.2-.4-.3-.6-.3-.2 0-.4.1-.6.3l-1 1.1-3.8-4.2c-.3-.3-.7-.5-1.2-.5s-.9.2-1.2.5l-5.3 5.7c-.5.6-.6 1.3-.4 1.9s.8 1 1.5 1h13.8z"/><path fill="#D1D3D4" d="M23.8 27H6.2C4.4 27 3 25.6 3 23.8V6.2C3 4.4 4.4 3 6.2 3h17.7C25.6 3 27 4.4 27 6.2v17.7c0 1.7-1.4 3.1-3.2 3.1zM6.2 4C5 4 4 5 4 6.2v17.7C4 25 5 26 6.2 26h17.7c1.2 0 2.2-1 2.2-2.2V6.2C26 5 25 4 23.8 4H6.2z"/></svg><svg width="30" height="30" viewBox="0 0 30 30" id="image-attribute" x="150" y="232"><g fill="#D1D3D4"><path d="M16 7c0 .3 0 1 .1 1H4c-.6 0-1-.4-1-1s.4-1 1-1h12.1c-.1 0-.1.7-.1 1zM27 7c0 .6-.4 1-1 1h-3.1c.1 0 .1-.7.1-1s0-1-.1-1H26c.6 0 1 .4 1 1zM22 7c0 .4-.1.7-.2 1-.4.9-1.3 1.5-2.3 1.5s-1.9-.6-2.3-1.5c-.1-.3-.2-.6-.2-1s.1-.7.2-1c.4-.9 1.3-1.5 2.3-1.5s1.9.6 2.3 1.5c.1.3.2.6.2 1z"/><g><path d="M14 15c0 .3 0 1-.1 1H26c.6 0 1-.4 1-1s-.4-1-1-1H13.9c.1 0 .1.7.1 1zM3 15c0 .6.4 1 1 1h3.1c-.1 0-.1-.7-.1-1s0-1 .1-1H4c-.6 0-1 .4-1 1zM8 15c0 .4.1.7.2 1 .4.9 1.3 1.5 2.3 1.5s1.9-.6 2.3-1.5c.1-.3.2-.6.2-1s-.1-.7-.2-1c-.4-.9-1.3-1.5-2.3-1.5s-1.9.6-2.3 1.5c-.1.3-.2.6-.2 1z"/></g><g><path d="M16 23c0 .3 0 1 .1 1H4c-.6 0-1-.4-1-1s.4-1 1-1h12.1c-.1 0-.1.7-.1 1zM27 23c0 .6-.4 1-1 1h-3.1c.1 0 .1-.7.1-1s0-1-.1-1H26c.6 0 1 .4 1 1zM22 23c0 .4-.1.7-.2 1-.4.9-1.3 1.5-2.3 1.5s-1.9-.6-2.3-1.5c-.1-.3-.2-.6-.2-1s.1-.7.2-1c.4-.9 1.3-1.5 2.3-1.5s1.9.6 2.3 1.5c.1.3.2.6.2 1z"/></g></g></svg><svg width="30" height="30" viewBox="0 0 30 30" id="image-attribute-hover" x="180" y="232"><g fill="#53CDFF"><path d="M16 7c0 .3 0 1 .1 1H4c-.6 0-1-.4-1-1s.4-1 1-1h12.1c-.1 0-.1.7-.1 1zM27 7c0 .6-.4 1-1 1h-3.1c.1 0 .1-.7.1-1s0-1-.1-1H26c.6 0 1 .4 1 1zM22 7c0 .4-.1.7-.2 1-.4.9-1.3 1.5-2.3 1.5s-1.9-.6-2.3-1.5c-.1-.3-.2-.6-.2-1s.1-.7.2-1c.4-.9 1.3-1.5 2.3-1.5s1.9.6 2.3 1.5c.1.3.2.6.2 1z"/><g><path d="M14 15c0 .3 0 1-.1 1H26c.6 0 1-.4 1-1s-.4-1-1-1H13.9c.1 0 .1.7.1 1zM3 15c0 .6.4 1 1 1h3.1c-.1 0-.1-.7-.1-1s0-1 .1-1H4c-.6 0-1 .4-1 1zM8 15c0 .4.1.7.2 1 .4.9 1.3 1.5 2.3 1.5s1.9-.6 2.3-1.5c.1-.3.2-.6.2-1s-.1-.7-.2-1c-.4-.9-1.3-1.5-2.3-1.5s-1.9.6-2.3 1.5c-.1.3-.2.6-.2 1z"/></g><g><path d="M16 23c0 .3 0 1 .1 1H4c-.6 0-1-.4-1-1s.4-1 1-1h12.1c-.1 0-.1.7-.1 1zM27 23c0 .6-.4 1-1 1h-3.1c.1 0 .1-.7.1-1s0-1-.1-1H26c.6 0 1 .4 1 1zM22 23c0 .4-.1.7-.2 1-.4.9-1.3 1.5-2.3 1.5s-1.9-.6-2.3-1.5c-.1-.3-.2-.6-.2-1s.1-.7.2-1c.4-.9 1.3-1.5 2.3-1.5s1.9.6 2.3 1.5c.1.3.2.6.2 1z"/></g></g></svg><svg width="171.812" height="172" viewBox="0 0 171.812 172" id="image-canvas"><path fill="#E2E2E2" d="M1 1v170h170V1H1zm45.03 28.794c9.39 0 17 7.61 17 17 0 9.388-7.61 17-17 17s-17-7.612-17-17c0-9.39 7.616-17 17-17zM84.55 130.35H33.547l25.5-44.17 12.482 21.625 29.482-51.068 42.5 73.608-58.963.005z"/></svg><svg width="30" height="30" viewBox="0 0 30 30" id="image-hover" x="267.145"><circle fill="#53CDFF" cx="18.5" cy="10.5" r="1.5"/><path fill="#53CDFF" d="M21.4 21c.6 0 1.2-.4 1.5-1 .3-.6.1-1.3-.3-1.8l-2.4-2.7c-.2-.2-.4-.3-.6-.3-.2 0-.4.1-.6.3l-1 1.1-3.8-4.2c-.3-.3-.7-.5-1.2-.5s-.9.2-1.2.5l-5.3 5.7c-.5.6-.6 1.3-.4 1.9s.8 1 1.5 1h13.8z"/><path fill="#53CDFF" d="M23.8 27H6.2C4.4 27 3 25.6 3 23.8V6.2C3 4.4 4.4 3 6.2 3h17.7C25.6 3 27 4.4 27 6.2v17.7c0 1.7-1.4 3.1-3.2 3.1zM6.2 4C5 4 4 5 4 6.2v17.7C4 25 5 26 6.2 26h17.7c1.2 0 2.2-1 2.2-2.2V6.2C26 5 25 4 23.8 4H6.2z"/></svg><svg width="30" height="30" viewBox="0 0 30 30" id="input" x="177.145"><g fill="#D1D3D4"><path d="M15 21.5c-.8 0-1.5-.7-1.5-1.5V10c0-.8.7-1.5 1.5-1.5s1.5.7 1.5 1.5v10c0 .8-.7 1.5-1.5 1.5z"/><path d="M15 11.5c-.2 0-.3 0-.5-.1l-3-1c-.8-.3-1.2-1.1-.9-1.9.3-.8 1.1-1.2 1.9-.9l2.5.8 2.5-.8c.8-.3 1.6.2 1.9.9.3.8-.2 1.6-.9 1.9l-3 1c-.2.1-.3.1-.5.1zM18 22.5c-.2 0-.3 0-.5-.1l-2.5-.8-2.5.8c-.8.3-1.6-.2-1.9-.9-.3-.8.2-1.6.9-1.9l3-1c.3-.1.6-.1.9 0l3 1c.8.3 1.2 1.1.9 1.9-.1.6-.7 1-1.3 1z"/></g><path fill="#D1D3D4" d="M23.8 27H6.2C4.4 27 3 25.6 3 23.8V6.2C3 4.4 4.4 3 6.2 3h17.7C25.6 3 27 4.4 27 6.2v17.7c0 1.7-1.4 3.1-3.2 3.1zM6.2 4C5 4 4 5 4 6.2v17.7C4 25 5 26 6.2 26h17.7c1.2 0 2.2-1 2.2-2.2V6.2C26 5 25 4 23.8 4H6.2z"/></svg><svg width="30" height="30" viewBox="0 0 30 30" id="input-hover" x="267.145" y="60"><g fill="#53CDFF"><path d="M15 21.5c-.8 0-1.5-.7-1.5-1.5V10c0-.8.7-1.5 1.5-1.5s1.5.7 1.5 1.5v10c0 .8-.7 1.5-1.5 1.5z"/><path d="M15 11.5c-.2 0-.3 0-.5-.1l-3-1c-.8-.3-1.2-1.1-.9-1.9.3-.8 1.1-1.2 1.9-.9l2.5.8 2.5-.8c.8-.3 1.6.2 1.9.9.3.8-.2 1.6-.9 1.9l-3 1c-.2.1-.3.1-.5.1zM18 22.5c-.2 0-.3 0-.5-.1l-2.5-.8-2.5.8c-.8.3-1.6-.2-1.9-.9-.3-.8.2-1.6.9-1.9l3-1c.3-.1.6-.1.9 0l3 1c.8.3 1.2 1.1.9 1.9-.1.6-.7 1-1.3 1z"/></g><path fill="#53CDFF" d="M23.8 27H6.2C4.4 27 3 25.6 3 23.8V6.2C3 4.4 4.4 3 6.2 3h17.7C25.6 3 27 4.4 27 6.2v17.7c0 1.7-1.4 3.1-3.2 3.1zM6.2 4C5 4 4 5 4 6.2v17.7C4 25 5 26 6.2 26h17.7c1.2 0 2.2-1 2.2-2.2V6.2C26 5 25 4 23.8 4H6.2z"/></svg><svg width="30" height="30" viewBox="0 0 30 30" id="item-attribute" x="267.145" y="90"><path fill="#D1D3D4" d="M20.5 8h-11c-.3 0-.5-.2-.5-.5s.2-.5.5-.5h11c.3 0 .5.3.5.5s-.2.5-.5.5z"/><circle fill="#D1D3D4" cx="17.5" cy="7.5" r="1.5"/><circle fill="#D1D3D4" cx="12.5" cy="4.5" r="1.5"/><circle fill="#D1D3D4" cx="12.5" cy="10.5" r="1.5"/><path fill="#D1D3D4" d="M22 27H8c-1.1 0-2-.9-2-2v-9.5c0-.3.2-.5.5-.5h17c.3 0 .5.2.5.5V25c0 1.1-.9 2-2 2zM7 16v9c0 .5.4 1 1 1h14c.5 0 1-.4 1-1v-9H7z"/><path fill="#D1D3D4" d="M18 20h-6c-.5 0-1-.4-1-1s.4-1 1-1h6c.5 0 1 .4 1 1s-.5 1-1 1zM25 15c0 .6-.4 1-1 1H6c-.6 0-1-.4-1-1v-1c0-.6.4-1 1-1h18c.6 0 1 .4 1 1v1zM20.5 5h-11c-.3 0-.5-.2-.5-.5s.2-.5.5-.5h11c.3 0 .5.2.5.5s-.2.5-.5.5zM20.5 11h-11c-.3 0-.5-.2-.5-.5s.2-.5.5-.5h11c.3 0 .5.2.5.5s-.2.5-.5.5z"/></svg><svg width="30" height="30" viewBox="0 0 30 30" id="item-attribute-hover" x="267.145" y="120"><path fill="#53CDFF" d="M20.5 8h-11c-.3 0-.5-.2-.5-.5s.2-.5.5-.5h11c.3 0 .5.3.5.5s-.2.5-.5.5z"/><circle fill="#53CDFF" cx="17.5" cy="7.5" r="1.5"/><circle fill="#53CDFF" cx="12.5" cy="4.5" r="1.5"/><circle fill="#53CDFF" cx="12.5" cy="10.5" r="1.5"/><path fill="#53CDFF" d="M22 27H8c-1.1 0-2-.9-2-2v-9.5c0-.3.2-.5.5-.5h17c.3 0 .5.2.5.5V25c0 1.1-.9 2-2 2zM7 16v9c0 .5.4 1 1 1h14c.5 0 1-.4 1-1v-9H7z"/><path fill="#53CDFF" d="M18 20h-6c-.5 0-1-.4-1-1s.4-1 1-1h6c.5 0 1 .4 1 1s-.5 1-1 1zM25 15c0 .6-.4 1-1 1H6c-.6 0-1-.4-1-1v-1c0-.6.4-1 1-1h18c.6 0 1 .4 1 1v1zM20.5 5h-11c-.3 0-.5-.2-.5-.5s.2-.5.5-.5h11c.3 0 .5.2.5.5s-.2.5-.5.5zM20.5 11h-11c-.3 0-.5-.2-.5-.5s.2-.5.5-.5h11c.3 0 .5.2.5.5s-.2.5-.5.5z"/></svg><svg width="30" height="30" viewBox="0 0 30 30" id="item-header" x="267.145" y="150"><path fill="#D1D3D4" d="M23.8 27H6.2C4.4 27 3 25.6 3 23.8V6.2C3 4.4 4.4 3 6.2 3h17.7C25.6 3 27 4.4 27 6.2v17.7c0 1.7-1.4 3.1-3.2 3.1zM6.2 4C5 4 4 5 4 6.2v17.7C4 25 5 26 6.2 26h17.7c1.2 0 2.2-1 2.2-2.2V6.2C26 5 25 4 23.8 4H6.2z"/><path fill="#D1D3D4" d="M3.5 12h23v1h-23zM22.5 9.5h-15C6.7 9.5 6 8.8 6 8s.7-1.5 1.5-1.5h15c.8 0 1.5.7 1.5 1.5s-.7 1.5-1.5 1.5z"/></svg><svg width="30" height="30" viewBox="0 0 30 30" id="item-header-hover" x="267.145" y="180"><path fill="#53CDFF" d="M23.8 27H6.2C4.4 27 3 25.6 3 23.8V6.2C3 4.4 4.4 3 6.2 3h17.7C25.6 3 27 4.4 27 6.2v17.7c0 1.7-1.4 3.1-3.2 3.1zM6.2 4C5 4 4 5 4 6.2v17.7C4 25 5 26 6.2 26h17.7c1.2 0 2.2-1 2.2-2.2V6.2C26 5 25 4 23.8 4H6.2z"/><path fill="#53CDFF" d="M3.5 12h23v1h-23zM22.5 9.5h-15C6.7 9.5 6 8.8 6 8s.7-1.5 1.5-1.5h15c.8 0 1.5.7 1.5 1.5s-.7 1.5-1.5 1.5z"/></svg><svg width="30" height="30" viewBox="0 0 30 30" id="item-status" x="267.145" y="210"><path fill="#D1D3D4" d="M15 9c-.3 0-.5-.2-.5-.5v-.9c0-.5.3-.9.8-.9.6-.1 1-.7 1-1.3 0-.8-.6-1.4-1.3-1.4-.7 0-1.3.6-1.3 1.3 0 .3-.2.5-.5.5s-.5-.2-.5-.5C12.7 4 13.7 3 15 3c1.3 0 2.3 1.1 2.3 2.3 0 1.1-.8 2.1-1.8 2.3v.9c0 .3-.2.5-.5.5z"/><circle fill="#D1D3D4" cx="15" cy="10.5" r=".5"/><path fill="#D1D3D4" d="M22 27H8c-1.1 0-2-.9-2-2v-9.5c0-.3.2-.5.5-.5h17c.3 0 .5.2.5.5V25c0 1.1-.9 2-2 2zM7 16v9c0 .5.4 1 1 1h14c.5 0 1-.4 1-1v-9H7z"/><path fill="#D1D3D4" d="M18 20h-6c-.5 0-1-.4-1-1s.4-1 1-1h6c.5 0 1 .4 1 1s-.5 1-1 1zM25 15c0 .6-.4 1-1 1H6c-.6 0-1-.4-1-1v-1c0-.6.4-1 1-1h18c.6 0 1 .4 1 1v1z"/></svg><svg width="30" height="30" viewBox="0 0 30 30" id="item-status-hover" y="262"><path fill="#53CDFF" d="M15 9c-.3 0-.5-.2-.5-.5v-.9c0-.5.3-.9.8-.9.6-.1 1-.7 1-1.3 0-.8-.6-1.4-1.3-1.4-.7 0-1.3.6-1.3 1.3 0 .3-.2.5-.5.5s-.5-.2-.5-.5C12.7 4 13.7 3 15 3c1.3 0 2.3 1.1 2.3 2.3 0 1.1-.8 2.1-1.8 2.3v.9c0 .3-.2.5-.5.5z"/><circle fill="#53CDFF" cx="15" cy="10.5" r=".5"/><path fill="#53CDFF" d="M22 27H8c-1.1 0-2-.9-2-2v-9.5c0-.3.2-.5.5-.5h17c.3 0 .5.2.5.5V25c0 1.1-.9 2-2 2zM7 16v9c0 .5.4 1 1 1h14c.5 0 1-.4 1-1v-9H7z"/><path fill="#53CDFF" d="M18 20h-6c-.5 0-1-.4-1-1s.4-1 1-1h6c.5 0 1 .4 1 1s-.5 1-1 1zM25 15c0 .6-.4 1-1 1H6c-.6 0-1-.4-1-1v-1c0-.6.4-1 1-1h18c.6 0 1 .4 1 1v1z"/></svg><svg width="30" height="30" viewBox="0 0 30 30" id="label" x="30" y="262"><path fill="#D1D3D4" d="M25.1 4c.5 0 .9.4.9.9v6.4c0 .7-.3 1.4-.8 1.9L13.1 25.5c-.3.3-.8.5-1.2.5-.5 0-.9-.2-1.2-.5l-6.1-6c-.4-.4-.6-.8-.6-1.3s.2-.9.5-1.2L16.9 4.8c.5-.5 1.1-.8 1.8-.8h6.4m0-1h-6.4c-1 0-1.9.4-2.6 1.1L3.8 16.2c-.5.5-.8 1.2-.8 2 0 .7.3 1.4.8 2l6.1 6c.5.5 1.2.8 2 .8.7 0 1.5-.3 2-.8L26 13.8c.7-.7 1-1.6 1-2.6V4.9c0-1.1-.8-1.9-1.9-1.9z"/><path fill="#D1D3D4" d="M6 19.1c-.3-.3-.3-.9 0-1.2l8.7-8.7c.3-.3.9-.3 1.2 0l5 4.9c.3.3.3.9 0 1.2L12.2 24c-.3.3-.9.3-1.2 0l-5-4.9zM23.4 6.6c.8.8.8 2 0 2.8-.8.8-2 .8-2.8 0-.8-.8-.8-2 0-2.8.8-.8 2-.8 2.8 0z"/></svg><svg width="30" height="30" viewBox="0 0 30 30" id="label-hover" x="60" y="262"><path fill="#53CDFF" d="M25.1 4c.5 0 .9.4.9.9v6.4c0 .7-.3 1.4-.8 1.9L13.1 25.5c-.3.3-.8.5-1.2.5-.5 0-.9-.2-1.2-.5l-6.1-6c-.4-.4-.6-.8-.6-1.3s.2-.9.5-1.2L16.9 4.8c.5-.5 1.1-.8 1.8-.8h6.4m0-1h-6.4c-1 0-1.9.4-2.6 1.1L3.8 16.2c-.5.5-.8 1.2-.8 2 0 .7.3 1.4.8 2l6.1 6c.5.5 1.2.8 2 .8.7 0 1.5-.3 2-.8L26 13.8c.7-.7 1-1.6 1-2.6V4.9c0-1.1-.8-1.9-1.9-1.9z"/><path fill="#53CDFF" d="M6 19.1c-.3-.3-.3-.9 0-1.2l8.7-8.7c.3-.3.9-.3 1.2 0l5 4.9c.3.3.3.9 0 1.2L12.2 24c-.3.3-.9.3-1.2 0l-5-4.9zM23.4 6.6c.8.8.8 2 0 2.8-.8.8-2 .8-2.8 0-.8-.8-.8-2 0-2.8.8-.8 2-.8 2.8 0z"/></svg><svg width="30" height="30" viewBox="0 0 30 30" id="link" x="90" y="262"><g fill="#D1D3D4"><path d="M11.3 19.7c-.3 0-.5-.1-.7-.3-.4-.4-.4-1 0-1.4l7.4-7.4c.4-.4 1-.4 1.4 0s.4 1 0 1.4L12 19.4c-.2.2-.4.3-.7.3z"/><path d="M10.3 26.9c-1.2 0-2.4-.5-3.3-1.4L4.4 23c-.9-.9-1.4-2-1.4-3.3s.5-2.4 1.4-3.3L7.9 13c.4-.4 1-.4 1.4 0s.4 1 0 1.4l-3.4 3.4c-1 1-1 2.7 0 3.7l2.6 2.6c1 1 2.7 1 3.7 0l3.4-3.4c.4-.4 1-.4 1.4 0s.4 1 0 1.4l-3.4 3.4c-.9 1-2.1 1.4-3.3 1.4zM21.4 17.3c-.3 0-.5-.1-.7-.3-.4-.4-.4-1 0-1.4l3.4-3.4c1-1 1-2.7 0-3.7l-2.6-2.6c-1-1-2.7-1-3.7 0l-3.4 3.4c-.4.4-1 .4-1.4 0s-.4-1 0-1.4l3.4-3.4c.9-.9 2-1.4 3.3-1.4s2.4.5 3.3 1.4L25.6 7c1.8 1.8 1.8 4.7 0 6.5L22.1 17c-.2.2-.4.3-.7.3z"/></g></svg><svg width="30" height="30" viewBox="0 0 30 30" id="link-hover" x="120" y="262"><g fill="#53CDFF"><path d="M11.3 19.7c-.3 0-.5-.1-.7-.3-.4-.4-.4-1 0-1.4l7.4-7.4c.4-.4 1-.4 1.4 0s.4 1 0 1.4L12 19.4c-.2.2-.4.3-.7.3z"/><path d="M10.3 26.9c-1.2 0-2.4-.5-3.3-1.4L4.4 23c-.9-.9-1.4-2-1.4-3.3s.5-2.4 1.4-3.3L7.9 13c.4-.4 1-.4 1.4 0s.4 1 0 1.4l-3.4 3.4c-1 1-1 2.7 0 3.7l2.6 2.6c1 1 2.7 1 3.7 0l3.4-3.4c.4-.4 1-.4 1.4 0s.4 1 0 1.4l-3.4 3.4c-.9 1-2.1 1.4-3.3 1.4zM21.4 17.3c-.3 0-.5-.1-.7-.3-.4-.4-.4-1 0-1.4l3.4-3.4c1-1 1-2.7 0-3.7l-2.6-2.6c-1-1-2.7-1-3.7 0l-3.4 3.4c-.4.4-1 .4-1.4 0s-.4-1 0-1.4l3.4-3.4c.9-.9 2-1.4 3.3-1.4s2.4.5 3.3 1.4L25.6 7c1.8 1.8 1.8 4.7 0 6.5L22.1 17c-.2.2-.4.3-.7.3z"/></g></svg><svg width="30" height="30" viewBox="0 0 30 30" id="list" x="150" y="262"><g fill="#D1D3D4"><circle cx="5.5" cy="7" r="2.5"/><path d="M26 16H12c-.6 0-1-.4-1-1s.4-1 1-1h14c.6 0 1 .4 1 1s-.4 1-1 1zM25.9 23.5h-14c-.6 0-1-.4-1-1s.4-1 1-1h14c.6 0 1 .4 1 1s-.4 1-1 1z"/><circle cx="5.5" cy="15" r="2.5"/><circle cx="5.5" cy="23" r="2.5"/><path d="M26 8H12c-.6 0-1-.4-1-1s.4-1 1-1h14c.6 0 1 .4 1 1s-.4 1-1 1z"/></g></svg><svg width="30" height="30" viewBox="0 0 30 30" id="list-hover" x="180" y="262"><g fill="#53CDFF"><circle cx="5.5" cy="7" r="2.5"/><path d="M26 16H12c-.6 0-1-.4-1-1s.4-1 1-1h14c.6 0 1 .4 1 1s-.4 1-1 1zM25.9 23.5h-14c-.6 0-1-.4-1-1s.4-1 1-1h14c.6 0 1 .4 1 1s-.4 1-1 1z"/><circle cx="5.5" cy="15" r="2.5"/><circle cx="5.5" cy="23" r="2.5"/><path d="M26 8H12c-.6 0-1-.4-1-1s.4-1 1-1h14c.6 0 1 .4 1 1s-.4 1-1 1z"/></g></svg><svg width="30" height="30" viewBox="0 0 30 30" id="list-item" x="210" y="262"><g fill="#D1D3D4"><circle cx="5.5" cy="7" r="2.5"/><path d="M25 9H12.7c-1.1 0-2-.9-2-2s.9-2 2-2H25c1.1 0 2 .9 2 2s-.9 2-2 2zM26 16H12c-.6 0-1-.4-1-1s.4-1 1-1h14c.6 0 1 .4 1 1s-.4 1-1 1zM25.9 23.5h-14c-.6 0-1-.4-1-1s.4-1 1-1h14c.6 0 1 .4 1 1s-.4 1-1 1z"/><circle cx="5.5" cy="15" r="2.5"/><circle cx="5.5" cy="23" r="2.5"/></g></svg><svg width="30" height="30" viewBox="0 0 30 30" id="list-item-hover" x="240" y="262"><g fill="#53CDFF"><circle cx="5.5" cy="7" r="2.5"/><path d="M25 9H12.7c-1.1 0-2-.9-2-2s.9-2 2-2H25c1.1 0 2 .9 2 2s-.9 2-2 2zM26 16H12c-.6 0-1-.4-1-1s.4-1 1-1h14c.6 0 1 .4 1 1s-.4 1-1 1zM25.9 23.5h-14c-.6 0-1-.4-1-1s.4-1 1-1h14c.6 0 1 .4 1 1s-.4 1-1 1z"/><circle cx="5.5" cy="15" r="2.5"/><circle cx="5.5" cy="23" r="2.5"/></g></svg><svg width="17" height="17" viewBox="0 0 17 17" id="placeholder" x="327.145" y="203"><title>placeholder</title><path d="M11.333 8.5c0-.782-.276-1.45-.83-2.003-.553-.554-1.22-.83-2.003-.83-.782 0-1.45.276-2.003.83-.554.553-.83 1.22-.83 2.003 0 .782.276 1.45.83 2.003.553.554 1.22.83 2.003.83.782 0 1.45-.276 2.003-.83.554-.553.83-1.22.83-2.003zM17 7.294V9.75c0 .09-.03.174-.09.255-.058.08-.13.13-.22.144l-2.047.31c-.14.397-.284.733-.432 1.006.26.37.654.878 1.185 1.527.074.09.11.18.11.277 0 .096-.032.18-.1.255-.198.273-.563.67-1.094 1.195-.53.524-.877.786-1.04.786-.088 0-.184-.033-.288-.1l-1.527-1.195c-.325.17-.66.31-1.007.422-.118 1.003-.225 1.69-.32 2.058-.053.207-.186.31-.4.31H7.272c-.102 0-.192-.03-.27-.094-.077-.063-.12-.142-.127-.238l-.31-2.036c-.36-.12-.693-.255-.996-.41l-1.56 1.184c-.074.067-.167.1-.277.1-.103 0-.196-.04-.277-.122-.93-.84-1.538-1.46-1.826-1.86-.052-.073-.078-.158-.078-.254 0-.088.03-.173.088-.254.11-.155.3-.4.564-.736.266-.336.465-.596.598-.78-.2-.37-.35-.735-.454-1.096l-2.025-.3c-.095-.014-.172-.06-.23-.138C.03 9.89 0 9.802 0 9.706V7.25c0-.09.03-.174.09-.255.058-.08.128-.13.21-.144l2.057-.31c.104-.338.248-.678.432-1.017-.296-.42-.69-.93-1.185-1.528-.074-.088-.11-.177-.11-.265 0-.074.032-.16.1-.255.19-.265.554-.662 1.09-1.19.534-.527.882-.79 1.045-.79.096 0 .192.036.288.11L5.545 2.79c.325-.17.66-.31 1.007-.422.118-1.003.225-1.69.32-2.058.053-.207.186-.31.4-.31h2.457c.102 0 .192.03.27.094.077.063.12.142.127.238l.31 2.036c.36.12.693.255.996.41l1.572-1.184c.066-.067.155-.1.265-.1.096 0 .188.037.277.11.952.88 1.56 1.506 1.826 1.882.052.06.078.14.078.244 0 .088-.03.173-.088.254-.11.155-.3.4-.564.736-.266.336-.465.596-.598.78.192.37.343.73.454 1.085l2.025.31c.095.015.172.06.23.14.06.076.09.163.09.26z" fill="#3398DB" fill-rule="evenodd"/></svg><svg width="30" height="30" viewBox="0 0 30 30" id="responsive-grid-layout" x="297.145" y="30"><path fill="#D1D3D4" d="M23.8 27H6.2C4.4 27 3 25.6 3 23.8V6.2C3 4.4 4.4 3 6.2 3h17.7C25.6 3 27 4.4 27 6.2v17.7c0 1.7-1.4 3.1-3.2 3.1zM6.2 4C5 4 4 5 4 6.2v17.7C4 25 5 26 6.2 26h17.7c1.2 0 2.2-1 2.2-2.2V6.2C26 5 25 4 23.8 4H6.2z"/><path fill="#D1D3D4" d="M9 11h1v15.5H9zM15 11h1v15.5h-1z"/><path fill="#D1D3D4" d="M3.5 10.5h23v1h-23z"/></svg><svg width="30" height="30" viewBox="0 0 30 30" id="responsive-grid-layout-hover" x="297.145" y="60"><path fill="#53CDFF" d="M23.8 27H6.2C4.4 27 3 25.6 3 23.8V6.2C3 4.4 4.4 3 6.2 3h17.7C25.6 3 27 4.4 27 6.2v17.7c0 1.7-1.4 3.1-3.2 3.1zM6.2 4C5 4 4 5 4 6.2v17.7C4 25 5 26 6.2 26h17.7c1.2 0 2.2-1 2.2-2.2V6.2C26 5 25 4 23.8 4H6.2z"/><path fill="#53CDFF" d="M9 11h1v15.5H9zM15 11h1v15.5h-1z"/><path fill="#53CDFF" d="M3.5 10.5h23v1h-23z"/></svg><svg width="30" height="30" viewBox="0 0 30 30" id="search" x="297.145" y="90"><g fill="#D1D3D4"><path d="M26.5 24.4l-3.8-3.8c.8-1.2 1.3-2.6 1.3-4.2 0-4.2-3.4-7.5-7.5-7.5S9 12.3 9 16.4s3.4 7.5 7.5 7.5c1.5 0 3-.5 4.2-1.3l3.8 3.8c.3.3.7.4 1.1.4s.8-.1 1.1-.4c.4-.4.4-1.4-.2-2zM12 16.5c0-2.5 2-4.5 4.5-4.5s4.5 2 4.5 4.5-2 4.5-4.5 4.5-4.5-2-4.5-4.5z"/><path d="M8 22H6.2C5 22 4 21 4 19.8V6.2C4 5 5 4 6.2 4h13.6C21 4 22 5 22 6.2V8c0 .3.2.5.5.5s.5-.2.5-.5V6.2C23 4.4 21.6 3 19.8 3H6.2C4.4 3 3 4.4 3 6.2v13.6C3 21.6 4.4 23 6.2 23H8c.3 0 .5-.2.5-.5S8.3 22 8 22z"/></g></svg><svg width="30" height="30" viewBox="0 0 30 30" id="search-hover" x="297.145" y="120"><g fill="#53CDFF"><path d="M26.5 24.4l-3.8-3.8c.8-1.2 1.3-2.6 1.3-4.2 0-4.2-3.4-7.5-7.5-7.5S9 12.3 9 16.4s3.4 7.5 7.5 7.5c1.5 0 3-.5 4.2-1.3l3.8 3.8c.3.3.7.4 1.1.4s.8-.1 1.1-.4c.4-.4.4-1.4-.2-2zM12 16.5c0-2.5 2-4.5 4.5-4.5s4.5 2 4.5 4.5-2 4.5-4.5 4.5-4.5-2-4.5-4.5z"/><path d="M8 22H6.2C5 22 4 21 4 19.8V6.2C4 5 5 4 6.2 4h13.6C21 4 22 5 22 6.2V8c0 .3.2.5.5.5s.5-.2.5-.5V6.2C23 4.4 21.6 3 19.8 3H6.2C4.4 3 3 4.4 3 6.2v13.6C3 21.6 4.4 23 6.2 23H8c.3 0 .5-.2.5-.5S8.3 22 8 22z"/></g></svg><svg width="5.333" height="37.417" viewBox="0 0 5.333 37.417" id="separator" x="171.812"><path fill="#FFF" d="M1 1h3v35H1z"/></svg><svg viewBox="0 0 30 30" width="30" height="30" id="simple-form" x="297.145" y="180"><g fill="#D1D3D4"><path d="M27 6.2C27 4.4 25.6 3 23.8 3H6.2C4.4 3 3 4.4 3 6.2v17.7C3 25.6 4.4 27 6.2 27h17.7c1.7 0 3.2-1.4 3.2-3.2V6.2zm-1 17.6c0 1.2-1 2.2-2.2 2.2H6.2C5 26 4 25 4 23.8V6.2C4 5 5 4 6.2 4h17.7C25 4 26 5 26 6.2v17.6z"/><path d="M24 7.5c0-.8-.7-1.5-1.5-1.5h-15C6.7 6 6 6.7 6 7.5v3c0 .8.7 1.5 1.5 1.5h15c.8 0 1.5-.7 1.5-1.5v-3zm-1 3c0 .3-.2.5-.5.5h-15c-.3 0-.5-.2-.5-.5v-3c0-.3.2-.5.5-.5h15c.3 0 .5.2.5.5v3zM22.5 20h-5c-.8 0-1.5.7-1.5 1.5v1c0 .8.7 1.5 1.5 1.5h5c.8 0 1.5-.7 1.5-1.5v-1c0-.8-.7-1.5-1.5-1.5zM12.5 20h-5c-.8 0-1.5.7-1.5 1.5v1c0 .8.7 1.5 1.5 1.5h5c.8 0 1.5-.7 1.5-1.5v-1c0-.8-.7-1.5-1.5-1.5zm.5 2.5c0 .3-.2.5-.5.5h-5c-.3 0-.5-.2-.5-.5v-1c0-.3.2-.5.5-.5h5c.3 0 .5.2.5.5v1zM22.5 14h-15c-.8 0-1.5.7-1.5 1.5v1c0 .8.7 1.5 1.5 1.5h15c.8 0 1.5-.7 1.5-1.5v-1c0-.8-.7-1.5-1.5-1.5zm.5 2.5c0 .3-.2.5-.5.5h-15c-.3 0-.5-.2-.5-.5v-1c0-.3.2-.5.5-.5h15c.3 0 .5.2.5.5v1z"/></g></svg><svg viewBox="0 0 30 30" width="30" height="30" id="simple-form-hover" x="297.145" y="210"><g fill="#53CDFF"><path d="M27 6.2C27 4.4 25.6 3 23.8 3H6.2C4.4 3 3 4.4 3 6.2v17.7C3 25.6 4.4 27 6.2 27h17.7c1.7 0 3.2-1.4 3.2-3.2V6.2zm-1 17.6c0 1.2-1 2.2-2.2 2.2H6.2C5 26 4 25 4 23.8V6.2C4 5 5 4 6.2 4h17.7C25 4 26 5 26 6.2v17.6z"/><path d="M24 7.5c0-.8-.7-1.5-1.5-1.5h-15C6.7 6 6 6.7 6 7.5v3c0 .8.7 1.5 1.5 1.5h15c.8 0 1.5-.7 1.5-1.5v-3zm-1 3c0 .3-.2.5-.5.5h-15c-.3 0-.5-.2-.5-.5v-3c0-.3.2-.5.5-.5h15c.3 0 .5.2.5.5v3zM22.5 20h-5c-.8 0-1.5.7-1.5 1.5v1c0 .8.7 1.5 1.5 1.5h5c.8 0 1.5-.7 1.5-1.5v-1c0-.8-.7-1.5-1.5-1.5zM12.5 20h-5c-.8 0-1.5.7-1.5 1.5v1c0 .8.7 1.5 1.5 1.5h5c.8 0 1.5-.7 1.5-1.5v-1c0-.8-.7-1.5-1.5-1.5zm.5 2.5c0 .3-.2.5-.5.5h-5c-.3 0-.5-.2-.5-.5v-1c0-.3.2-.5.5-.5h5c.3 0 .5.2.5.5v1zM22.5 14h-15c-.8 0-1.5.7-1.5 1.5v1c0 .8.7 1.5 1.5 1.5h15c.8 0 1.5-.7 1.5-1.5v-1c0-.8-.7-1.5-1.5-1.5zm.5 2.5c0 .3-.2.5-.5.5h-15c-.3 0-.5-.2-.5-.5v-1c0-.3.2-.5.5-.5h15c.3 0 .5.2.5.5v1z"/></g></svg><svg width="30" height="30" viewBox="0 0 30 30" id="smartTemplates--ActionButton" x="297.145" y="240"><path fill="#D1D3D4" d="M24.258 15.005c-.002-.02-.008-.036-.014-.056-.007-.026 0-.057-.02-.074l-.05-.05c-.004-.006-.004-.012-.01-.018-.005-.005-.01-.005-.017-.01l-1.78-1.78c-.07-.072-.218-.045-.323.062-.107.106-.135.252-.06.325l1.598 1.6-1.6 1.6c-.073.073-.046.22.062.325.105.106.252.134.324.06l1.78-1.778c.005-.005.01-.004.017-.01.005-.005.005-.012.01-.018l.05-.05c.018-.018.012-.048.02-.073.005-.02.01-.036.013-.055z"/><path fill="#D1D3D4" d="M25.91 11c.554 0 1 .448 1 1v6c0 .553-.446 1-1 1h-22c-.55 0-1-.447-1-1v-6c0-.552.45-1 1-1h22m0-1h-22c-1.102 0-2 .897-2 2v6c0 1.104.898 1.833 2 1.833h22c1.104 0 2-.73 2-1.833v-6c0-1.103-.896-2-2-2"/></svg><svg width="30" height="30" viewBox="0 0 30 30" id="smartTemplates--Column" y="292"><path fill="#D1D3D4" d="M24.823 1h-20c-1.93 0-3.5 1.57-3.5 3.5v20c0 1.932 1.57 3.5 3.5 3.5h20c1.93 0 3.395-1.568 3.395-3.5v-20c0-1.93-1.465-3.5-3.395-3.5zM2.198 4c0-.877 1.246-2 2.625-2h20c1.38 0 2.5 1.123 2.5 2.5V9H2.198V4zm5.125 17.042H2.198V16h5.125v5.042zM16.198 16h5.08v5h-5.08v-5zm0-1v-5h5.08v5h-5.08zm6.018 1h5.107v5h-5.107v-5zm0-1v-5h5.107v5h-5.107zM7.323 10v5H2.198v-5h5.125zm-2.5 17c-1.38 0-2.625-1.12-2.625-2.5v-2.625h5.125V27h-2.5zm11.375-5.125h5.08V27h-5.08v-5.125zM24.823 27h-2.607v-5.125h5.107V24.5c0 1.38-1.12 2.5-2.5 2.5z"/></svg><svg width="30" height="30" viewBox="0 0 30 30" id="smartTemplates--ContactsTable" x="30" y="292"><path fill="#D1D3D4" d="M25.104 1h-20c-1.93 0-3.397 1.57-3.397 3.5v20c0 1.932 1.468 3.5 3.397 3.5h20c1.928 0 3.498-1.568 3.498-3.5v-20c0-1.93-1.57-3.5-3.498-3.5zm-22.5 3c0-.877 1.12-2 2.5-2h20c1.378 0 2.498 1.123 2.57 2.5V9H2.603V4zm6 12h6.134v5H8.604v-5zm-.897 5H2.604v-5h5.103v5zm7.03-6H8.605v-5h6.134v5zm.867 1h6.04v5h-6.04v-5zm0-1v-5h6.04v5h-6.04zm7 1h5.07v5h-5.07v-5zm0-1v-5h5.07v5h-5.07zM7.707 10v5H2.604v-5h5.103zM5.104 27c-1.38 0-2.5-1.12-2.5-2.5V22h5.103v5H5.104zm3.5 0v-5h6.134v5H8.604zm7-5h6.04v5h-6.04v-5zm9.5 5h-2.5v-5h5.072v2.5c-.073 1.38-1.194 2.5-2.572 2.5z"/></svg><svg width="30" height="30" viewBox="0 0 30 30" id="smartTemplates--Filter" x="60" y="292"><path fill="#D1D3D4" d="M24.775 27.875h-20c-1.93 0-3.295-1.588-3.295-3.455L1.465 4.617C1.465 2.625 2.83 1 4.76 1h20c1.93 0 3.5 1.83 3.5 3.76l.015 19.803c0 1.93-1.57 3.312-3.5 3.312M4.76 2c-1.38 0-2.5 1.382-2.5 2.76l.016 19.803c0 1.38 1.12 2.5 2.5 2.5h20c1.378 0 2.5-1.12 2.636-2.5L27.396 4.76C27.26 3.382 26.138 2 24.76 2h-20z"/><path fill="#D1D3D4" d="M21.284 8.182c-.045-.11-.153-.182-.27-.182H8.6c-.12 0-.227.072-.272.182-.045.11-.02.236.064.32l4.946 4.88v7.323c0 .105.057.202.146.254.046.027.097.04.146.04.05 0 .1-.013.147-.038l2.347-1.34c.09-.052.146-.148.146-.253v-5.99l4.947-4.878c.086-.084.112-.21.067-.32z"/></svg><svg width="30" height="30" viewBox="0 0 30 30" id="smartTemplates--FilterBar" x="90" y="292"><path fill="#D1D3D4" d="M24.498 1H4.5C2.57 1 1 2.57 1 4.5v20C1 26.432 2.57 28 4.5 28h19.998c1.93 0 3.5-1.568 3.5-3.5v-20c0-1.93-1.57-3.5-3.5-3.5M2 4.5C2 3.122 3.122 2 4.5 2h19.998c1.38 0 2.5 1.122 2.502 2.5V13H2V4.5zM24.498 27H4.5C3.122 27 2 25.88 2 24.5V14h25v10.5c-.002 1.38-1.123 2.5-2.502 2.5"/><path fill="#D1D3D4" d="M24 6c0 .553-.447 1-1 1s-1-.447-1-1 .447-1 1-1 1 .447 1 1M19 7H5c-.552 0-1-.448-1-1s.448-1 1-1h14c.554 0 1 .448 1 1s-.446 1-1 1M12 11H5c-.55 0-1-.448-1-1s.45-1 1-1h7c.553 0 1 .448 1 1s-.447 1-1 1M22.998 11h-7c-.55 0-.998-.448-.998-1s.448-1 1-1h6.998c.553 0 1 .448 1 1s-.447 1-1 1"/></svg><svg width="30" height="30" viewBox="0 0 30 30" id="smartTemplates--Form" x="120" y="292"><path fill="#D1D3D4" d="M22.936 21H6.973c-1.39 0-2.52-1.13-2.52-2.518v-7.964C4.453 9.13 5.583 8 6.973 8h15.963c1.39 0 2.518 1.13 2.518 2.52v7.963c0 1.388-1.13 2.517-2.518 2.517zM6.973 9c-.838 0-1.52.68-1.52 1.52v7.963c0 .837.682 1.518 1.52 1.518h15.963c.837 0 1.518-.68 1.518-1.517V10.52c0-.84-.682-1.52-1.518-1.52H6.973zM16.02 6H5.5c-.55 0-1-.447-1-1 0-.552.45-1 1-1h10.52c.552 0 1 .448 1 1 0 .553-.448 1-1 1M16.02 25H5.5c-.55 0-1-.447-1-1 0-.552.45-1 1-1h10.52c.552 0 1 .448 1 1 0 .553-.448 1-1 1"/><path fill="#D1D3D4" d="M20.953 14h-12c-.827 0-1.5-.673-1.5-1.5s.673-1.5 1.5-1.5h12c.827 0 1.5.673 1.5 1.5s-.673 1.5-1.5 1.5zm-12-2c-.275 0-.5.224-.5.5s.225.5.5.5h12c.275 0 .5-.224.5-.5s-.225-.5-.5-.5h-12zM20.953 18h-12c-.827 0-1.5-.673-1.5-1.5s.673-1.5 1.5-1.5h12c.827 0 1.5.673 1.5 1.5s-.673 1.5-1.5 1.5zm-12-2c-.275 0-.5.225-.5.5s.225.5.5.5h12c.275 0 .5-.225.5-.5s-.225-.5-.5-.5h-12zM24.453 25h-1c-.55 0-1-.447-1-1s.45-1 1-1h1c.553 0 1 .447 1 1s-.447 1-1 1"/><g fill="#D1D3D4"><path d="M3.453 1h1v1h-1zM5.453 1h1v1h-1zM7.453 1h1v1h-1zM9.453 1h1v1h-1zM11.453 1h1v1h-1zM13.453 1h1v1h-1zM15.453 1h1v1h-1zM17.453 1h1v1h-1zM19.453 1h1v1h-1zM21.453 1h1v1h-1zM23.453 1h1v1h-1zM25.453 1h1v1h-1zM3.453 27h1v1h-1zM5.453 27h1v1h-1zM7.453 27h1v1h-1zM9.453 27h1v1h-1zM11.453 27h1v1h-1zM13.453 27h1v1h-1zM15.453 27h1v1h-1zM17.453 27h1v1h-1zM19.453 27h1v1h-1zM21.453 27h1v1h-1zM23.453 27h1v1h-1zM25.453 27h1v1h-1zM1.453 3h1v1h-1zM27.453 3h1v1h-1zM1.453 5h1v1h-1zM27.453 5h1v1h-1zM1.453 7h1v1h-1zM27.453 7h1v1h-1zM1.453 9h1v1h-1zM27.453 9h1v1h-1zM1.453 11h1v1h-1zM27.453 11h1v1h-1zM1.453 13h1v1h-1zM27.453 13h1v1h-1zM1.453 15h1v1h-1zM27.453 15h1v1h-1zM1.453 17h1v1h-1zM27.453 17h1v1h-1zM1.453 19h1v1h-1zM27.453 19h1v1h-1zM1.453 21h1v1h-1zM27.453 21h1v1h-1zM1.453 23h1v1h-1zM27.453 23h1v1h-1zM1.453 25h1v1h-1zM27.453 25h1v1h-1z"/></g></svg><svg width="30" height="30" viewBox="0 0 30 30" id="smartTemplates--FormElement" x="150" y="292"><path fill="#D1D3D4" d="M22.55 21H6.585c-1.39 0-2.52-1.13-2.52-2.518v-7.964C4.066 9.13 5.196 8 6.586 8H22.55c1.388 0 2.517 1.13 2.517 2.52v7.963c0 1.388-1.13 2.517-2.518 2.517zM6.585 9c-.838 0-1.52.68-1.52 1.52v7.963c0 .837.682 1.518 1.52 1.518H22.55c.836 0 1.517-.68 1.517-1.517V10.52c0-.84-.68-1.52-1.518-1.52H6.585z"/><path fill="#D1D3D4" d="M25.066 2c1.103 0 2 .897 2 2v21c0 1.103-.897 2-2 2h-21c-1.103 0-2-.897-2-2V4c0-1.103.897-2 2-2h21m0-1h-21c-1.658 0-3 1.344-3 3v21c0 1.656 1.342 3 3 3h21c1.656 0 3-1.344 3-3V4c0-1.656-1.343-3-3-3z"/><path fill="#D1D3D4" d="M15.635 6H5.113c-.55 0-1-.447-1-1 0-.552.45-1 1-1h10.52c.552 0 1 .448 1 1 .002.553-.447 1-.998 1M15.635 25H5.113c-.55 0-1-.447-1-1 0-.552.45-1 1-1h10.52c.552 0 1 .448 1 1 .002.553-.447 1-.998 1M24.066 25h-1c-.55 0-1-.447-1-1s.45-1 1-1h1c.553 0 1 .447 1 1s-.447 1-1 1"/><g fill="#D1D3D4"><path d="M9.066 11h1v1h-1zM11.066 11h1v1h-1zM13.066 11h1v1h-1zM8.066 12h1v1h-1zM19.066 11h1v1h-1zM17.066 11h1v1h-1zM15.066 11h1v1h-1zM20.066 12h1v1h-1zM9.066 13h1v1h-1zM11.066 13h1v1h-1zM13.066 13h1v1h-1zM19.066 13h1v1h-1zM17.066 13h1v1h-1zM15.066 13h1v1h-1z"/></g><g fill="#D1D3D4"><path d="M9.066 15h1v1h-1zM11.066 15h1v1h-1zM13.066 15h1v1h-1zM8.066 16h1v1h-1zM19.066 15h1v1h-1zM17.066 15h1v1h-1zM15.066 15h1v1h-1zM20.066 16h1v1h-1zM9.066 17h1v1h-1zM11.066 17h1v1h-1zM13.066 17h1v1h-1zM19.066 17h1v1h-1zM17.066 17h1v1h-1zM15.066 17h1v1h-1z"/></g></svg><svg width="30" height="30" viewBox="0 0 30 30" id="smartTemplates--FormGroup" x="180" y="292"><path fill="#D1D3D4" d="M24.76 2c1.103 0 2 .897 2 2v21c0 1.103-.897 2-2 2h-21c-1.103 0-2-.897-2-2V4c0-1.103.897-2 2-2h21m0-1h-21c-1.658 0-3 1.344-3 3v21c0 1.656 1.342 3 3 3h21c1.656 0 3-1.344 3-3V4c0-1.656-1.344-3-3-3z"/><path fill="#D1D3D4" d="M15.328 6H4.808c-.552 0-1-.447-1-1 0-.552.448-1 1-1h10.52c.55 0 1 .448 1 1 0 .553-.45 1-1 1M15.328 25H4.808c-.552 0-1-.447-1-1 0-.552.448-1 1-1h10.52c.55 0 1 .448 1 1 0 .553-.45 1-1 1M20.26 14h-12c-.827 0-1.5-.673-1.5-1.5s.673-1.5 1.5-1.5h12c.827 0 1.5.673 1.5 1.5s-.673 1.5-1.5 1.5zm-12-2c-.275 0-.5.224-.5.5s.224.5.5.5h12c.275 0 .5-.224.5-.5s-.225-.5-.5-.5h-12zM20.26 18h-12c-.827 0-1.5-.673-1.5-1.5s.673-1.5 1.5-1.5h12c.827 0 1.5.673 1.5 1.5s-.673 1.5-1.5 1.5zm-12-2c-.275 0-.5.225-.5.5s.224.5.5.5h12c.275 0 .5-.225.5-.5s-.225-.5-.5-.5h-12zM23.76 25h-1c-.55 0-1-.447-1-1s.45-1 1-1h1c.553 0 1 .447 1 1s-.448 1-1 1M5.76 8h1v1h-1zM7.76 8h1v1h-1zM9.76 8h1v1h-1zM11.76 8h1v1h-1zM13.76 8h1v1h-1zM15.76 8h1v1h-1zM3.76 10h1v1h-1zM3.76 12h1v1h-1zM3.76 14h1v1h-1zM21.76 8h1v1h-1zM19.76 8h1v1h-1zM17.76 8h1v1h-1zM23.76 10h1v1h-1zM23.76 12h1v1h-1zM23.76 14h1v1h-1zM5.76 20h1v1h-1zM7.76 20h1v1h-1zM9.76 20h1v1h-1zM11.76 20h1v1h-1zM13.76 20h1v1h-1zM15.76 20h1v1h-1zM3.76 18h1v1h-1zM3.76 16h1v1h-1z"/><path fill="#D1D3D4" d="M3.76 14h1v1h-1zM21.76 20h1v1h-1zM19.76 20h1v1h-1zM17.76 20h1v1h-1zM23.76 18h1v1h-1zM23.76 16h1v1h-1zM23.76 14h1v1h-1z"/></svg><svg width="30" height="30" viewBox="0 0 30 30" id="smartTemplates--Header" x="210" y="292"><path fill="#D1D3D4" d="M25.043 1H5.103c-1.927 0-3.5 1.57-3.5 3.5v20c0 1.93 1.62 3.454 3.548 3.454h19.94c1.93 0 3.312-1.645 3.312-3.575v-20c0-1.93-1.43-3.38-3.36-3.38M2.513 4.5C2.51 3.12 3.727 2 5.104 2h19.938c1.38 0 2.5 1.12 2.5 2.5V10H2.51V4.5zM25.04 27H5.105c-1.377 0-2.594-1.12-2.594-2.5V10.906h25.032V24.5c0 1.38-1.12 2.5-2.5 2.5"/><path fill="#D1D3D4" d="M24.533 5h-7c-.55 0-1 .448-1 1 0 .553.45 1 1 1h7c.553 0 1-.447 1-1 0-.552-.448-1-1-1zM12.533 5h-7c-.55 0-1 .448-1 1 0 .553.45 1 1 1h7c.553 0 1-.447 1-1 0-.552-.448-1-1-1z"/></svg><svg width="30" height="30" viewBox="0 0 30 30" id="smartTemplates--KPI" x="240" y="292"><path fill="#D1D3D4" d="M25.5 1h-21C2.572 1 1 2.57 1 4.5L.983 24.483c0 1.93 1.572 3.502 3.5 3.502h21c1.93 0 3.34-1.572 3.34-3.002L28.84 5c0-2.43-1.41-4-3.34-4zM1.763 4.5C1.763 3.123 3.123 2 4.5 2h21c1.38 0 2.34 1.123 2.34 2.5l.048 1.023V9.48l-.017 15.003c0 1.38-1.008 2.61-2.387 2.61h-21c-1.377 0-2.737-1.23-2.737-2.61l.017-2.556V4.5z"/><path fill="#D1D3D4" d="M16.746 23.5V15c0-.826-.548-1.5-1.375-1.5h-1c-.826 0-1.5.674-1.5 1.5v8.5c0 .828.674 1.5 1.5 1.5h1c.828 0 1.376-.672 1.376-1.5zM22.715 23.5V12c.156-.826-.517-1.5-1.344-1.5h-1c-.826 0-1.5.674-1.5 1.5v11.5c0 .828.674 1.5 1.5 1.5h1c.828 0 1.5-.672 1.345-1.5zM10.84 23.5v-16c0-.826-.673-1.5-1.5-1.5h-1c-.827 0-1.5.674-1.5 1.5v16c0 .828.673 1.5 1.5 1.5h1c.827 0 1.5-.672 1.5-1.5z"/></svg><svg width="30" height="30" viewBox="0 0 30 30" id="smartTemplates--Section" x="270" y="292"><path fill="#D1D3D4" d="M24.5 28h-20c-1.93 0-3.354-1.568-3.354-3.5v-20C1.146 2.57 2.57 1 4.5 1h20c1.93 0 3.52 1.603 3.52 3.532v20c0 1.933-1.59 3.468-3.52 3.468M4.5 2C3.12 2 2.146 3.123 2.146 4.5v20c0 1.38.975 2.5 2.354 2.5h20c1.38 0 2.715-1.088 2.715-2.467v-20C27.215 3.154 25.88 2 24.5 2h-20z"/><path fill="#D1D3D4" d="M22.64 4.167h-16c-.826 0-1.444.462-1.444 1.3l-.01 1.006c0 .84.675 1.522 1.5 1.522h16c.83 0 1.5-.683 1.5-1.522l.01-1.006c0-.84-.728-1.3-1.556-1.3zM22.654 21.002h-16c-.826 0-1.468.64-1.468 1.467v1c0 .826.674 1.5 1.5 1.5h16c.828 0 1.5-.674 1.5-1.5v-1c0-.828-.704-1.468-1.532-1.468zM22.68 11.933c.275 0 .476.2.476.475l.014 4.234c0 .275-.2.525-.476.525h-16c-.275 0-.5-.225-.5-.5l-.014-4.234c0-.276.225-.5.5-.5h16m0-.866h-16c-.826 0-1.5.673-1.5 1.5l.014 3.917c0 .827.674 1.5 1.5 1.5h16c.828 0 1.455-.72 1.455-1.546l-.015-3.917c0-.826-.627-1.453-1.455-1.453z"/></svg><svg width="30" height="30" viewBox="0 0 30 30" id="smartTemplates--Table" x="327.145"><path fill="#D1D3D4" d="M25.104 1h-20c-1.93 0-3.397 1.57-3.397 3.5v20c0 1.932 1.468 3.5 3.397 3.5h20c1.928 0 3.498-1.568 3.498-3.5v-20c0-1.93-1.57-3.5-3.498-3.5zm-22.5 3c0-.877 1.12-2 2.5-2h20c1.378 0 2.498 1.123 2.57 2.5V9H2.603V4zm6 12h6.134v5H8.604v-5zm-.897 5H2.604v-5h5.103v5zm7.03-6H8.605v-5h6.134v5zm.867 1h6.04v5h-6.04v-5zm0-1v-5h6.04v5h-6.04zm7 1h5.07v5h-5.07v-5zm0-1v-5h5.07v5h-5.07zM7.707 10v5H2.604v-5h5.103zM5.104 27c-1.38 0-2.5-1.12-2.5-2.5V22h5.103v5H5.104zm3.5 0v-5h6.134v5H8.604zm7-5h6.04v5h-6.04v-5zm9.5 5h-2.5v-5h5.072v2.5c-.073 1.38-1.194 2.5-2.572 2.5z"/></svg><svg width="30" height="30" viewBox="0 0 30 30" id="smartTemplates--TableAction" x="327.145" y="30"><path fill="#D1D3D4" d="M24.258 15.005c-.002-.02-.008-.036-.014-.056-.007-.026 0-.057-.02-.074l-.05-.05c-.004-.006-.004-.012-.01-.018-.005-.005-.01-.005-.017-.01l-1.78-1.78c-.07-.072-.218-.045-.323.062-.107.106-.135.252-.06.325l1.598 1.6-1.6 1.6c-.073.073-.046.22.062.325.105.106.252.134.324.06l1.78-1.778c.005-.005.01-.004.017-.01.005-.005.005-.012.01-.018l.05-.05c.018-.018.012-.048.02-.073.005-.02.01-.036.013-.055z"/><path fill="#D1D3D4" d="M25.91 11c.554 0 1 .448 1 1v6c0 .553-.446 1-1 1h-22c-.55 0-1-.447-1-1v-6c0-.552.45-1 1-1h22m0-1h-22c-1.102 0-2 .897-2 2v6c0 1.104.898 1.833 2 1.833h22c1.104 0 2-.73 2-1.833v-6c0-1.103-.896-2-2-2"/></svg><svg width="30" height="30" viewBox="0 0 30 30" id="table" x="327.145" y="60"><path fill="#D1D3D4" d="M23.8 27H6.2C4.4 27 3 25.6 3 23.8V6.1C3 4.4 4.4 3 6.2 3h17.7C25.6 3 27 4.4 27 6.1v17.7c0 1.8-1.4 3.2-3.2 3.2zM6.2 4C5 4 4 5 4 6.1v17.7C4 25 5 26 6.2 26h17.7c1.2 0 2.2-1 2.2-2.2V6.1C26 5 25 4 23.8 4H6.2z"/><path fill="#D1D3D4" d="M10.5 9.2h1v17.3h-1zM18.5 9.2h1v17.3h-1z"/><path fill="#D1D3D4" d="M3.9 12.5h22.6v1H3.9zM3.5 16h22.6v1H3.5zM3.5 23h22.6v1H3.5z"/><path fill="#D1D3D4" d="M3.5 23h22.6v1H3.5z"/><path fill="#D1D3D4" d="M3.5 23h22.6v1H3.5zM3.9 19.5h22.6v1H3.9zM3.9 9h22.6v1H3.9z"/></svg><svg width="30" height="30" viewBox="0 0 30 30" id="table-hover" x="327.145" y="90"><path fill="#53CDFF" d="M23.8 27H6.2C4.4 27 3 25.6 3 23.8V6.1C3 4.4 4.4 3 6.2 3h17.7C25.6 3 27 4.4 27 6.1v17.7c0 1.8-1.4 3.2-3.2 3.2zM6.2 4C5 4 4 5 4 6.1v17.7C4 25 5 26 6.2 26h17.7c1.2 0 2.2-1 2.2-2.2V6.1C26 5 25 4 23.8 4H6.2z"/><path fill="#53CDFF" d="M10.5 9.2h1v17.3h-1zM18.5 9.2h1v17.3h-1z"/><path fill="#53CDFF" d="M3.9 12.5h22.6v1H3.9zM3.5 16h22.6v1H3.5zM3.5 23h22.6v1H3.5z"/><path fill="#53CDFF" d="M3.5 23h22.6v1H3.5z"/><path fill="#53CDFF" d="M3.5 23h22.6v1H3.5zM3.9 19.5h22.6v1H3.9zM3.9 9h22.6v1H3.9z"/></svg><svg width="30" height="30" viewBox="0 0 30 30" id="text" x="327.145" y="120"><path fill="#D1D3D4" d="M26 11H4c-.6 0-1-.4-1-1s.4-1 1-1h22c.6 0 1 .4 1 1s-.4 1-1 1zM22.5 15H4c-.6 0-1-.4-1-1s.4-1 1-1h18.5c.6 0 1 .4 1 1s-.4 1-1 1zM18.5 19H4c-.6 0-1-.4-1-1s.4-1 1-1h14.5c.6 0 1 .4 1 1s-.4 1-1 1zM20 23H4c-.6 0-1-.4-1-1s.4-1 1-1h16c.6 0 1 .4 1 1s-.4 1-1 1z"/></svg><svg width="30" height="30" viewBox="0 0 30 30" id="text-hover" x="297.145"><path fill="#53CDFF" d="M26 11H4c-.6 0-1-.4-1-1s.4-1 1-1h22c.6 0 1 .4 1 1s-.4 1-1 1zM22.5 15H4c-.6 0-1-.4-1-1s.4-1 1-1h18.5c.6 0 1 .4 1 1s-.4 1-1 1zM18.5 19H4c-.6 0-1-.4-1-1s.4-1 1-1h14.5c.6 0 1 .4 1 1s-.4 1-1 1zM20 23H4c-.6 0-1-.4-1-1s.4-1 1-1h16c.6 0 1 .4 1 1s-.4 1-1 1z"/></svg><svg width="30" height="30" viewBox="0 0 30 30" id="title" x="237.145" y="120"><g fill="#D1D3D4"><path d="M25 10.5H5c-1.1 0-2-.9-2-2s.9-2 2-2h20c1.1 0 2 .9 2 2s-.9 2-2 2zM26 14.5H4c-.6 0-1-.4-1-1s.4-1 1-1h22c.6 0 1 .4 1 1s-.4 1-1 1zM26 18.5H4c-.6 0-1-.4-1-1s.4-1 1-1h22c.6 0 1 .4 1 1s-.4 1-1 1zM20 22.5H4c-.6 0-1-.4-1-1s.4-1 1-1h16c.6 0 1 .4 1 1s-.4 1-1 1z"/></g></svg><svg width="30" height="30" viewBox="0 0 30 30" id="title-hover" x="327.145" y="150"><g fill="#53CDFF"><path d="M25 10.5H5c-1.1 0-2-.9-2-2s.9-2 2-2h20c1.1 0 2 .9 2 2s-.9 2-2 2zM26 14.5H4c-.6 0-1-.4-1-1s.4-1 1-1h22c.6 0 1 .4 1 1s-.4 1-1 1zM26 18.5H4c-.6 0-1-.4-1-1s.4-1 1-1h22c.6 0 1 .4 1 1s-.4 1-1 1zM20 22.5H4c-.6 0-1-.4-1-1s.4-1 1-1h16c.6 0 1 .4 1 1s-.4 1-1 1z"/></g></svg></svg>