<?xml version="1.0" encoding="utf-8"?>
<!-- Generator: Adobe Illustrator 16.0.4, SVG Export Plug-In . SVG Version: 6.00 Build 0)  -->
<!DOCTYPE svg PUBLIC "-//W3C//DTD SVG 1.1//EN" "http://www.w3.org/Graphics/SVG/1.1/DTD/svg11.dtd">
<svg version="1.1" id="Layer_1" xmlns="http://www.w3.org/2000/svg" xmlns:xlink="http://www.w3.org/1999/xlink" x="0px" y="0px"
	 width="30px" height="30px" viewBox="0 0 30 30" enable-background="new 0 0 30 30" xml:space="preserve">
<g>
	<path fill="#D1D3D4" d="M26.5,24.4l-3.8-3.8c0.8-1.2,1.3-2.6,1.3-4.2c0-4.2-3.4-7.5-7.5-7.5s-7.5,3.4-7.5,7.5s3.4,7.5,7.5,7.5
		c1.5,0,3-0.5,4.2-1.3l3.8,3.8c0.3,0.3,0.7,0.4,1.1,0.4s0.8-0.1,1.1-0.4C27.1,26,27.1,25,26.5,24.4z M12,16.5c0-2.5,2-4.5,4.5-4.5
		s4.5,2,4.5,4.5s-2,4.5-4.5,4.5S12,19,12,16.5z"/>
	<path fill="#D1D3D4" d="M8,22H6.2C5,22,4,21,4,19.8V6.2C4,5,5,4,6.2,4h13.6C21,4,22,5,22,6.2V8c0,0.3,0.2,0.5,0.5,0.5S23,8.3,23,8
		V6.2C23,4.4,21.6,3,19.8,3H6.2C4.4,3,3,4.4,3,6.2v13.6C3,21.6,4.4,23,6.2,23H8c0.3,0,0.5-0.2,0.5-0.5S8.3,22,8,22z"/>
</g>
</svg>
