<?xml version="1.0" encoding="utf-8"?>
<!-- Generator: Adobe Illustrator 19.0.1, SVG Export Plug-In . SVG Version: 6.00 Build 0)  -->
<svg version="1.1" id="Layer_1" xmlns="http://www.w3.org/2000/svg" xmlns:xlink="http://www.w3.org/1999/xlink" x="0px" y="0px"
	 viewBox="0 0 30 30" enable-background="new 0 0 30 30" xml:space="preserve">
<g>
	<path fill="#53CDFF" d="M27,6.2C27,4.4,25.6,3,23.8,3H6.2C4.4,3,3,4.4,3,6.2v17.7C3,25.6,4.4,27,6.2,27h17.7c1.7,0,3.2-1.4,3.2-3.2
		V6.2z M26,23.8c0,1.2-1,2.2-2.2,2.2H6.2C5,26,4,25,4,23.8V6.2C4,5,5,4,6.2,4h17.7C25,4,26,5,26,6.2V23.8z"/>
	<path fill="#53CDFF" d="M24,7.5C24,6.7,23.3,6,22.5,6h-15C6.7,6,6,6.7,6,7.5v3C6,11.3,6.7,12,7.5,12h15c0.8,0,1.5-0.7,1.5-1.5V7.5z
		 M23,10.5c0,0.3-0.2,0.5-0.5,0.5h-15C7.2,11,7,10.8,7,10.5v-3C7,7.2,7.2,7,7.5,7h15C22.8,7,23,7.2,23,7.5V10.5z"/>
	<path fill="#53CDFF" d="M22.5,20h-5c-0.8,0-1.5,0.7-1.5,1.5v1c0,0.8,0.7,1.5,1.5,1.5h5c0.8,0,1.5-0.7,1.5-1.5v-1
		C24,20.7,23.3,20,22.5,20z"/>
	<path fill="#53CDFF" d="M12.5,20h-5C6.7,20,6,20.7,6,21.5v1C6,23.3,6.7,24,7.5,24h5c0.8,0,1.5-0.7,1.5-1.5v-1
		C14,20.7,13.3,20,12.5,20z M13,22.5c0,0.3-0.2,0.5-0.5,0.5h-5C7.2,23,7,22.8,7,22.5v-1C7,21.2,7.2,21,7.5,21h5
		c0.3,0,0.5,0.2,0.5,0.5V22.5z"/>
	<path fill="#53CDFF" d="M22.5,14h-15C6.7,14,6,14.7,6,15.5v1C6,17.3,6.7,18,7.5,18h15c0.8,0,1.5-0.7,1.5-1.5v-1
		C24,14.7,23.3,14,22.5,14z M23,16.5c0,0.3-0.2,0.5-0.5,0.5h-15C7.2,17,7,16.8,7,16.5v-1C7,15.2,7.2,15,7.5,15h15
		c0.3,0,0.5,0.2,0.5,0.5V16.5z"/>
</g>
</svg>
