<?xml version="1.0" encoding="utf-8"?>
<!-- Generator: Adobe Illustrator 16.0.4, SVG Export Plug-In . SVG Version: 6.00 Build 0)  -->
<!DOCTYPE svg PUBLIC "-//W3C//DTD SVG 1.1//EN" "http://www.w3.org/Graphics/SVG/1.1/DTD/svg11.dtd">
<svg version="1.1" id="Layer_1" xmlns="http://www.w3.org/2000/svg" xmlns:xlink="http://www.w3.org/1999/xlink" x="0px" y="0px"
	 width="30px" height="30px" viewBox="0 0 30 30" enable-background="new 0 0 30 30" xml:space="preserve">
<path fill="#53CDFF" d="M26,11H4c-0.6,0-1-0.4-1-1s0.4-1,1-1h22c0.6,0,1,0.4,1,1S26.6,11,26,11z"/>
<path fill="#53CDFF" d="M22.5,15H4c-0.6,0-1-0.4-1-1s0.4-1,1-1h18.5c0.6,0,1,0.4,1,1S23.1,15,22.5,15z"/>
<path fill="#53CDFF" d="M18.5,19H4c-0.6,0-1-0.4-1-1s0.4-1,1-1h14.5c0.6,0,1,0.4,1,1S19.1,19,18.5,19z"/>
<path fill="#53CDFF" d="M20,23H4c-0.6,0-1-0.4-1-1s0.4-1,1-1h16c0.6,0,1,0.4,1,1S20.6,23,20,23z"/>
</svg>
