<?xml version="1.0" encoding="UTF-8" standalone="no"?>
<svg width="22px" height="22px" viewBox="0 0 22 22" version="1.1" xmlns="http://www.w3.org/2000/svg" xmlns:xlink="http://www.w3.org/1999/xlink" xmlns:sketch="http://www.bohemiancoding.com/sketch/ns">
    <!-- Generator: Sketch 3.3.3 (12081) - http://www.bohemiancoding.com/sketch -->
    <title>Fill-1 + Fill-2 + Fill-3</title>
    <desc>Created with Sketch.</desc>
    <defs></defs>
    <g id="Page-1" stroke="none" stroke-width="1" fill="none" fill-rule="evenodd" sketch:type="MSPage">
        <g id="Artboard-1" sketch:type="MSArtboardGroup">
            <g id="Fill-1-+-Fill-2-+-Fill-3" sketch:type="MSLayerGroup">
                <path d="M11,2.12862254 C6.07367432,2.12862254 2.0887916,6.11245689 2.0887916,11.0398309 C2.0887916,15.967205 6.07367432,19.9510393 11,19.9510393 C15.9273741,19.9510393 19.9112084,15.967205 19.9112084,11.0398309 C19.9112084,6.11245689 15.9273741,2.12862254 11,2.12862254" id="Fill-1" fill="#FFFFFF" sketch:type="MSShapeGroup"></path>
                <path d="M11,22 C4.92380952,22 0,17.0761905 0,11 C0,4.92380952 4.92380952,0 11,0 C17.0772381,0 22,4.92380952 22,11 C22,17.0761905 17.0772381,22 11,22 L11,22 L11,22 Z M11,2.0952381 C6.0772381,2.0952381 2.0952381,6.07619048 2.0952381,11 C2.0952381,15.9238095 6.0772381,19.9047619 11,19.9047619 C15.9238095,19.9047619 19.9047619,15.9238095 19.9047619,11 C19.9047619,6.07619048 15.9238095,2.0952381 11,2.0952381 L11,2.0952381 L11,2.0952381 Z" id="Fill-2" fill="#2C3E50" sketch:type="MSShapeGroup"></path>
                <path d="M7,13.6666667 L9.66666667,11 L7,8.33333333 L8.46666667,7 L11,9.66666667 L13.5333333,7 L15,8.33333333 L12.3333333,11 L15,13.6666667 L13.5333333,15 L11,12.3333333 L8.46666667,15 L7,13.6666667" id="Fill-3" fill="#2C3E50" sketch:type="MSShapeGroup"></path>
            </g>
        </g>
    </g>
</svg>