<?xml version="1.0" encoding="UTF-8" standalone="no"?>
<svg width="10px" height="22px" viewBox="0 0 10 22" version="1.1" xmlns="http://www.w3.org/2000/svg" xmlns:xlink="http://www.w3.org/1999/xlink" xmlns:sketch="http://www.bohemiancoding.com/sketch/ns">
    <!-- Generator: Sketch 3.3.3 (12072) - http://www.bohemiancoding.com/sketch -->
    <title>gripper</title>
    <desc>Created with Sketch.</desc>
    <defs></defs>
    <g id="Composer" stroke="none" stroke-width="1" fill="none" fill-rule="evenodd" sketch:type="MSPage">
        <g id="Drag-&amp;-Drop" sketch:type="MSArtboardGroup" transform="translate(-176.000000, -712.000000)" fill="#122232">
            <g id="gripper" sketch:type="MSLayerGroup" transform="translate(181.000000, 723.000000) scale(1, -1) rotate(-90.000000) translate(-181.000000, -723.000000) translate(170.000000, 718.000000)">
                <g id="Group" sketch:type="MSShapeGroup">
                    <path d="M2,0 L2,2 L0,2 L2,0 Z" id="Rectangle-95"></path>
                    <path d="M10,0 L10,2 L8,2 L10,0 Z" id="Rectangle-95-Copy-2"></path>
                    <path d="M18,0 L18,2 L16,2 L18,0 Z" id="Rectangle-95-Copy-4"></path>
                    <path d="M6,0 L6,2 L4,2 L6,0 Z" id="Rectangle-95-Copy"></path>
                    <path d="M14,0 L14,2 L12,2 L14,0 Z" id="Rectangle-95-Copy-3"></path>
                    <path d="M22,0 L22,2 L20,2 L22,0 Z" id="Rectangle-95-Copy-5"></path>
                </g>
                <g id="Group-Copy" transform="translate(0.000000, 4.000000)" sketch:type="MSShapeGroup">
                    <path d="M2,0 L2,2 L0,2 L2,0 Z" id="Rectangle-95"></path>
                    <path d="M10,0 L10,2 L8,2 L10,0 Z" id="Rectangle-95-Copy-2"></path>
                    <path d="M18,0 L18,2 L16,2 L18,0 Z" id="Rectangle-95-Copy-4"></path>
                    <path d="M6,0 L6,2 L4,2 L6,0 Z" id="Rectangle-95-Copy"></path>
                    <path d="M14,0 L14,2 L12,2 L14,0 Z" id="Rectangle-95-Copy-3"></path>
                    <path d="M22,0 L22,2 L20,2 L22,0 Z" id="Rectangle-95-Copy-5"></path>
                </g>
                <g id="Group-Copy-3" transform="translate(0.000000, 8.000000)" sketch:type="MSShapeGroup">
                    <path d="M2,0 L2,2 L0,2 L2,0 Z" id="Rectangle-95"></path>
                    <path d="M10,0 L10,2 L8,2 L10,0 Z" id="Rectangle-95-Copy-2"></path>
                    <path d="M18,0 L18,2 L16,2 L18,0 Z" id="Rectangle-95-Copy-4"></path>
                    <path d="M6,0 L6,2 L4,2 L6,0 Z" id="Rectangle-95-Copy"></path>
                    <path d="M14,0 L14,2 L12,2 L14,0 Z" id="Rectangle-95-Copy-3"></path>
                    <path d="M22,0 L22,2 L20,2 L22,0 Z" id="Rectangle-95-Copy-5"></path>
                </g>
            </g>
        </g>
    </g>
</svg>