<?xml version="1.0" encoding="utf-8"?>
<!-- Generator: Adobe Illustrator 19.0.1, SVG Export Plug-In . SVG Version: 6.00 Build 0)  -->
<svg version="1.1" id="Layer_1" xmlns="http://www.w3.org/2000/svg" xmlns:xlink="http://www.w3.org/1999/xlink" x="0px" y="0px"
	 viewBox="-587 651 100 100" enable-background="new -587 651 100 100" xml:space="preserve">
<g>
	<path fill="#2B3C4D" d="M-525.5,680c1.8,0,3.4,1.3,3.4,2.8l0,4.3c0,1.4-1,2.9-2.9,2.9l-44.9-0.1c-1.9,0-3.7-1.3-3.7-2.8l0-4.3
		c0-1.5,1.5-2.8,3.4-2.8L-525.5,680 M-525.5,679h-44.8c-2.4,0-4.3,1.7-4.3,3.8l0,4.3c0,2.1,2.3,3.8,4.7,3.7l44.9,0.1
		c2.3,0.1,3.8-1.7,3.8-3.8l0-4.2C-521.2,680.7-523.1,679-525.5,679L-525.5,679z"/>
</g>
<path fill="#2B3C4D" d="M-507.1,690.9h3.5c2.3,0,4.2-1.7,4.2-3.8l0-4.3c0-2.1-1.9-3.8-4.2-3.8h-3.5c-2.3,0-4.2,1.7-4.2,3.8l0,4.3
	C-511.3,689.2-509.4,690.9-507.1,690.9z"/>
<path fill="#2B3C4D" d="M-496.4,670.1c3.3,0,5.9,2.7,5.9,5.9v49.5c0,3.3-2.7,5.9-5.9,5.9h-81.2c-3.3,0-5.9-2.7-5.9-5.9v-49.5
	c0-3.3,2.7-5.9,5.9-5.9H-496.4 M-496.4,667.2h-81.2c-4.9,0-8.9,4-8.9,8.9v49.5c0,4.9,4,8.9,8.9,8.9h81.2c4.9,0,8.9-4,8.9-8.9v-49.5
	C-487.5,671.2-491.5,667.2-496.4,667.2L-496.4,667.2z"/>
<rect x="-585.5" y="700" fill="#2B3C4D" width="97.1" height="1.7"/>
<path fill="#2B3C4D" d="M-551.9,702.2v28.9c0,0.8-0.2,1.4-0.5,1.4c-0.3,0-0.5-0.6-0.5-1.4v-28.9c0-0.8,0.2-1.4,0.5-1.4
	C-552.1,700.8-551.9,701.4-551.9,702.2"/>
<path fill="#2B3C4D" d="M-521.2,702.2v28.9c0,0.8-0.2,1.4-0.5,1.4c-0.3,0-0.5-0.6-0.5-1.4v-28.9c0-0.8,0.2-1.4,0.5-1.4
	C-521.4,700.8-521.2,701.4-521.2,702.2"/>
<rect x="-578.6" y="709.7" fill="#2B3C4D" width="19.8" height="2"/>
<rect x="-578.6" y="715.7" fill="#2B3C4D" width="19.8" height="2"/>
<rect x="-578.6" y="721.6" fill="#2B3C4D" width="19.8" height="2"/>
<rect x="-546.9" y="709.7" fill="#2B3C4D" width="19.8" height="2"/>
<rect x="-546.9" y="715.7" fill="#2B3C4D" width="19.8" height="2"/>
<rect x="-546.9" y="721.6" fill="#2B3C4D" width="19.8" height="2"/>
<rect x="-516.2" y="709.7" fill="#2B3C4D" width="19.8" height="2"/>
<rect x="-516.2" y="715.7" fill="#2B3C4D" width="19.8" height="2"/>
<rect x="-516.2" y="721.6" fill="#2B3C4D" width="19.8" height="2"/>
</svg>
