<?xml version="1.0" encoding="utf-8"?>
<!-- Generator: Adobe Illustrator 16.0.0, SVG Export Plug-In . SVG Version: 6.00 Build 0)  -->
<!DOCTYPE svg PUBLIC "-//W3C//DTD SVG 1.1//EN" "http://www.w3.org/Graphics/SVG/1.1/DTD/svg11.dtd">
<svg version="1.1" xmlns="http://www.w3.org/2000/svg" xmlns:xlink="http://www.w3.org/1999/xlink" x="0px" y="0px"
	 width="106.425px" height="77.315px" viewBox="0 0 106.425 77.315" enable-background="new 0 0 106.425 77.315"
	 xml:space="preserve">
<g id="Layer_2">
</g>
<g id="Layer_1">
	<g>
		<defs>
			<rect id="SVGID_1_" x="-798.438" y="-277.133" width="1644" height="792"/>
		</defs>
		<clipPath id="SVGID_2_">
			<use xlink:href="#SVGID_1_"  overflow="visible"/>
		</clipPath>
		<g clip-path="url(#SVGID_2_)">
			<defs>
				<path id="SVGID_3_" d="M23.061,4.426h-0.5v0.5v38.732v0.5h0.5h68.853h0.5v-0.5V4.926v-0.5h-0.5H23.061z M23.061,5.426h68.853
					l-0.5-0.5v38.732l0.5-0.5H23.061l0.5,0.5V4.926L23.061,5.426z M18.736,8.51v37.098c0,4.698,3.81,8.51,8.507,8.51h60.489
					c4.696,0,8.506-3.811,8.506-8.51V8.51c0-4.698-3.809-8.51-8.506-8.51H27.243C22.546,0,18.736,3.811,18.736,8.51z M19.736,8.51
					c0-4.147,3.363-7.51,7.507-7.51h60.489c4.145,0,7.506,3.363,7.506,7.51v37.098c0,4.147-3.361,7.51-7.506,7.51H27.243
					c-4.145,0-7.507-3.363-7.507-7.51V8.51z M-1.264-20h117.502v94.117H-1.264V-20z"/>
			</defs>
			<clipPath id="SVGID_4_">
				<use xlink:href="#SVGID_3_"  overflow="visible"/>
			</clipPath>
			<g clip-path="url(#SVGID_4_)">
				<defs>
					<path id="SVGID_5_" d="M23.061,4.926h68.853v38.732H23.061V4.926z M19.236,8.51c0-4.424,3.587-8.01,8.007-8.01h60.489
						c4.422,0,8.006,3.588,8.006,8.01v37.098c0,4.424-3.587,8.01-8.006,8.01H27.243c-4.422,0-8.007-3.588-8.007-8.01V8.51z"/>
				</defs>
				<clipPath id="SVGID_6_">
					<use xlink:href="#SVGID_5_"  overflow="visible"/>
				</clipPath>
				<path clip-path="url(#SVGID_6_)" fill-rule="evenodd" clip-rule="evenodd" fill="#2B3F51" d="M23.061,4.926h68.853v38.732
					H23.061V4.926z M19.236,8.51c0-4.424,3.587-8.01,8.007-8.01h60.489c4.422,0,8.006,3.588,8.006,8.01v37.098
					c0,4.424-3.587,8.01-8.006,8.01H27.243c-4.422,0-8.007-3.588-8.007-8.01V8.51z"/>
			</g>
		</g>
		<rect x="23.061" y="4.926" clip-path="url(#SVGID_2_)" fill="#ECF0F1" width="68.853" height="38.732"/>
	</g>
	<g>
		<defs>
			<rect id="SVGID_7_" x="-798.438" y="-277.133" width="1644" height="792"/>
		</defs>
		<clipPath id="SVGID_8_">
			<use xlink:href="#SVGID_7_"  overflow="visible"/>
		</clipPath>
		<g clip-path="url(#SVGID_8_)">
			<defs>
				<path id="SVGID_9_" d="M23.061,4.926h68.853v38.732H23.061V4.926z M19.236,8.51c0-4.424,3.587-8.01,8.007-8.01h60.489
					c4.422,0,8.006,3.588,8.006,8.01v37.098c0,4.424-3.587,8.01-8.006,8.01H27.243c-4.422,0-8.007-3.588-8.007-8.01V8.51z"/>
			</defs>
			<clipPath id="SVGID_10_">
				<use xlink:href="#SVGID_9_"  overflow="visible"/>
			</clipPath>
			<path clip-path="url(#SVGID_10_)" fill="none" stroke="#2B3F51" stroke-width="2" stroke-miterlimit="10" d="M23.061,4.926
				h68.853v38.732H23.061V4.926z M19.236,8.51c0-4.424,3.587-8.01,8.007-8.01h60.489c4.422,0,8.006,3.588,8.006,8.01v37.098
				c0,4.424-3.587,8.01-8.006,8.01H27.243c-4.422,0-8.007-3.588-8.007-8.01V8.51z"/>
		</g>
	</g>
	<g>
		<defs>
			<rect id="SVGID_11_" x="-798.438" y="-277.133" width="1644" height="792"/>
		</defs>
		<clipPath id="SVGID_12_">
			<use xlink:href="#SVGID_11_"  overflow="visible"/>
		</clipPath>
		<g clip-path="url(#SVGID_12_)">
			<defs>
				<path id="SVGID_13_" d="M56.173,49.353c-2.373,2.299-8.105,7.473-8.105,7.473s-4.154,3.746,1.32,3.746s15.83-0.005,15.83-0.005
					s6.072,0,2.263-3.741c-3.809-3.741-5.845-6.517-7.022-7.473C59.281,48.397,58.546,47.054,56.173,49.353z"/>
			</defs>
			<clipPath id="SVGID_14_">
				<use xlink:href="#SVGID_13_"  overflow="visible"/>
			</clipPath>
			<rect x="41.558" y="43.084" clip-path="url(#SVGID_14_)" fill="#2B3F51" width="32.179" height="22.487"/>
		</g>
	</g>
	<g>
		<defs>
			<rect id="SVGID_15_" x="-798.438" y="-277.133" width="1644" height="792"/>
		</defs>
		<clipPath id="SVGID_16_">
			<use xlink:href="#SVGID_15_"  overflow="visible"/>
		</clipPath>
		<path clip-path="url(#SVGID_16_)" fill="none" stroke="#2B3F51" stroke-miterlimit="10" d="M1.222,38.598
			c0-1.653,1.338-2.994,2.994-2.994h27.096c1.654,0,2.994,1.343,2.994,2.994v34.722c0,1.653-1.338,2.994-2.994,2.994H4.216
			c-1.654,0-2.994-1.343-2.994-2.994V38.598z"/>
	</g>
	<g>
		<defs>
			<rect id="SVGID_17_" x="-798.438" y="-277.133" width="1644" height="792"/>
		</defs>
		<clipPath id="SVGID_18_">
			<use xlink:href="#SVGID_17_"  overflow="visible"/>
		</clipPath>
		<g clip-path="url(#SVGID_18_)">
			<defs>
				<rect id="SVGID_19_" x="-798.438" y="-277.133" width="1644" height="792"/>
			</defs>
			<clipPath id="SVGID_20_">
				<use xlink:href="#SVGID_19_"  overflow="visible"/>
			</clipPath>
			<g clip-path="url(#SVGID_20_)">
				<defs>
					<path id="SVGID_21_" d="M1.222,38.598c0-1.653,1.338-2.994,2.994-2.994h27.096c1.654,0,2.994,1.343,2.994,2.994v34.722
						c0,1.653-1.338,2.994-2.994,2.994H4.216c-1.654,0-2.994-1.343-2.994-2.994V38.598z"/>
				</defs>
				<clipPath id="SVGID_22_">
					<use xlink:href="#SVGID_21_"  overflow="visible"/>
				</clipPath>
				<rect x="-3.778" y="30.604" clip-path="url(#SVGID_22_)" fill="#2B3F51" width="43.084" height="50.71"/>
			</g>
		</g>
		<g clip-path="url(#SVGID_18_)">
			<defs>
				<rect id="SVGID_23_" x="3.315" y="38.148" width="29.315" height="32.228"/>
			</defs>
			<clipPath id="SVGID_24_">
				<use xlink:href="#SVGID_23_"  overflow="visible"/>
			</clipPath>
			<rect x="-1.685" y="33.148" clip-path="url(#SVGID_24_)" fill="#ECF0F1" width="39.315" height="42.228"/>
		</g>
	</g>
	<g>
		<defs>
			<rect id="SVGID_25_" x="-798.438" y="-277.133" width="1644" height="792"/>
		</defs>
		<clipPath id="SVGID_26_">
			<use xlink:href="#SVGID_25_"  overflow="visible"/>
		</clipPath>
		<g clip-path="url(#SVGID_26_)">
			<defs>
				<ellipse id="SVGID_27_" cx="17.764" cy="73.557" rx="1.465" ry="1.484"/>
			</defs>
			<clipPath id="SVGID_28_">
				<use xlink:href="#SVGID_27_"  overflow="visible"/>
			</clipPath>
			<rect x="11.298" y="67.072" clip-path="url(#SVGID_28_)" fill="#ECF0F1" width="12.931" height="12.969"/>
		</g>
	</g>
	<g>
		<defs>
			<rect id="SVGID_29_" x="-798.438" y="-277.133" width="1644" height="792"/>
		</defs>
		<clipPath id="SVGID_30_">
			<use xlink:href="#SVGID_29_"  overflow="visible"/>
		</clipPath>
		<g clip-path="url(#SVGID_30_)">
			<defs>
				<path id="SVGID_31_" d="M86.324,43.932v28.893c0,1.936,1.566,3.506,3.498,3.506h12.66c1.933,0,3.498-1.57,3.498-3.506V43.932
					c0-1.936-1.566-3.507-3.498-3.507h-12.66C87.89,40.425,86.324,41.995,86.324,43.932z M87.324,43.932
					c0-1.385,1.119-2.507,2.498-2.507h12.66c1.379,0,2.498,1.123,2.498,2.507v28.893c0,1.385-1.119,2.506-2.498,2.506h-12.66
					c-1.379,0-2.498-1.122-2.498-2.506V43.932z M66.324,20.425h59.656V96.33H66.324V20.425z"/>
			</defs>
			<clipPath id="SVGID_32_">
				<use xlink:href="#SVGID_31_"  overflow="visible"/>
			</clipPath>
			<g clip-path="url(#SVGID_32_)">
				<defs>
					<path id="SVGID_33_" d="M86.824,43.932c0-1.66,1.342-3.007,2.998-3.007h12.66c1.656,0,2.998,1.348,2.998,3.007v28.893
						c0,1.66-1.342,3.006-2.998,3.006h-12.66c-1.655,0-2.998-1.347-2.998-3.006V43.932z"/>
				</defs>
				<clipPath id="SVGID_34_">
					<use xlink:href="#SVGID_33_"  overflow="visible"/>
				</clipPath>
				<path clip-path="url(#SVGID_34_)" fill-rule="evenodd" clip-rule="evenodd" fill="#2B3F51" d="M86.824,43.932
					c0-1.66,1.342-3.007,2.998-3.007h12.66c1.656,0,2.998,1.348,2.998,3.007v28.893c0,1.66-1.342,3.006-2.998,3.006h-12.66
					c-1.655,0-2.998-1.347-2.998-3.006V43.932z"/>
			</g>
		</g>
	</g>
	<g>
		<defs>
			<path id="SVGID_35_" d="M86.824,43.932c0-1.66,1.342-3.007,2.998-3.007h12.66c1.656,0,2.998,1.348,2.998,3.007v28.893
				c0,1.66-1.342,3.006-2.998,3.006h-12.66c-1.655,0-2.998-1.347-2.998-3.006V43.932z"/>
		</defs>
		<clipPath id="SVGID_36_">
			<use xlink:href="#SVGID_35_"  overflow="visible"/>
		</clipPath>
		<path clip-path="url(#SVGID_36_)" fill="none" stroke="#2B3F51" stroke-width="2" stroke-miterlimit="10" d="M86.824,43.932
			c0-1.66,1.342-3.007,2.998-3.007h12.66c1.656,0,2.998,1.348,2.998,3.007v28.893c0,1.66-1.342,3.006-2.998,3.006h-12.66
			c-1.655,0-2.998-1.347-2.998-3.006V43.932z"/>
	</g>
	<rect x="-798.438" y="-277.133" fill-rule="evenodd" clip-rule="evenodd" fill="none" width="1644" height="792"/>
	<g>
		<defs>
			<rect id="SVGID_37_" x="-798.438" y="-277.133" width="1644" height="792"/>
		</defs>
		<clipPath id="SVGID_38_">
			<use xlink:href="#SVGID_37_"  overflow="visible"/>
		</clipPath>
		<g clip-path="url(#SVGID_38_)">
			<defs>
				<rect id="SVGID_39_" x="90.97" y="43.8" width="10.363" height="1.643"/>
			</defs>
			<clipPath id="SVGID_40_">
				<use xlink:href="#SVGID_39_"  overflow="visible"/>
			</clipPath>
			<rect x="85.97" y="38.8" clip-path="url(#SVGID_40_)" fill="#ECF0F1" width="20.363" height="11.643"/>
		</g>
	</g>
	<g>
		<defs>
			<rect id="SVGID_41_" x="88.207" y="47.085" width="15.891" height="22.996"/>
		</defs>
		<clipPath id="SVGID_42_">
			<use xlink:href="#SVGID_41_"  overflow="visible"/>
		</clipPath>
		<rect x="83.207" y="42.085" clip-path="url(#SVGID_42_)" fill="#ECF0F1" width="25.891" height="32.996"/>
	</g>
	<rect x="-798.438" y="-277.133" fill-rule="evenodd" clip-rule="evenodd" fill="none" width="1644" height="792"/>
	<g>
		<defs>
			<rect id="SVGID_43_" x="-798.438" y="-277.133" width="1644" height="792"/>
		</defs>
		<clipPath id="SVGID_44_">
			<use xlink:href="#SVGID_43_"  overflow="visible"/>
		</clipPath>
		<circle clip-path="url(#SVGID_44_)" fill-rule="evenodd" clip-rule="evenodd" fill="#ECF0F1" cx="96.292" cy="72.708" r="1.4"/>
	</g>
</g>
</svg>
